<svg width="82" height="115" fill="none" xmlns="http://www.w3.org/2000/svg"><path d="M61.202 65.657l.033-.028.028-.034 1.035-1.249c.266-.32.362-.749.26-1.153l-.945-3.705.806-2.636 17.571-13.53c.933-.718.513-2.196-.65-2.33l-17.742-2.04 1-34.108a1.307 1.307 0 00-1.31-1.344H28.27c-.72 0-1.31.582-1.31 1.306v9.338l-6.517.662c-1.21.122-1.617 1.685-.609 2.375l2.468 1.69 5.064 4.817c.095.09.201.164.318.222l5.228 2.612 1.304 3.862c.117.348.377.63.714.778l2.63 1.152-.718.643c-.276.248-.435.6-.435.972v2.199H15.691c-.46 0-.889.241-1.125.638l-8.882 14.88c-.26.435-.244.98.04 1.399l2.068 3.05-1.696 2.661c-.12.19-.19.407-.203.631l-.391 7.333c-.024.443.18.867.54 1.127h0c3.131 2.255 5.486 3.949 7.063 5.08a740.588 740.588 0 002.24 1.602l.121.085.018.012a1.413 1.413 0 00.065.041h0a.407.407 0 00.068.032l8.805 3.341c.148.056.306.085.465.085h12.488l5.765 3.21a1.312 1.312 0 001.615-.272l4.656-5.207h1.737c.326 0 .642-.122.883-.342l3.845-3.507c.407-.37.538-.956.326-1.465l-.721-1.727 2.723-.77a1.3 1.3 0 00.487-.258l.002-.002 2.509-2.128zM75.84 43.218L60.488 55.04a1.306 1.306 0 00-.452.653l-1.034 3.383c-.07.228-.076.47-.017.702l.87 3.416-.535.647-2.102 1.769-3.87 1.094a1.305 1.305 0 00-.85 1.757l.933 2.238-2.792 2.546h-1.815a1.31 1.31 0 00-.977.437l-4.348 4.862-5.145-2.864a1.313 1.313 0 00-.639-.166H25.128L16.71 72.32l-8.555-6.172.335-6.28 1.972-3.094a1.3 1.3 0 00-.02-1.431L8.359 52.27l8.077-13.531h21.28c.72 0 1.309-.582 1.309-1.306v-2.922l1.795-1.607a1.304 1.304 0 00-.348-2.166l-3.96-1.734-1.292-3.825a1.307 1.307 0 00-.654-.75l-5.535-2.766-4.862-4.61 4.233-.43a1.307 1.307 0 001.176-1.3V6.112H59.94l-.995 33.963c-.02.68.486 1.258 1.159 1.335l15.737 1.809z" fill="#501D9A" stroke="#501D9A"/></svg>