<svg width="22" height="22" fill="none" xmlns="http://www.w3.org/2000/svg"><path d="M20.01.125H1.858C.867.125 0 .84 0 1.82v18.192c0 .986.867 1.864 1.858 1.864h18.147c.997 0 1.745-.884 1.745-1.864V1.82c.006-.98-.748-1.694-1.74-1.694zM6.742 18.255H3.626V8.567h3.116v9.688zM5.292 7.094H5.27c-.998 0-1.643-.742-1.643-1.672 0-.946.662-1.67 1.682-1.67s1.643.719 1.666 1.67c0 .93-.647 1.672-1.683 1.672zm12.838 11.16h-3.116v-5.296c0-1.27-.454-2.137-1.581-2.137-.861 0-1.371.583-1.598 1.15-.085.204-.108.482-.108.766v5.518H8.612V8.567h3.115v1.348c.454-.646 1.162-1.575 2.81-1.575 2.046 0 3.593 1.348 3.593 4.255v5.66z" fill="#fff"/></svg>