<svg width="23" height="18" fill="none" xmlns="http://www.w3.org/2000/svg"><path d="M22.221 2.744c-.805.35-1.658.58-2.53.684a4.359 4.359 0 001.939-2.396 8.849 8.849 0 01-2.799 1.05A4.434 4.434 0 0015.615.71c-2.435 0-4.405 1.94-4.405 4.332a4.16 4.16 0 00.114.988 12.563 12.563 0 01-9.08-4.528 4.275 4.275 0 00-.6 2.176c0 1.502.785 2.83 1.969 3.608a4.364 4.364 0 01-2.003-.541v.053c0 2.101 1.52 3.849 3.533 4.247-.378.1-.768.152-1.16.152a4.23 4.23 0 01-.828-.08c.56 1.72 2.188 2.972 4.118 3.008A8.932 8.932 0 01.75 15.917a12.473 12.473 0 006.743 1.958c8.112 0 12.544-6.602 12.544-12.328 0-.188-.005-.376-.014-.559a8.874 8.874 0 002.198-2.244z" fill="#fff"/></svg>