<svg width="77" height="127" fill="none" xmlns="http://www.w3.org/2000/svg"><path d="M41 36.217A5.216 5.216 0 0046.217 31 5.216 5.216 0 0041 25.783 5.216 5.216 0 0035.783 31 5.216 5.216 0 0041 36.217zm0-7.826A2.616 2.616 0 0143.609 31 2.616 2.616 0 0141 33.609 2.616 2.616 0 0138.391 31 2.616 2.616 0 0141 28.391zM39.696 50.5v3.978h2.608V50.5c9.744-.652 17.544-8.452 18.196-18.196h3.978v-2.608H60.5c-.652-9.744-8.452-17.544-18.196-18.196V7.522h-2.608V11.5c-9.744.652-17.544 8.452-18.196 18.196h-3.978v2.608H21.5c.652 9.744 8.452 17.544 18.196 18.196zm0-36.391v5.152h2.608v-5.152c8.309.639 14.948 7.278 15.587 15.587H52.74v2.608h5.152c-.639 8.309-7.278 14.948-15.587 15.587V42.74h-2.608v5.152c-8.309-.639-14.948-7.278-15.587-15.587h5.152v-2.608H24.11c.639-8.309 7.278-14.948 15.587-15.587zM41 61c16.54 0 30-13.46 30-30S57.54 1 41 1 11 14.46 11 31s13.46 30 30 30zm0-57.391c15.104 0 27.391 12.287 27.391 27.391 0 15.104-12.287 27.391-27.391 27.391-15.104 0-27.391-12.287-27.391-27.391C13.609 15.896 25.896 3.609 41 3.609z" fill="#501D9A" stroke="#501D9A"/></svg>