<svg width="70" height="70" fill="none" xmlns="http://www.w3.org/2000/svg"><g fill="#8600D3"><path d="M63.012 9.325H50.08V1.78A1.78 1.78 0 0048.3 0H21.7a1.78 1.78 0 00-1.78 1.78v7.545H6.988A6.988 6.988 0 000 16.314v38.31a6.988 6.988 0 006.988 6.988h11.236a1.78 1.78 0 100-3.56H6.988a3.44 3.44 0 01-3.429-3.428v-38.31a3.44 3.44 0 013.43-3.43h56.023a3.44 3.44 0 013.429 3.43v38.31a3.44 3.44 0 01-3.43 3.428H51.777a1.78 1.78 0 100 3.56h11.236A6.988 6.988 0 0070 54.624v-38.31a6.988 6.988 0 00-6.988-6.989zM23.48 3.56h23.04v5.766H23.48V3.56z"/><path d="M58.242 42.25C58.005 29.672 42.605 25.187 35 35c-7.629-9.753-23.005-5.268-23.242 7.309a12.576 12.576 0 003.701 8.945l18.283 18.224A1.8 1.8 0 0035 70a1.78 1.78 0 001.258-.522L54.54 51.195a12.578 12.578 0 003.701-8.946zM35 65.704L17.986 48.68a9.028 9.028 0 01-2.669-6.43c-.237-7.867 10.108-12.186 15.53-6.431l2.895 2.895a1.839 1.839 0 002.516 0l2.895-2.895c5.35-5.755 15.815-1.424 15.53 6.43a9.066 9.066 0 01-2.658 6.43L35 65.706z"/><path d="M39.9 48.05h-3.12v-3.143a1.78 1.78 0 10-3.56 0v3.144h-3.108a1.78 1.78 0 100 3.56h3.108v3.084a1.78 1.78 0 103.56 0V51.61h3.12a1.78 1.78 0 100-3.56z"/></g></svg>