<svg width="227" height="47" fill="none" xmlns="http://www.w3.org/2000/svg"><g clip-path="url(#clip0_56_94)" fill-rule="evenodd" clip-rule="evenodd" fill="#E40520"><path d="M23.858 0c13.177 0 23.859 10.521 23.859 23.5S37.035 47 23.858 47C10.682 47 0 36.479 0 23.5S10.682 0 23.858 0zm0 2.238c-11.922 0-21.586 9.518-21.586 21.262s9.664 21.262 21.586 21.262c11.923 0 21.587-9.518 21.587-21.262S35.78 2.238 23.858 2.238z"/><path d="M25.028 28.055v7.201h-2.34v-7.2c-1.118 0-2.579-.007-3.131-.026l-7.76.02a3.576 3.576 0 01-1.943-.462 3.466 3.466 0 01-1.761-3.155c0-.185.022-.347.045-.474a13.595 13.595 0 011.648-4.438 13.623 13.623 0 013.097-3.639c.81-.589 1.949-.885 2.992-.707a3.772 3.772 0 011.891-2.26c.171-.095.333-.162.466-.21a16.727 16.727 0 015.626-.968c1.972 0 3.888.344 5.656.978 1.018.436 1.923 1.346 2.305 2.432a3.456 3.456 0 012.844.601c1.209 1 2.437 2.353 3.27 3.773a13.56 13.56 0 011.649 4.438c.023.127.042.29.045.474a3.466 3.466 0 01-1.761 3.155 3.563 3.563 0 01-1.943.461l-7.763-.019c-.553.02-2.01.022-3.128.025h-.004zm8.264-10.432a1.201 1.201 0 00-1.806.453l-3.934 6.748a.577.577 0 00-.019.615c.12.203.343.308.562.29l7.896.018c.233.02.475-.028.695-.152.41-.236.627-.675.591-1.114 0-.032 0-.067-.006-.115a11.307 11.307 0 00-1.37-3.69 11.444 11.444 0 00-2.573-3.027l-.039-.029.003.003zm-18.868 0l-.038.03a11.336 11.336 0 00-2.573 3.027 11.278 11.278 0 00-1.37 3.69.488.488 0 00-.007.114c-.036.439.181.878.591 1.114.22.124.463.172.695.153l7.896-.02a.586.586 0 00.562-.29.577.577 0 00-.019-.613l-3.933-6.75a1.17 1.17 0 00-.492-.531 1.215 1.215 0 00-1.315.08l.003-.004zm14.344-2.715c-.017-.006-.036-.016-.055-.022a14.414 14.414 0 00-4.855-.837c-1.703 0-3.322.292-4.831.83a.51.51 0 00-.127.06c-.497.23-.84.73-.84 1.306 0 .306.097.589.262.821l4.877 8.27a.729.729 0 00.66.415c.29 0 .533-.163.652-.398l4.877-8.274a1.436 1.436 0 00-.62-2.171zm39.688-3.715l5.827 11.75 5.824-11.75 8.81.003v23.5h-8.81V22.943l-5.824 11.75-5.827-11.75v11.75h-8.81v-23.5h8.81zm37.924 3.521l-3.578 12.269h7.156l-3.578-12.27zM91.746 34.696l6.851-23.5h15.569l6.852 23.5h-8.811l-1.125-3.858h-9.401l-1.125 3.858h-8.81zm42.949-20.8c1.985 0 3.914 1.047 3.914 3.177s-1.703 3.855-3.914 3.855h-1.91v-7.032h1.91zm5.621-2.69h-16.487v23.49h8.807v-9.789h7.68c3.839 0 6.955-3.069 6.955-6.85 0-3.783-3.113-6.851-6.955-6.851zm10.009-.013h23.422v3.858h-14.615v5.975h14.615v3.859h-14.615v9.811h-8.807V11.193zm62.06 19.645H227v3.855h-23.425v-23.5H227v3.858h-14.615v5.975H227v3.859h-14.615v5.953zm-24.692-16.939c1.936 0 3.914 1.047 3.914 3.174 0 2.126-1.752 3.855-3.914 3.855h-1.91v-7.03h1.91zm12.572 14.73v-.002zm0 .194v-.195c-.103-3.154-2.734-5.679-5.963-5.679 3.294 0 5.963-2.63 5.963-5.873 0-3.244-2.669-5.874-5.963-5.874h-17.478v23.494h8.956v-9.728h1.91c2.159 0 3.914 1.725 3.914 3.855 0 .063 0 .127-.007.187v5.686h8.665v-5.873h.003z"/></g><defs><clipPath id="clip0_56_94"><path fill="#fff" d="M0 0h227v47H0z"/></clipPath></defs></svg>