<svg width="243" height="61" fill="none" xmlns="http://www.w3.org/2000/svg"><g filter="url(#filter0_d_1_1456)"><path d="M104.92 25.45c.03-3.62.72-7.65 1.21-8.22.39-.44 2.69-1.03 6.63-1.03 4.17 0 6.49.66 6.86 1.07.48.52 1.15 4.6 1.19 8.18l.08 7.33c.01 1.04-.02 1.97-.19 2.11-.17.15-1.39.26-2.58.26-1.19 0-2.35-.12-2.53-.26-.2-.15-.24-.92-.25-2.11l-.01-2.3c0-.75-.12-1.45-.18-1.51-.05-.07-.76-.17-1.48-.17h-1.65c-.72 0-1.43.09-1.48.17-.05.07-.17.78-.18 1.51l-.01 2.3c0 1.03-.05 1.97-.23 2.11-.18.15-1.38.26-2.57.26-1.2 0-2.37-.12-2.54-.26-.18-.14-.21-.95-.2-2.11l.11-7.33zm8.77-.84c.72 0 1.41-.13 1.46-.23.05-.08.09-.48.03-1.36-.07-.9-.3-2.11-.6-2.37-.19-.17-.63-.34-1.7-.34-1.06 0-1.51.17-1.7.34-.31.26-.52 1.48-.59 2.34-.08.96-.02 1.31.02 1.39.05.07.74.23 1.46.23h1.62zm74.41.84c.03-3.62.72-7.65 1.21-8.22.39-.44 2.69-1.03 6.63-1.03 4.17 0 6.49.66 6.86 1.07.48.52 1.15 4.6 1.19 8.18l.08 7.33c.01 1.04-.02 1.97-.19 2.11-.17.15-1.39.26-2.58.26-1.19 0-2.35-.12-2.53-.26-.2-.15-.24-.92-.25-2.11l-.01-2.3c0-.75-.12-1.45-.18-1.51-.05-.07-.76-.17-1.48-.17h-1.65c-.72 0-1.43.09-1.48.17-.05.07-.17.78-.18 1.51l-.01 2.3c0 1.03-.05 1.97-.23 2.11-.18.15-1.38.26-2.57.26-1.2 0-2.37-.12-2.54-.26-.18-.14-.21-.95-.2-2.11l.11-7.33zm8.77-.84c.72 0 1.41-.13 1.46-.23.05-.08.09-.48.03-1.36-.07-.9-.3-2.11-.6-2.37-.19-.17-.63-.34-1.7-.34-1.06 0-1.51.17-1.7.34-.31.26-.52 1.48-.59 2.34-.08.96-.02 1.31.02 1.39.05.07.74.23 1.46.23h1.62zm25.35.84c.03-3.62.72-7.65 1.22-8.22.39-.44 2.69-1.03 6.63-1.03 4.17 0 6.49.66 6.86 1.07.48.52 1.15 4.6 1.19 8.18l.08 7.33c.01 1.04-.02 1.97-.19 2.11-.17.15-1.39.26-2.58.26-1.19 0-2.35-.12-2.53-.26-.2-.15-.24-.92-.25-2.11l-.01-2.3c0-.75-.12-1.45-.18-1.51-.05-.07-.76-.17-1.48-.17h-1.65c-.72 0-1.43.09-1.48.17-.05.07-.17.78-.18 1.51l-.01 2.3c0 1.03-.05 1.97-.23 2.11-.19.15-1.38.26-2.57.26-1.2 0-2.37-.12-2.54-.26-.18-.14-.21-.95-.2-2.11l.1-7.33zm8.77-.84c.72 0 1.41-.13 1.46-.23.05-.08.1-.48.03-1.36-.07-.9-.3-2.11-.6-2.37-.19-.17-.63-.34-1.7-.34-1.06 0-1.51.17-1.7.34-.31.26-.52 1.48-.59 2.34-.08.96-.02 1.31.02 1.39.05.07.74.23 1.46.23h1.62zm-24.03-6.09c0-1.02.04-1.94.21-2.07.2-.16 1.47-.25 2.66-.25 1.25 0 2.39.1 2.61.25.21.15.24.92.24 2.07v10.77c0 .32.07.77.17.86.11.12.6.17.89.17h4.56c.56 0 1.5 0 1.61.16.11.13.18 1.33.18 2.29 0 .97-.08 2.04-.18 2.18-.09.14-.69.18-1.61.18l-8.68-.01c-.95 0-2.02-.17-2.26-.4-.24-.23-.4-1.33-.4-2.26V18.52zm-21.75 7.32c0-3.56-.62-7.99-1.11-8.57-.38-.48-2.58-1.08-6.79-1.08-2.13 0-3.59.19-4.55.42-1.13-.24-2.83-.42-5.14-.42-4.15 0-5.77.72-6.09 1.09-.47.53-1.11 4.93-1.11 8.56v7c0 1.17.03 1.9.23 2.06.2.14 1.08.25 2.39.25 1.28 0 2.37-.11 2.54-.25.2-.16.22-1 .22-2.06v-7.11c0-2.22.09-4.3.5-4.76.18-.21.63-.42 1.6-.42.97 0 1.52.09 1.69.4.21.34.47 1.31.54 3.19-.01.33-.02 3.41-.02 3.74v4.97c0 1.17.03 1.9.23 2.06.2.14 1.08.25 2.39.25h.2c1.25 0 2.19-.09 2.37-.25.2-.16.23-.9.23-2.06v-4.97c0-.39-.01-3.54-.02-3.94.03-1.78.15-2.57.49-2.96.18-.21.63-.42 1.6-.42.97 0 1.52.09 1.69.4.24.4.55 2.57.55 4.79v7.11c0 1.08.05 1.9.22 2.06.16.14 1.2.25 2.56.25 1.25 0 2.19-.09 2.37-.25.2-.16.23-.9.23-2.06v-7.02h-.01zM85.3 18.52c0-1.17.03-1.91.23-2.07.18-.16 1.13-.25 2.39-.25 1.37 0 2.42.1 2.58.25.17.16.23.98.23 2.07v7.14c0 2.23.32 4.43.56 4.83.17.31 1.36.4 2.38.4 1.5 0 2.15-.21 2.34-.43.41-.46.51-2.57.51-4.8v-7.14c0-1.06.03-1.91.23-2.07.17-.15 1.28-.25 2.57-.25 1.31 0 2.21.1 2.41.25.2.16.23.89.23 2.07v7.02c0 3.65-.64 8.1-1.12 8.63-.33.37-2.69 1.1-6.87 1.1-4.24 0-7.14-.61-7.53-1.09-.49-.59-1.12-5.05-1.12-8.64v-7.02h-.02zm-3.19 5.55c-.27-.31-1.39-.58-2.33-.58h-3.55c-.82 0-1.37.03-1.46.17-.11.15-.18 1.06-.18 1.98 0 .94.08 1.83.18 1.98.09.12.72.15 1.46.15h.21c.58 0 .91.08 1.01.2.05.06.05.33.03.67-.11.86-.24 1.57-.35 1.76-.17.27-1.79.38-2.92.4-1.24-.01-3.2-.12-3.37-.4-.25-.4-.56-3.16-.56-4.71 0-1.54.3-4.23.6-4.64.19-.27 1.95-.46 3.41-.46 2.16 0 5.52.71 5.82.71.46 0 .76-1.1.97-2.05.19-.81.36-1.95.27-2.11-.17-.29-4.3-.93-7.39-.93-4.15 0-7.56.61-7.97 1.06-.49.53-1.14 4.76-1.14 8.36 0 3.55.64 7.99 1.11 8.59.39.48 3.86 1.09 7.86 1.09h.14c3.52 0 6.38-.47 7.16-.91.22-.1.34-.18.36-.23.24-.53.78-4.03.94-6.99.09-2.25-.05-2.8-.31-3.11zm56.69-7.88c.73 0 1.37.03 1.46.15.11.12.19 1.38.19 2.16 0 .81-.08 1.98-.19 2.11-.09.13-4.97.43-5.38.51-.41.08-.45.38-.45.91v10.79c0 1.05-.04 1.93-.21 2.07-.17.15-1.05.25-2.58.25s-2.41-.1-2.58-.25c-.17-.15-.21-1.02-.21-2.07V22.03c0-.54-.05-.84-.45-.91-.41-.07-5.29-.38-5.38-.51-.11-.13-.19-1.3-.19-2.11 0-.79.08-2.04.19-2.16.09-.12.73-.15 1.46-.15h14.32zm14.89 4.54h-4.93c-.27 0-.46.11-.55.45-.08.33-.27 1.68-.24 2.07 0 .07 0 .12.05.2.06.07.19.09.3.09 1.66-.02 3.54-.02 3.54-.02h1.6c.69 0 1.24.02 1.32.14.1.11.23 1.26.23 2.01 0 .77-.13 1.82-.23 1.94-.09.13-.54.17-1.32.17h-.17c-1.66 0-3.32 0-4.97-.03-.11 0-.24.02-.3.09-.06.07-.05.13-.05.2-.03.39.16 1.82.25 2.14.09.34.28.45.55.45h7.17c1.06 0 1.61.05 1.78.19.12.09.31.93.31 2.07 0 1.13-.24 1.99-.31 2.07-.08.08-.56.17-1.62.17l-9.61.01c-.93 0-2.47-.28-2.95-.82-.48-.54-1.13-5.16-1.13-8.79 0-3.68.64-7.95 1.15-8.55.52-.6 1.2-.8 2.15-.8h10.22c.85 0 1.61.05 1.78.19.12.1.31.95.31 2.09 0 1.13-.24 2-.31 2.09-.08.08-.72.18-1.78.18h-2.24zM68.58 41.48h1.65l3.47 8.39h-1.97l-.57-1.41h-3.5l-.57 1.41h-1.97l3.46-8.39zm2.05 5.5l-1.22-3.04-1.23 3.04h2.45zm4.48.86c.32.39.95.66 1.66.66.64 0 .91-.2.91-.49 0-.41-.83-.45-1.76-.76-.84-.29-1.4-.77-1.4-1.68 0-1.3 1.13-1.95 2.36-1.95 1.08 0 1.78.37 2.24.78l-.86 1.18c-.26-.22-.72-.44-1.43-.44-.41 0-.6.18-.6.38 0 .41.49.34 1.66.74 1.09.37 1.49.95 1.49 1.72 0 1.17-.82 2.04-2.67 2.04-1.36 0-2.19-.52-2.65-1.08l1.05-1.1zm8.45-4.22c1.86 0 3.37 1.42 3.37 3.21s-1.5 3.21-3.37 3.21c-1.88 0-3.37-1.42-3.37-3.21s1.49-3.21 3.37-3.21zm0 4.8c.88 0 1.58-.7 1.58-1.59 0-.88-.7-1.59-1.58-1.59-.89 0-1.58.71-1.58 1.59 0 .89.69 1.59 1.58 1.59zm4.54-4.62h1.79v.76c.23-.53.83-.89 1.58-.89.83 0 1.37.34 1.65.96.4-.76 1.15-.96 2-.96 1.37 0 2.13.95 2.13 2.51v1.53c0 .45.07.64.4.64.07 0 .16-.01.18-.01v1.52c-.04.01-.3.08-.77.08-.95 0-1.6-.46-1.6-1.73v-1.8c0-.7-.3-1.14-.88-1.14-.58 0-.99.49-.99 1.2v3.4H91.8V46.4c0-.7-.31-1.14-.9-1.14-.58 0-1 .49-1 1.2v3.4h-1.8V43.8zm10.81-2.32h1.79v3.12c.17-.53.88-.9 1.8-.9 1.72 0 3.01 1.4 3.01 3.14 0 1.76-1.29 3.14-3.01 3.14-.93 0-1.64-.38-1.8-.9v.79h-1.79v-8.39zm3.27 6.87c.87 0 1.54-.66 1.54-1.52s-.67-1.52-1.54-1.52c-.88 0-1.59.66-1.59 1.52s.71 1.52 1.59 1.52zm4.5-4.55h1.79v.83c.28-.61.93-.96 1.76-.96.17 0 .37.02.47.04v1.68c-.17-.04-.37-.06-.6-.06-1.02 0-1.62.59-1.62 1.58v2.96h-1.79V43.8h-.01zm7.96-.18c1.86 0 3.37 1.42 3.37 3.21s-1.5 3.21-3.37 3.21c-1.88 0-3.37-1.42-3.37-3.21s1.49-3.21 3.37-3.21zm0 4.8c.88 0 1.58-.7 1.58-1.59 0-.88-.7-1.59-1.58-1.59-.89 0-1.58.71-1.58 1.59 0 .89.69 1.59 1.58 1.59zm4.94-.58c.32.39.95.66 1.66.66.64 0 .91-.2.91-.49 0-.41-.83-.45-1.76-.76-.84-.29-1.4-.77-1.4-1.68 0-1.3 1.13-1.95 2.36-1.95 1.08 0 1.78.37 2.24.78l-.86 1.18c-.26-.22-.72-.44-1.43-.44-.41 0-.6.18-.6.38 0 .41.49.34 1.66.74 1.1.37 1.49.95 1.49 1.72 0 1.17-.82 2.04-2.67 2.04-1.36 0-2.19-.52-2.65-1.08l1.05-1.1zm8.12-4.15c.93 0 1.64.37 1.8.9v-.79h1.79v3.93c0 .49.13.67.45.67.08 0 .22-.01.3-.02v1.49c-.18.06-.52.1-.81.1-.33 0-.69-.05-.99-.22-.19-.12-.43-.31-.54-.65-.35.52-.95.88-2.01.88-1.72 0-3.01-1.38-3.01-3.15.01-1.74 1.3-3.14 3.02-3.14zm.33 4.66c.88 0 1.59-.66 1.59-1.52s-.71-1.52-1.59-1.52c-.87 0-1.54.66-1.54 1.52s.67 1.52 1.54 1.52zm7.98-1.53c0-1.94 1.4-3.18 3.28-3.18s3.12 1.37 3.12 3.08c0 0 0 .3-.02.58h-4.58c.04.72.66 1.19 1.61 1.19.63 0 1.06-.19 1.48-.59l1.05 1c-.81.83-1.68 1.11-2.61 1.11-1.97 0-3.32-1.24-3.32-3.14v-.05h-.01zm4.6-.68c0-.55-.59-1.01-1.31-1.01-.78 0-1.42.45-1.47 1.01h2.78zm5.36-3.87c0-.58.47-1.02 1.02-1.02.57 0 1.02.45 1.02 1.02 0 .57-.46 1.01-1.02 1.01-.55 0-1.02-.44-1.02-1.01zm.14 1.53h1.79v3.94c0 .43.1.64.41.64.07 0 .19-.01.22-.02v1.53c-.06.02-.34.1-.83.1-.96 0-1.59-.46-1.59-1.71V43.8zm3.47 0h1.79v.76c.23-.53.83-.89 1.58-.89.83 0 1.37.34 1.65.96.4-.76 1.15-.96 2-.96 1.37 0 2.13.95 2.13 2.51v1.53c0 .45.07.64.4.64.07 0 .16-.01.18-.01v1.52c-.04.01-.3.08-.77.08-.95 0-1.6-.46-1.6-1.73v-1.8c0-.7-.3-1.14-.88-1.14-.58 0-.99.49-.99 1.2v3.4h-1.79V46.4c0-.7-.31-1.14-.9-1.14-.58 0-1 .49-1 1.2v3.4h-1.79V43.8h-.01zm10.8 0h1.79v.79c.17-.52.88-.9 1.8-.9 1.72 0 3.01 1.38 3.01 3.14 0 1.74-1.29 3.14-3.01 3.14-.93 0-1.64-.37-1.8-.9v3.12h-1.79V43.8zm3.28 4.55c.87 0 1.54-.66 1.54-1.52s-.67-1.52-1.54-1.52c-.88 0-1.59.66-1.59 1.52s.71 1.52 1.59 1.52zm7.24-4.66c.93 0 1.64.37 1.8.9v-.79h1.79v3.93c0 .49.13.67.45.67.08 0 .22-.01.3-.02v1.49c-.18.06-.52.1-.81.1-.33 0-.69-.05-.99-.22-.19-.12-.43-.31-.54-.65-.35.52-.95.88-2.01.88-1.72 0-3.01-1.38-3.01-3.15.01-1.74 1.3-3.14 3.02-3.14zm.32 4.66c.88 0 1.59-.66 1.59-1.52s-.71-1.52-1.59-1.52c-.87 0-1.54.66-1.54 1.52s.68 1.52 1.54 1.52zm5.05-4.55h1.79v.83c.28-.61.93-.96 1.76-.96.17 0 .37.02.47.04v1.68c-.17-.04-.37-.06-.6-.06-1.02 0-1.62.59-1.62 1.58v2.96h-1.79V43.8h-.01zm7.61-.11c.93 0 1.64.37 1.8.9v-.79h1.79v3.93c0 .49.13.67.45.67.08 0 .22-.01.3-.02v1.49c-.18.06-.52.1-.81.1-.33 0-.69-.05-.99-.22-.19-.12-.43-.31-.54-.65-.35.52-.95.88-2.01.88-1.72 0-3.01-1.38-3.01-3.15.01-1.74 1.3-3.14 3.02-3.14zm.32 4.66c.88 0 1.59-.66 1.59-1.52s-.71-1.52-1.59-1.52c-.87 0-1.54.66-1.54 1.52s.67 1.52 1.54 1.52zm5.05-6.87h1.79v3.12c.17-.53.88-.9 1.8-.9 1.72 0 3.01 1.4 3.01 3.14 0 1.76-1.29 3.14-3.01 3.14-.93 0-1.64-.38-1.8-.9v.79h-1.79v-8.39zm3.28 6.87c.87 0 1.54-.66 1.54-1.52s-.67-1.52-1.54-1.52c-.88 0-1.59.66-1.59 1.52s.71 1.52 1.59 1.52zm4.46-6.87h1.79v6.14c0 .55.21.78.7.78.13 0 .3-.01.43-.05v1.59c-.18.05-.53.09-.85.09-.85 0-2.07-.27-2.07-2.13v-6.42zm3.57 5.34c0-1.94 1.39-3.18 3.28-3.18 1.88 0 3.12 1.37 3.12 3.08 0 0 0 .3-.02.58h-4.58c.04.72.66 1.19 1.61 1.19.63 0 1.06-.19 1.48-.59l1.05 1c-.81.83-1.68 1.11-2.61 1.11-1.97 0-3.32-1.24-3.32-3.14v-.05h-.01zm4.6-.68c0-.55-.59-1.01-1.31-1.01-.78 0-1.42.45-1.47 1.01h2.78z" fill="#fff"/><path d="M22.32 4.43v13.89l7.38-7.38-6.89-6.9c-.17.13-.33.26-.49.39z" fill="#501D9A"/><path d="M4 25.7c0 1.36 1.86 4.12 4.05 6.89l6.89-6.89H4z" fill="#CB0083"/><path d="M14.94 25.7l-6.9-6.89C5.86 21.57 4 24.32 4 25.7h10.94z" fill="#8600D3"/><path d="M22.32 18.32H8.43c-.13.16-.26.32-.39.49l6.89 6.9 7.39-7.39zM29.7 0v10.94l6.86-6.86C33.78 1.88 31.02 0 29.7 0z" fill="#501D9A"/><path d="M29.7 0c-1.38 0-4.13 1.86-6.9 4.04l6.9 6.89V0z" fill="#CB0083"/><path d="M22.32 33.08l-7.38-7.38-6.89 6.89c2.86 3.62 6.29 7.26 6.84 7.83l.04.04 7.39-7.38zm7.38-14.76l7.38 7.38 7.38-7.38H29.7z" fill="#501D9A"/><path d="M29.7 10.94l3.71 3.71 7.2-7.2c-1.23-1.08-2.64-2.27-4.04-3.38l-6.87 6.87zm0 29.52H14.94l.04.04c.57.56 4.21 3.98 7.83 6.84l6.89-6.88z" fill="#8600D3"/><path d="M14.94 40.46H29.7l-7.38-7.38-7.38 7.38z" fill="#CB0083"/><path d="M37.08 25.7l-7.38-7.38v14.76l7.38-7.38z" fill="#8600D3"/><path d="M29.7 18.32l-7.38 7.38 7.38 7.38V18.32zm0 33.08c1.37 0 4.12-1.86 6.89-4.05l-6.89-6.89-6.89 6.89c2.77 2.18 5.53 4.05 6.89 4.05z" fill="#CB0083"/><path d="M29.7 40.46l6.89 6.89c3.58-2.83 7.18-6.22 7.82-6.84l.05-.05H29.7z" fill="#8600D3"/><path d="M44.46 40.46l-7.38-7.38-7.38 7.38h14.76z" fill="#CB0083"/><path d="M44.46 25.7l-7.38 7.38 7.38 7.38.05-.05c.62-.63 4.01-4.23 6.84-7.82l-6.89-6.89z" fill="#501D9A"/><path d="M55.4 25.7H44.46l6.89 6.89c2.19-2.77 4.05-5.52 4.05-6.89z" fill="#8600D3"/><path d="M44.46 25.7h-7.38l7.38-7.38h6.45c.14.17.28.35.41.52 2.2 2.78 4.08 5.54 4.08 6.86H44.46zM18.6 7.57v7.1h-7.09c-.98 1.11-2.05 2.37-3.08 3.64h13.89V4.43c-1.3 1.05-2.59 2.15-3.72 3.14z" fill="#CB0083"/><path d="M14.94 10.94c-.31.31-1.72 1.79-3.43 3.74h7.09V7.57c-1.9 1.68-3.36 3.06-3.66 3.37z" fill="#8600D3"/><path d="M29.698 44.15l-1.846 1.845 1.846 1.845 1.845-1.845-1.845-1.846z" fill="#501D9A"/></g><defs><filter id="filter0_d_1_1456" x="0" y="0" width="242.202" height="60.19" filterUnits="userSpaceOnUse" color-interpolation-filters="sRGB"><feFlood flood-opacity="0" result="BackgroundImageFix"/><feColorMatrix in="SourceAlpha" values="0 0 0 0 0 0 0 0 0 0 0 0 0 0 0 0 0 0 127 0" result="hardAlpha"/><feOffset dy="4"/><feGaussianBlur stdDeviation="2"/><feComposite in2="hardAlpha" operator="out"/><feColorMatrix values="0 0 0 0 0 0 0 0 0 0 0 0 0 0 0 0 0 0 0.25 0"/><feBlend in2="BackgroundImageFix" result="effect1_dropShadow_1_1456"/><feBlend in="SourceGraphic" in2="effect1_dropShadow_1_1456" result="shape"/></filter></defs></svg>