<svg width="80" height="64" fill="none" xmlns="http://www.w3.org/2000/svg"><g clip-path="url(#clip0_227_103)"><path d="M4.1 59.29C.67 55.86 0 33.6 0 31.7 0 29.8.67 7.54 4.1 4.1 7.54.67 28.62 0 39.62 0c11 0 32.08.67 35.52 4.1 3.43 3.43 4.1 25.86 4.1 27.59 0 1.74-.67 24.16-4.1 27.6-3.43 3.43-25.49 4.1-35.52 4.1-10.03 0-32.08-.66-35.52-4.1z" fill="#fff"/><path d="M35.68 10.61v7.42l3.94-3.94-3.68-3.68c-.08.06-.17.13-.26.2z" fill="#501D9A"/><path d="M25.9 21.97c0 .73.99 2.2 2.16 3.68l3.68-3.68H25.9z" fill="#CB0083"/><path d="M31.74 21.97l-3.68-3.68c-1.17 1.48-2.16 2.95-2.16 3.68h5.84z" fill="#8600D3"/><path d="M35.68 18.03h-7.42c-.07.09-.14.17-.21.26l3.68 3.68 3.95-3.94zm3.95-9.79v5.84l3.67-3.67c-1.49-1.16-2.97-2.17-3.67-2.17z" fill="#501D9A"/><path d="M39.63 8.24c-.73 0-2.21.99-3.68 2.16l3.68 3.68V8.24z" fill="#CB0083"/><path d="M35.68 25.91l-3.94-3.94-3.68 3.68c1.53 1.93 3.36 3.88 3.66 4.18l.02.02 3.94-3.94zm3.95-7.88l3.94 3.94 3.94-3.94h-7.88z" fill="#501D9A"/><path d="M39.63 14.09l1.98 1.98 3.84-3.84c-.66-.57-1.41-1.21-2.16-1.8l-3.66 3.66zm0 15.77h-7.88l.02.02c.3.3 2.25 2.13 4.18 3.66l3.68-3.68z" fill="#8600D3"/><path d="M31.74 29.86h7.89l-3.95-3.95-3.94 3.95z" fill="#CB0083"/><path d="M43.57 21.97l-3.94-3.94v7.88l3.94-3.94z" fill="#8600D3"/><path d="M39.63 18.03l-3.95 3.94 3.95 3.94v-7.88zm0 17.67c.73 0 2.2-.99 3.68-2.16l-3.68-3.68-3.68 3.68c1.48 1.17 2.95 2.16 3.68 2.16z" fill="#CB0083"/><path d="M39.63 29.86l3.68 3.68c1.91-1.51 3.84-3.32 4.18-3.66l.03-.03h-7.89v.01z" fill="#8600D3"/><path d="M47.51 29.86l-3.94-3.95-3.94 3.95h7.88z" fill="#CB0083"/><path d="M47.51 21.97l-3.94 3.94 3.94 3.94.03-.03c.33-.34 2.14-2.26 3.65-4.18l-3.68-3.67z" fill="#501D9A"/><path d="M53.35 21.97h-5.84l3.68 3.68c1.17-1.47 2.16-2.95 2.16-3.68z" fill="#8600D3"/><path d="M47.51 21.97h-3.94l3.94-3.94h3.45c.07.09.15.18.22.28 1.17 1.48 2.18 2.96 2.18 3.67h-5.85M33.7 12.29v3.8h-3.79c-.52.59-1.1 1.27-1.64 1.95h7.42v-7.42c-.7.55-1.39 1.14-1.99 1.67z" fill="#CB0083"/><path d="M31.74 14.09c-.16.16-.92.96-1.83 2h3.79v-3.8c-1.02.9-1.8 1.63-1.96 1.8z" fill="#8600D3"/><path d="M39.626 31.832l-.983.983.983.983.983-.983-.983-.983zM23.02 44.14c.01-1.29.26-2.73.43-2.93.14-.16.96-.37 2.36-.37 1.49 0 2.31.23 2.45.38.17.18.41 1.64.42 2.92l.03 2.61c0 .37-.01.7-.07.75-.06.05-.49.09-.92.09-.42 0-.84-.04-.9-.09-.07-.05-.09-.33-.09-.75v-.82c0-.27-.04-.52-.06-.54-.02-.02-.27-.06-.53-.06h-.59c-.26 0-.51.03-.53.06-.02.02-.06.28-.06.54v.82c0 .37-.02.7-.08.75-.07.05-.49.09-.91.09-.43 0-.84-.04-.9-.09-.07-.04-.08-.33-.07-.74l.02-2.62zm3.13-.3c.26 0 .5-.05.52-.08.02-.03.03-.17.01-.48-.03-.32-.11-.75-.22-.84-.07-.06-.22-.12-.61-.12-.38 0-.54.06-.61.12-.11.09-.19.53-.21.83-.03.34-.01.47.01.49.02.02.26.08.52.08h.59zm26.51.3c.01-1.29.26-2.73.43-2.93.14-.16.96-.37 2.36-.37 1.49 0 2.31.23 2.45.38.17.18.41 1.64.42 2.92l.03 2.61c0 .37-.01.7-.07.75-.06.05-.49.09-.92.09-.42 0-.84-.04-.9-.09-.07-.05-.09-.33-.09-.75v-.82c0-.27-.04-.52-.06-.54-.02-.02-.27-.06-.53-.06h-.58c-.26 0-.51.03-.53.06-.02.02-.06.28-.06.54v.82c0 .37-.02.7-.08.75-.07.05-.49.09-.91.09-.43 0-.84-.04-.9-.09-.07-.05-.08-.34-.07-.75l.01-2.61zm3.12-.3c.26 0 .5-.05.52-.08.02-.03.03-.17.01-.48-.03-.32-.11-.75-.22-.84-.07-.06-.22-.12-.61-.12-.38 0-.54.06-.61.12-.11.09-.19.53-.21.83-.03.34-.01.47.01.49.02.02.26.08.52.08h.59zm9.03.3c.01-1.29.26-2.73.43-2.93.14-.16.96-.37 2.36-.37 1.49 0 2.31.23 2.45.38.17.18.41 1.64.42 2.92l.03 2.61c0 .37-.01.7-.07.75-.06.05-.49.09-.92.09-.42 0-.84-.04-.9-.09-.07-.05-.09-.33-.09-.75v-.82c0-.27-.04-.52-.06-.54-.02-.02-.27-.06-.53-.06h-.59c-.26 0-.51.03-.53.06-.02.02-.06.28-.06.54v.82c0 .37-.02.7-.08.75-.07.05-.49.09-.91.09-.43 0-.84-.04-.9-.09-.07-.05-.08-.34-.07-.75l.02-2.61zm3.13-.3c.26 0 .5-.05.52-.08.02-.03.03-.17.01-.48-.03-.32-.11-.75-.22-.84-.07-.06-.22-.12-.61-.12-.38 0-.54.06-.61.12-.11.09-.19.53-.21.83-.03.34-.01.47.01.49.02.02.26.08.52.08h.59zm-8.56-2.16c0-.36.01-.69.08-.74.07-.06.53-.09.95-.09.45 0 .85.04.93.09.08.05.09.33.09.74v3.84c0 .11.02.27.06.31.04.04.21.06.32.06h1.62c.2 0 .54 0 .57.06.04.05.07.47.07.82s-.03.72-.07.78c-.03.05-.25.07-.57.07h-3.09c-.34 0-.72-.06-.81-.14-.09-.08-.14-.47-.14-.81v-4.99h-.01zm-7.75 2.61c0-1.27-.22-2.85-.39-3.05-.14-.17-.92-.38-2.42-.38-.76 0-1.28.07-1.62.15-.4-.09-1.01-.15-1.83-.15-1.48 0-2.05.26-2.17.39-.17.19-.4 1.76-.4 3.05v2.49c0 .42.01.68.08.73.07.05.39.09.85.09.46 0 .85-.04.91-.09.07-.06.08-.36.08-.73v-2.53c0-.79.03-1.53.18-1.7.07-.08.22-.15.57-.15s.54.03.6.14c.07.12.17.47.19 1.14l-.01 1.33v1.77c0 .42.01.68.08.73.07.05.39.09.85.09h.07c.45 0 .78-.03.85-.09.07-.06.08-.32.08-.73v-1.77c0-.14 0-1.26-.01-1.41.01-.63.05-.92.18-1.05.07-.08.22-.15.57-.15s.54.03.6.14c.08.14.2.92.2 1.71v2.53c0 .39.02.68.08.73.06.05.43.09.91.09.45 0 .78-.03.85-.09.07-.06.08-.32.08-.73v-2.5h-.01zm-35.6-2.61c0-.42.01-.68.08-.74.07-.06.4-.09.85-.09.49 0 .86.04.92.09.06.06.08.35.08.74v2.54c0 .8.11 1.58.2 1.72.06.11.48.14.85.14.54 0 .77-.08.83-.15.15-.17.18-.91.18-1.71v-2.54c0-.38.01-.68.08-.74.06-.05.45-.09.91-.09.47 0 .79.04.86.09.07.06.08.32.08.74v2.5c0 1.3-.23 2.88-.4 3.07-.12.13-.96.39-2.45.39-1.51 0-2.54-.22-2.68-.39-.18-.21-.4-1.8-.4-3.08v-2.49h.01zm-1.14 1.97c-.09-.11-.49-.21-.83-.21H12.8c-.29 0-.49.01-.52.06-.04.05-.07.38-.07.7 0 .34.03.65.07.7.03.04.26.05.52.05h.08c.21 0 .33.03.36.07.02.02.02.12.01.24-.04.31-.08.56-.13.63-.06.1-.64.14-1.04.14-.44 0-1.14-.04-1.2-.14-.09-.14-.2-1.12-.2-1.68 0-.55.11-1.51.21-1.65.07-.09.69-.17 1.21-.17.77 0 1.97.25 2.07.25.17 0 .27-.39.34-.73.07-.29.13-.69.09-.75-.06-.1-1.53-.33-2.63-.33-1.48 0-2.69.22-2.84.38-.17.19-.41 1.7-.41 2.98 0 1.27.23 2.85.4 3.06.14.17 1.38.39 2.8.39h.04c1.25 0 2.27-.17 2.55-.32.08-.03.12-.06.13-.08.09-.19.28-1.44.33-2.49.06-.79.02-.99-.08-1.1zm20.2-2.8c.26 0 .49.01.52.05.04.04.07.49.07.77 0 .29-.03.7-.07.75-.03.05-1.77.15-1.92.18-.15.03-.16.13-.16.33v3.84c0 .37-.01.69-.08.74-.06.05-.37.09-.92.09-.54 0-.86-.04-.92-.09-.06-.05-.08-.36-.08-.74v-3.84c0-.19-.02-.3-.16-.33-.15-.03-1.88-.13-1.92-.18-.04-.05-.07-.46-.07-.75 0-.28.03-.73.07-.77.03-.04.26-.05.52-.05h5.12zm5.31 1.61h-1.76c-.09 0-.17.04-.2.16s-.09.6-.08.74c0 .03 0 .04.02.07.02.03.07.03.11.03.59-.01 1.26-.01 1.26-.01h.57c.25 0 .44.01.47.05.04.04.08.45.08.72 0 .28-.05.65-.08.69-.03.05-.19.06-.47.06h-.06c-.59 0-1.18 0-1.77-.01-.04 0-.09.01-.11.03-.02.03-.02.05-.02.07-.01.14.06.65.09.76.03.12.1.16.2.16h2.56c.38 0 .57.02.64.07.04.03.11.33.11.74 0 .4-.09.71-.11.74-.03.03-.26.06-.64.06h-3.36c-.33 0-.88-.1-1.05-.29-.17-.19-.4-1.84-.4-3.13 0-1.31.23-2.83.41-3.05.18-.21.43-.29.77-.29h3.64c.3 0 .57.02.64.07.04.03.11.34.11.74 0 .4-.09.71-.11.74-.03.03-.26.06-.64.06h-.82v.02z" fill="#501D9A"/><path d="M15.88 49.73h.58l1.22 2.95h-.69l-.2-.5h-1.23l-.2.5h-.69l1.21-2.95zm.72 1.94l-.43-1.07-.43 1.07h.86zm1.58.3c.11.14.33.23.58.23.22 0 .32-.07.32-.17 0-.14-.29-.16-.62-.27-.3-.1-.49-.27-.49-.59 0-.46.4-.69.83-.69.38 0 .63.13.79.28l-.3.42c-.09-.08-.25-.16-.5-.16-.14 0-.21.06-.21.14 0 .14.17.12.58.26.39.13.53.33.53.61 0 .41-.29.72-.94.72-.48 0-.77-.18-.93-.38l.36-.4zm2.97-1.49c.66 0 1.19.5 1.19 1.13 0 .63-.53 1.13-1.19 1.13-.66 0-1.19-.5-1.19-1.13.01-.63.53-1.13 1.19-1.13zm0 1.69c.31 0 .55-.25.55-.56 0-.31-.25-.56-.55-.56a.55.55 0 00-.55.56c0 .32.24.56.55.56zm1.6-1.62h.63v.27c.08-.19.29-.31.55-.31.29 0 .48.12.58.34.14-.27.41-.34.7-.34.48 0 .75.33.75.89v.54c0 .16.03.22.14.22h.06v.53c-.01 0-.11.03-.27.03-.33 0-.56-.16-.56-.61v-.64c0-.25-.11-.4-.31-.4s-.35.17-.35.42v1.2h-.63v-1.22c0-.25-.11-.4-.32-.4-.2 0-.35.17-.35.42v1.2h-.63v-2.14h.01zm3.8-.82h.63v1.1c.06-.19.31-.32.64-.32.61 0 1.06.49 1.06 1.11 0 .62-.45 1.1-1.06 1.1-.33 0-.58-.14-.64-.32v.28h-.63v-2.95zm1.16 2.42a.53.53 0 100-1.06c-.31 0-.56.23-.56.53 0 .3.25.53.56.53zm1.58-1.6h.63v.29c.1-.22.33-.34.62-.34.06 0 .13.01.17.01v.59c-.06-.01-.13-.02-.21-.02-.36 0-.57.21-.57.55v1.04h-.63v-2.12h-.01zm2.8-.07c.66 0 1.19.5 1.19 1.13 0 .63-.53 1.13-1.19 1.13-.66 0-1.19-.5-1.19-1.13.01-.63.53-1.13 1.19-1.13zm0 1.69c.31 0 .55-.25.55-.56 0-.31-.25-.56-.55-.56a.55.55 0 00-.55.56c0 .32.24.56.55.56zm1.74-.2c.11.14.33.23.58.23.22 0 .32-.07.32-.17 0-.14-.29-.16-.62-.27-.3-.1-.49-.27-.49-.59 0-.46.4-.69.83-.69.38 0 .63.13.79.28l-.3.42c-.09-.08-.25-.16-.5-.16-.14 0-.21.06-.21.14 0 .14.17.12.58.26.39.13.53.33.53.61 0 .41-.29.72-.94.72-.48 0-.77-.18-.93-.38l.36-.4zm2.86-1.46c.33 0 .58.13.64.32v-.28h.63v1.38c0 .17.05.24.16.24.03 0 .08 0 .11-.01v.53c-.06.02-.18.03-.28.03-.11 0-.24-.02-.35-.08a.41.41 0 01-.19-.23c-.12.18-.33.31-.71.31-.61 0-1.06-.49-1.06-1.11-.01-.61.44-1.1 1.05-1.1zm.11 1.64c.31 0 .56-.23.56-.53 0-.3-.25-.53-.56-.53a.53.53 0 100 1.06zm2.81-.54c0-.68.49-1.12 1.16-1.12.66 0 1.1.48 1.1 1.08 0 0 0 .11-.01.2h-1.61c.01.25.23.42.57.42.22 0 .37-.07.52-.21l.37.35c-.28.29-.59.39-.92.39-.69 0-1.17-.44-1.17-1.1v-.01h-.01zm1.62-.24c0-.19-.21-.36-.46-.36-.28 0-.5.16-.52.36h.98zm1.89-1.36c0-.2.17-.36.36-.36.2 0 .36.16.36.36 0 .2-.16.36-.36.36-.2 0-.36-.16-.36-.36zm.04.54h.63v1.38c0 .15.03.22.14.22.03 0 .07 0 .08-.01v.54a.96.96 0 01-.29.03c-.34 0-.56-.16-.56-.6v-1.56zm1.23 0h.63v.27c.08-.19.29-.31.55-.31.29 0 .48.12.58.34.14-.27.41-.34.7-.34.48 0 .75.33.75.89v.54c0 .16.03.22.14.22h.06v.53c-.01 0-.11.03-.27.03-.33 0-.56-.16-.56-.61v-.64c0-.25-.11-.4-.31-.4s-.35.17-.35.42v1.2h-.63v-1.22c0-.25-.11-.4-.32-.4-.2 0-.35.17-.35.42v1.2h-.63v-2.14h.01zm3.8 0h.63v.28c.06-.18.31-.32.64-.32.61 0 1.06.49 1.06 1.11 0 .61-.45 1.1-1.06 1.1-.33 0-.58-.13-.64-.32v1.1h-.63v-2.95zm1.15 1.6a.53.53 0 100-1.06c-.31 0-.56.23-.56.53 0 .3.25.53.56.53zm2.55-1.64c.33 0 .58.13.64.32v-.28h.63v1.38c0 .17.05.24.16.24.03 0 .08 0 .11-.01v.53c-.06.02-.18.03-.28.03-.11 0-.24-.02-.35-.08a.41.41 0 01-.19-.23c-.12.18-.33.31-.71.31-.61 0-1.06-.49-1.06-1.11-.01-.61.44-1.1 1.05-1.1zm.11 1.64c.31 0 .56-.23.56-.53 0-.3-.25-.53-.56-.53a.53.53 0 100 1.06zm1.78-1.6h.63v.29c.1-.22.33-.34.62-.34.06 0 .13.01.17.01v.59c-.06-.01-.13-.02-.21-.02-.36 0-.57.21-.57.55v1.04h-.63v-2.12h-.01zm2.67-.04c.33 0 .58.13.64.32v-.28h.63v1.38c0 .17.05.24.16.24.03 0 .08 0 .11-.01v.53c-.06.02-.18.03-.28.03-.11 0-.24-.02-.35-.08a.41.41 0 01-.19-.23c-.12.18-.33.31-.71.31-.61 0-1.06-.49-1.06-1.11 0-.61.45-1.1 1.05-1.1zm.12 1.64c.31 0 .56-.23.56-.53 0-.3-.25-.53-.56-.53-.3 0-.54.23-.54.53 0 .3.23.53.54.53zm1.78-2.42h.63v1.1c.06-.19.31-.32.64-.32.61 0 1.06.49 1.06 1.11 0 .62-.45 1.1-1.06 1.1-.33 0-.58-.14-.64-.32v.28h-.63v-2.95zm1.15 2.42a.53.53 0 100-1.06c-.31 0-.56.23-.56.53 0 .3.25.53.56.53zm1.57-2.42h.63v2.16c0 .19.07.28.25.28.05 0 .11 0 .15-.02v.56c-.06.02-.19.03-.3.03-.3 0-.73-.09-.73-.75v-2.26zm1.25 1.88c0-.68.49-1.12 1.16-1.12.66 0 1.1.48 1.1 1.08 0 0 0 .11-.01.2h-1.61c.01.25.23.42.57.42.22 0 .37-.07.52-.21l.37.35c-.28.29-.59.39-.92.39-.69 0-1.17-.44-1.17-1.1v-.01h-.01zm1.62-.24c0-.19-.21-.36-.46-.36-.28 0-.5.16-.52.36h.98z" fill="#EF509C"/></g><defs><clipPath id="clip0_227_103"><path fill="#fff" d="M0 0h79.24v63.39H0z"/></clipPath></defs></svg>