<svg width="1920" height="61" fill="none" xmlns="http://www.w3.org/2000/svg"><path d="M155.882.034v30.282h30.282V.034h-30.282z" fill="#CB0083"/><path d="M155.855 15.168l15.152 15.147 15.148-15.152L171.003.016l-15.148 15.152z" fill="#501D9A"/><path d="M155.882 30.316v30.282h30.282V30.316h-30.282z" fill="#8600D3"/><path d="M171.008 30.316v30.282l-15.126-15.156 15.126-15.126z" fill="#501D9A"/><path d="M186.164 30.316v30.282l-15.156-15.156 15.156-15.126z" fill="#501D9A"/><path d="M186.164.034v30.282h30.281V.034h-30.281z" fill="#CB0083"/><path d="M186.162 15.156l15.152 15.148 15.148-15.152L201.31.004l-15.148 15.152z" fill="#501D9A"/><path d="M186.164 30.316v30.282h30.281V30.316h-30.281z" fill="#8600D3"/><path d="M201.289 30.316l.031 30.282-15.156-15.156 15.125-15.126zm15.156 0v30.282L201.32 45.442l15.125-15.126z" fill="#501D9A"/><path d="M216.476.034v30.282h30.281V.034h-30.281z" fill="#CB0083"/><path d="M216.447 15.166l15.152 15.148 15.148-15.152L231.595.014l-15.148 15.152z" fill="#501D9A"/><path d="M216.476 30.316v30.282h30.281V30.316h-30.281z" fill="#8600D3"/><path d="M231.601 30.316v30.282l-15.156-15.156 15.156-15.126zm15.156 0v30.282l-15.156-15.156 15.156-15.126z" fill="#501D9A"/><path d="M64.976.034v30.282h30.282V.034H64.976z" fill="#CB0083"/><path d="M64.98 15.166l15.152 15.148L95.28 15.162 80.128.014 64.98 15.166z" fill="#501D9A"/><path d="M64.976 30.316v30.282h30.282V30.316H64.976z" fill="#8600D3"/><path d="M80.132 30.316v30.282L65.007 45.442l15.125-15.126zm15.156 0v30.282L80.132 45.442l15.156-15.126z" fill="#501D9A"/><path d="M95.288.034v30.282h30.282V.034H95.288z" fill="#CB0083"/><path d="M95.287 15.155l15.152 15.147 15.148-15.152L110.435.002 95.287 15.154z" fill="#501D9A"/><path d="M95.288 30.316v30.282h30.282V30.316H95.288z" fill="#8600D3"/><path d="M110.414 30.316l.03 30.282-15.156-15.156 15.126-15.126zm15.156 0v30.282l-15.126-15.156 15.126-15.126z" fill="#501D9A"/><path d="M125.57.034v30.282h30.282V.034H125.57z" fill="#CB0083"/><path d="M125.572 15.165l15.152 15.148 15.148-15.152L140.72.013l-15.148 15.152z" fill="#501D9A"/><path d="M125.57 30.316v30.282h30.282V30.316H125.57z" fill="#8600D3"/><path d="M140.726 30.316v30.282L125.57 45.442l15.156-15.126zm15.126 0l.03 30.282-15.156-15.156 15.126-15.126z" fill="#501D9A"/><path d="M0 .035v30.281h4.413V.035H0z" fill="#CB0083"/><path d="M0 10.778l4.413 4.382L0 19.573v-8.795z" fill="#501D9A"/><path d="M0 30.316v30.282h4.413V30.316H0z" fill="#8600D3"/><path d="M0 34.699l4.413-4.383v30.282L0 56.185V34.699z" fill="#501D9A"/><path d="M4.413.034v30.282h30.281V.034H4.413z" fill="#CB0083"/><path d="M4.411 15.152L19.563 30.3l15.148-15.152L19.56 0 4.411 15.152z" fill="#501D9A"/><path d="M4.413 30.316v30.282h30.281V30.316H4.413z" fill="#8600D3"/><path d="M19.538 30.316v30.282L4.413 45.442l15.125-15.126zm15.156 0v30.282L19.57 45.442l15.125-15.126z" fill="#501D9A"/><path d="M34.694.034v30.282h30.282V.034H34.694z" fill="#CB0083"/><path d="M34.697 15.162L49.849 30.31l15.148-15.152L49.845.01 34.697 15.162z" fill="#501D9A"/><path d="M34.694 30.316v30.282h30.282V30.316H34.694z" fill="#8600D3"/><path d="M49.85 30.316v30.282L34.695 45.442l15.157-15.126z" fill="#501D9A"/><path d="M64.976 30.316l.03 30.282-15.155-15.156 15.125-15.126z" fill="#501D9A"/><path d="M246.757.034v30.282h30.282V.034h-30.282z" fill="#CB0083"/><path d="M246.754 15.155l15.152 15.147 15.148-15.152L261.902.002l-15.148 15.152z" fill="#501D9A"/><path d="M246.757 30.316v30.282h30.282V30.316h-30.282z" fill="#8600D3"/><path d="M261.913 30.316v30.282l-15.156-15.156 15.156-15.126z" fill="#501D9A"/><path d="M277.039 30.316v30.282l-15.156-15.156 15.156-15.126z" fill="#501D9A"/><path d="M277.039.034v30.282h30.282V.034h-30.282z" fill="#CB0083"/><path d="M277.04 15.163l15.152 15.148 15.148-15.152L292.188.011 277.04 15.163z" fill="#501D9A"/><path d="M277.039 30.316v30.282h30.282V30.316h-30.282z" fill="#8600D3"/><path d="M292.195 30.316v30.282l-15.156-15.156 15.156-15.126zm15.126 0l.03 30.282-15.156-15.156 15.126-15.126z" fill="#501D9A"/><path d="M307.351.034v30.282h30.282V.034h-30.282z" fill="#CB0083"/><path d="M307.346 15.152L322.499 30.3l15.147-15.152L322.494 0l-15.148 15.152z" fill="#501D9A"/><path d="M307.351 30.316v30.282h30.282V30.316h-30.282z" fill="#8600D3"/><path d="M322.477 30.316v30.282l-15.126-15.156 15.126-15.126zm15.156 0v30.282l-15.156-15.156 15.156-15.126z" fill="#501D9A"/><path d="M337.633.034v30.282h30.281V.034h-30.281z" fill="#CB0083"/><path d="M337.632 15.162l15.152 15.148 15.148-15.152L352.78.01l-15.148 15.152z" fill="#501D9A"/><path d="M337.633 30.316v30.282h30.281V30.316h-30.281z" fill="#8600D3"/><path d="M352.789 30.316v30.282l-15.156-15.156 15.156-15.126zm15.125 0v30.282l-15.125-15.156 15.125-15.126z" fill="#501D9A"/><path d="M367.945.034v30.282h30.281V.034h-30.281z" fill="#CB0083"/><path d="M367.917 15.17l15.152 15.148 15.148-15.152L383.065.02l-15.148 15.15z" fill="#501D9A"/><path d="M367.945 30.316v30.282h30.281V30.316h-30.281z" fill="#8600D3"/><path d="M383.07 30.316v30.282l-15.125-15.156 15.125-15.126zm15.156 0v30.282L383.07 45.442l15.156-15.126z" fill="#501D9A"/><path d="M398.226.034v30.282h30.282V.034h-30.282z" fill="#CB0083"/><path d="M398.224 15.159l15.152 15.148 15.148-15.152L413.372.007l-15.148 15.152z" fill="#501D9A"/><path d="M398.226 30.316v30.282h30.282V30.316h-30.282z" fill="#8600D3"/><path d="M413.382 30.316v30.282l-15.156-15.156 15.156-15.126zm15.126 0v30.282l-15.126-15.156 15.126-15.126z" fill="#501D9A"/><path d="M428.539.034v30.282h30.281V.034h-30.281z" fill="#CB0083"/><path d="M428.51 15.168l15.152 15.148 15.147-15.152L443.657.016 428.51 15.168z" fill="#501D9A"/><path d="M428.508 30.316v30.282h30.282V30.316h-30.282z" fill="#8600D3"/><path d="M443.664 30.316v30.282l-15.125-15.156 15.125-15.126zm15.156 0v30.282l-15.156-15.156 15.156-15.126z" fill="#501D9A"/><path d="M458.82.034v30.282h30.282V.034H458.82z" fill="#CB0083"/><path d="M458.819 15.158l15.152 15.148 15.147-15.152L473.966.006l-15.147 15.152z" fill="#501D9A"/><path d="M458.82 30.316v30.282h30.282V30.316H458.82z" fill="#8600D3"/><path d="M473.946 30.316l.03 30.282-15.156-15.156 15.126-15.126z" fill="#501D9A"/><path d="M640.882.034v30.282h30.282V.034h-30.282z" fill="#CB0083"/><path d="M640.855 15.168l15.152 15.147 15.148-15.152L656.003.016l-15.148 15.152z" fill="#501D9A"/><path d="M640.882 30.316v30.282h30.282V30.316h-30.282z" fill="#8600D3"/><path d="M656.008 30.316v30.282l-15.126-15.156 15.126-15.126zm15.156 0v30.282l-15.156-15.156 15.156-15.126z" fill="#501D9A"/><path d="M671.164.034v30.282h30.281V.034h-30.281z" fill="#CB0083"/><path d="M671.162 15.156l15.152 15.148 15.148-15.152L686.31.004l-15.148 15.152z" fill="#501D9A"/><path d="M671.164 30.316v30.282h30.281V30.316h-30.281z" fill="#8600D3"/><path d="M686.289 30.316l.031 30.282-15.156-15.156 15.125-15.126zm15.156 0v30.282L686.32 45.442l15.125-15.126z" fill="#501D9A"/><path d="M701.476.034v30.282h30.281V.034h-30.281z" fill="#CB0083"/><path d="M701.447 15.166L716.6 30.314l15.147-15.152L716.595.014l-15.148 15.152z" fill="#501D9A"/><path d="M701.476 30.316v30.282h30.281V30.316h-30.281z" fill="#8600D3"/><path d="M716.601 30.316v30.282l-15.156-15.156 15.156-15.126zm15.156 0v30.282l-15.156-15.156 15.156-15.126z" fill="#501D9A"/><path d="M549.976.034v30.282h30.282V.034h-30.282z" fill="#CB0083"/><path d="M549.98 15.166l15.152 15.148 15.148-15.152L565.128.014 549.98 15.166z" fill="#501D9A"/><path d="M549.976 30.316v30.282h30.282V30.316h-30.282z" fill="#8600D3"/><path d="M565.132 30.316v30.282l-15.125-15.156 15.125-15.126zm15.156 0v30.282l-15.156-15.156 15.156-15.126z" fill="#501D9A"/><path d="M580.288.034v30.282h30.282V.034h-30.282z" fill="#CB0083"/><path d="M580.287 15.155l15.152 15.147 15.148-15.152L595.435.002l-15.148 15.152z" fill="#501D9A"/><path d="M580.288 30.316v30.282h30.282V30.316h-30.282z" fill="#8600D3"/><path d="M595.414 30.316l.03 30.282-15.156-15.156 15.126-15.126zm15.156 0v30.282l-15.126-15.156 15.126-15.126z" fill="#501D9A"/><path d="M610.57.034v30.282h30.282V.034H610.57z" fill="#CB0083"/><path d="M610.572 15.165l15.152 15.148 15.148-15.152L625.72.013l-15.148 15.152z" fill="#501D9A"/><path d="M610.57 30.316v30.282h30.282V30.316H610.57z" fill="#8600D3"/><path d="M625.726 30.316v30.282L610.57 45.442l15.156-15.126zm15.126 0l.03 30.282-15.156-15.156 15.126-15.126z" fill="#501D9A"/><path d="M485 .035v30.281h4.413V.035H485z" fill="#CB0083"/><path d="M485 10.778l4.413 4.382L485 19.573v-8.795z" fill="#501D9A"/><path d="M485 30.316v30.282h4.413V30.316H485z" fill="#8600D3"/><path d="M485 34.699l4.413-4.383v30.282L485 56.185V34.699z" fill="#501D9A"/><path d="M489.413.034v30.282h30.282V.034h-30.282z" fill="#CB0083"/><path d="M489.411 15.152L504.564 30.3l15.147-15.152L504.559 0l-15.148 15.152z" fill="#501D9A"/><path d="M489.413 30.316v30.282h30.282V30.316h-30.282z" fill="#8600D3"/><path d="M504.539 30.316v30.282l-15.126-15.156 15.126-15.126zm15.155 0v30.282l-15.125-15.156 15.125-15.126z" fill="#501D9A"/><path d="M519.694.034v30.282h30.282V.034h-30.282z" fill="#CB0083"/><path d="M519.697 15.162l15.152 15.148 15.148-15.152L534.845.01l-15.148 15.152z" fill="#501D9A"/><path d="M519.694 30.316v30.282h30.282V30.316h-30.282z" fill="#8600D3"/><path d="M534.851 30.316v30.282l-15.157-15.156 15.157-15.126zm15.125 0l.031 30.282-15.156-15.156 15.125-15.126z" fill="#501D9A"/><path d="M731.757.034v30.282h30.282V.034h-30.282z" fill="#CB0083"/><path d="M731.754 15.155l15.152 15.147 15.148-15.152L746.902.002l-15.148 15.152z" fill="#501D9A"/><path d="M731.757 30.316v30.282h30.282V30.316h-30.282z" fill="#8600D3"/><path d="M746.913 30.316v30.282l-15.156-15.156 15.156-15.126z" fill="#501D9A"/><path d="M762.039 30.316v30.282l-15.156-15.156 15.156-15.126z" fill="#501D9A"/><path d="M762.039.034v30.282h30.282V.034h-30.282z" fill="#CB0083"/><path d="M762.04 15.163l15.152 15.148 15.148-15.152L777.188.011 762.04 15.163z" fill="#501D9A"/><path d="M762.039 30.316v30.282h30.282V30.316h-30.282z" fill="#8600D3"/><path d="M777.195 30.316v30.282l-15.156-15.156 15.156-15.126zm15.126 0l.03 30.282-15.156-15.156 15.126-15.126z" fill="#501D9A"/><path d="M792.351.034v30.282h30.282V.034h-30.282z" fill="#CB0083"/><path d="M792.347 15.152L807.499 30.3l15.147-15.152L807.494 0l-15.147 15.152z" fill="#501D9A"/><path d="M792.351 30.316v30.282h30.282V30.316h-30.282z" fill="#8600D3"/><path d="M807.477 30.316v30.282l-15.126-15.156 15.126-15.126zm15.156 0v30.282l-15.156-15.156 15.156-15.126z" fill="#501D9A"/><path d="M822.633.034v30.282h30.281V.034h-30.281z" fill="#CB0083"/><path d="M822.632 15.162l15.152 15.148 15.148-15.152L837.78.01l-15.148 15.152z" fill="#501D9A"/><path d="M822.633 30.316v30.282h30.281V30.316h-30.281z" fill="#8600D3"/><path d="M837.789 30.316v30.282l-15.156-15.156 15.156-15.126zm15.125 0v30.282l-15.125-15.156 15.125-15.126z" fill="#501D9A"/><path d="M852.945.034v30.282h30.281V.034h-30.281z" fill="#CB0083"/><path d="M852.917 15.17l15.152 15.148 15.148-15.152L868.065.02l-15.148 15.15z" fill="#501D9A"/><path d="M852.945 30.316v30.282h30.281V30.316h-30.281z" fill="#8600D3"/><path d="M868.07 30.316v30.282l-15.125-15.156 15.125-15.126zm15.156 0v30.282L868.07 45.442l15.156-15.126z" fill="#501D9A"/><path d="M883.226.034v30.282h30.282V.034h-30.282z" fill="#CB0083"/><path d="M883.224 15.159l15.152 15.148 15.148-15.152L898.372.007l-15.148 15.152z" fill="#501D9A"/><path d="M883.226 30.316v30.282h30.282V30.316h-30.282z" fill="#8600D3"/><path d="M898.382 30.316v30.282l-15.156-15.156 15.156-15.126zm15.126 0v30.282l-15.126-15.156 15.126-15.126z" fill="#501D9A"/><path d="M913.539.034v30.282h30.281V.034h-30.281z" fill="#CB0083"/><path d="M913.51 15.168l15.152 15.148 15.147-15.152L928.657.016 913.51 15.168z" fill="#501D9A"/><path d="M913.508 30.316v30.282h30.282V30.316h-30.282z" fill="#8600D3"/><path d="M928.664 30.316v30.282l-15.125-15.156 15.125-15.126zm15.156 0v30.282l-15.156-15.156 15.156-15.126z" fill="#501D9A"/><path d="M943.82.034v30.282h30.282V.034H943.82z" fill="#CB0083"/><path d="M943.819 15.158l15.152 15.148 15.147-15.152L958.966.006l-15.147 15.152z" fill="#501D9A"/><path d="M943.82 30.316v30.282h30.282V30.316H943.82z" fill="#8600D3"/><path d="M958.946 30.316l.03 30.282-15.156-15.156 15.126-15.126z" fill="#501D9A"/><path d="M1125.88.034v30.282h30.28V.034h-30.28z" fill="#CB0083"/><path d="M1125.86 15.168l15.15 15.147 15.15-15.152L1141 .016l-15.14 15.152z" fill="#501D9A"/><path d="M1125.88 30.316v30.282h30.28V30.316h-30.28z" fill="#8600D3"/><path d="M1141.01 30.316v30.282l-15.13-15.156 15.13-15.126zm15.15 0v30.282l-15.15-15.156 15.15-15.126z" fill="#501D9A"/><path d="M1156.16.034v30.282h30.29V.034h-30.29z" fill="#CB0083"/><path d="M1156.16 15.156l15.15 15.148 15.15-15.152L1171.31.004l-15.15 15.152z" fill="#501D9A"/><path d="M1156.16 30.316v30.282h30.29V30.316h-30.29z" fill="#8600D3"/><path d="M1171.29 30.316l.03 30.282-15.16-15.156 15.13-15.126zm15.16 0v30.282l-15.13-15.156 15.13-15.126z" fill="#501D9A"/><path d="M1186.48.034v30.282h30.28V.034h-30.28z" fill="#CB0083"/><path d="M1186.45 15.166l15.15 15.148 15.15-15.152L1201.6.014l-15.15 15.152z" fill="#501D9A"/><path d="M1186.48 30.316v30.282h30.28V30.316h-30.28z" fill="#8600D3"/><path d="M1201.6 30.316v30.282l-15.15-15.156 15.15-15.126zm15.16 0v30.282l-15.16-15.156 15.16-15.126z" fill="#501D9A"/><path d="M1034.98.034v30.282h30.28V.034h-30.28z" fill="#CB0083"/><path d="M1034.98 15.166l15.15 15.148 15.15-15.152L1050.13.014l-15.15 15.152z" fill="#501D9A"/><path d="M1034.98 30.316v30.282h30.28V30.316h-30.28z" fill="#8600D3"/><path d="M1050.13 30.316v30.282l-15.12-15.156 15.12-15.126z" fill="#501D9A"/><path d="M1065.29 30.316v30.282l-15.16-15.156 15.16-15.126z" fill="#501D9A"/><path d="M1065.29.034v30.282h30.28V.034h-30.28z" fill="#CB0083"/><path d="M1065.29 15.155l15.15 15.147 15.15-15.152L1080.43.002l-15.14 15.152z" fill="#501D9A"/><path d="M1065.29 30.316v30.282h30.28V30.316h-30.28z" fill="#8600D3"/><path d="M1080.41 30.316l.03 30.282-15.15-15.156 15.12-15.126zm15.16 0v30.282l-15.13-15.156 15.13-15.126z" fill="#501D9A"/><path d="M1095.57.034v30.282h30.28V.034h-30.28z" fill="#CB0083"/><path d="M1095.57 15.165l15.15 15.148 15.15-15.152L1110.72.013l-15.15 15.152z" fill="#501D9A"/><path d="M1095.57 30.316v30.282h30.28V30.316h-30.28z" fill="#8600D3"/><path d="M1110.73 30.316v30.282l-15.16-15.156 15.16-15.126z" fill="#501D9A"/><path d="M1125.85 30.316l.03 30.282-15.15-15.156 15.12-15.126z" fill="#501D9A"/><path d="M970 .035v30.281h4.413V.035H970z" fill="#CB0083"/><path d="M970 10.778l4.413 4.382L970 19.573v-8.795z" fill="#501D9A"/><path d="M970 30.316v30.282h4.413V30.316H970z" fill="#8600D3"/><path d="M970 34.699l4.413-4.383v30.282L970 56.185V34.699z" fill="#501D9A"/><path d="M974.413.034v30.282h30.277V.034h-30.277z" fill="#CB0083"/><path d="M974.411 15.152L989.564 30.3l15.146-15.152L989.559 0l-15.148 15.152z" fill="#501D9A"/><path d="M974.413 30.316v30.282h30.277V30.316h-30.277z" fill="#8600D3"/><path d="M989.539 30.316v30.282l-15.126-15.156 15.126-15.126zm15.151 0v30.282l-15.121-15.156 15.121-15.126z" fill="#501D9A"/><path d="M1004.69.034v30.282h30.29V.034h-30.29z" fill="#CB0083"/><path d="M1004.7 15.162l15.15 15.148L1035 15.158 1019.84.01l-15.14 15.152z" fill="#501D9A"/><path d="M1004.69 30.316v30.282h30.29V30.316h-30.29z" fill="#8600D3"/><path d="M1019.85 30.316v30.282l-15.16-15.156 15.16-15.126zm15.13 0l.03 30.282-15.16-15.156 15.13-15.126z" fill="#501D9A"/><path d="M1216.76.034v30.282h30.28V.034h-30.28z" fill="#CB0083"/><path d="M1216.75 15.155l15.16 15.147 15.14-15.152L1231.9.002l-15.15 15.152z" fill="#501D9A"/><path d="M1216.76 30.316v30.282h30.28V30.316h-30.28z" fill="#8600D3"/><path d="M1231.91 30.316v30.282l-15.15-15.156 15.15-15.126z" fill="#501D9A"/><path d="M1247.04 30.316v30.282l-15.16-15.156 15.16-15.126z" fill="#501D9A"/><path d="M1247.04.034v30.282h30.28V.034h-30.28z" fill="#CB0083"/><path d="M1247.04 15.163l15.15 15.148 15.15-15.152L1262.19.011l-15.15 15.152z" fill="#501D9A"/><path d="M1247.04 30.316v30.282h30.28V30.316h-30.28z" fill="#8600D3"/><path d="M1262.2 30.316v30.282l-15.16-15.156 15.16-15.126z" fill="#501D9A"/><path d="M1277.32 30.316l.03 30.282-15.15-15.156 15.12-15.126z" fill="#501D9A"/><path d="M1277.35.034v30.282h30.28V.034h-30.28z" fill="#CB0083"/><path d="M1277.35 15.152L1292.5 30.3l15.15-15.152L1292.49 0l-15.14 15.152z" fill="#501D9A"/><path d="M1277.35 30.316v30.282h30.28V30.316h-30.28z" fill="#8600D3"/><path d="M1292.48 30.316v30.282l-15.13-15.156 15.13-15.126zm15.15 0v30.282l-15.15-15.156 15.15-15.126z" fill="#501D9A"/><path d="M1307.63.034v30.282h30.28V.034h-30.28z" fill="#CB0083"/><path d="M1307.63 15.162l15.15 15.148 15.15-15.152L1322.78.01l-15.15 15.152z" fill="#501D9A"/><path d="M1307.63 30.316v30.282h30.28V30.316h-30.28z" fill="#8600D3"/><path d="M1322.79 30.316v30.282l-15.16-15.156 15.16-15.126zm15.12 0v30.282l-15.12-15.156 15.12-15.126z" fill="#501D9A"/><path d="M1337.94.034v30.282h30.29V.034h-30.29z" fill="#CB0083"/><path d="M1337.92 15.17l15.15 15.148 15.15-15.152L1353.07.02l-15.15 15.152z" fill="#501D9A"/><path d="M1337.94 30.316v30.282h30.29V30.316h-30.29z" fill="#8600D3"/><path d="M1353.07 30.316v30.282l-15.13-15.156 15.13-15.126zm15.16 0v30.282l-15.16-15.156 15.16-15.126z" fill="#501D9A"/><path d="M1368.23.034v30.282h30.28V.034h-30.28z" fill="#CB0083"/><path d="M1368.22 15.159l15.16 15.148 15.14-15.152L1383.37.007l-15.15 15.152z" fill="#501D9A"/><path d="M1368.23 30.316v30.282h30.28V30.316h-30.28z" fill="#8600D3"/><path d="M1383.38 30.316v30.282l-15.15-15.156 15.15-15.126z" fill="#501D9A"/><path d="M1398.51 30.316v30.282l-15.13-15.156 15.13-15.126z" fill="#501D9A"/><path d="M1398.54.034v30.282h30.28V.034h-30.28z" fill="#CB0083"/><path d="M1398.51 15.168l15.15 15.148 15.15-15.152L1413.66.016l-15.15 15.152z" fill="#501D9A"/><path d="M1398.51 30.316v30.282h30.28V30.316h-30.28z" fill="#8600D3"/><path d="M1413.66 30.316v30.282l-15.12-15.156 15.12-15.126z" fill="#501D9A"/><path d="M1428.82 30.316v30.282l-15.16-15.156 15.16-15.126z" fill="#501D9A"/><path d="M1428.82.034v30.282h30.28V.034h-30.28z" fill="#CB0083"/><path d="M1428.82 15.158l15.15 15.148 15.15-15.152L1443.97.006l-15.15 15.152z" fill="#501D9A"/><path d="M1428.82 30.316v30.282h30.28V30.316h-30.28z" fill="#8600D3"/><path d="M1443.95 30.316l.03 30.282-15.16-15.156 15.13-15.126z" fill="#501D9A"/><path d="M1610.88.034v30.282h30.28V.034h-30.28z" fill="#CB0083"/><path d="M1610.86 15.168l15.15 15.147 15.15-15.152L1626 .016l-15.14 15.152z" fill="#501D9A"/><path d="M1610.88 30.316v30.282h30.28V30.316h-30.28z" fill="#8600D3"/><path d="M1626.01 30.316v30.282l-15.13-15.156 15.13-15.126zm15.15 0v30.282l-15.15-15.156 15.15-15.126z" fill="#501D9A"/><path d="M1641.16.034v30.282h30.29V.034h-30.29z" fill="#CB0083"/><path d="M1641.16 15.156l15.15 15.148 15.15-15.152L1656.31.004l-15.15 15.152z" fill="#501D9A"/><path d="M1641.16 30.316v30.282h30.29V30.316h-30.29z" fill="#8600D3"/><path d="M1656.29 30.316l.03 30.282-15.16-15.156 15.13-15.126zm15.16 0v30.282l-15.13-15.156 15.13-15.126z" fill="#501D9A"/><path d="M1671.48.034v30.282h30.28V.034h-30.28z" fill="#CB0083"/><path d="M1671.45 15.166l15.15 15.148 15.15-15.152L1686.6.014l-15.15 15.152z" fill="#501D9A"/><path d="M1671.48 30.316v30.282h30.28V30.316h-30.28z" fill="#8600D3"/><path d="M1686.6 30.316v30.282l-15.15-15.156 15.15-15.126zm15.16 0v30.282l-15.16-15.156 15.16-15.126z" fill="#501D9A"/><path d="M1519.98.034v30.282h30.28V.034h-30.28z" fill="#CB0083"/><path d="M1519.98 15.166l15.15 15.148 15.15-15.152L1535.13.014l-15.15 15.152z" fill="#501D9A"/><path d="M1519.98 30.316v30.282h30.28V30.316h-30.28z" fill="#8600D3"/><path d="M1535.13 30.316v30.282l-15.12-15.156 15.12-15.126z" fill="#501D9A"/><path d="M1550.29 30.316v30.282l-15.16-15.156 15.16-15.126z" fill="#501D9A"/><path d="M1550.29.034v30.282h30.28V.034h-30.28z" fill="#CB0083"/><path d="M1550.29 15.155l15.15 15.147 15.15-15.152L1565.43.002l-15.14 15.152z" fill="#501D9A"/><path d="M1550.29 30.316v30.282h30.28V30.316h-30.28z" fill="#8600D3"/><path d="M1565.41 30.316l.03 30.282-15.15-15.156 15.12-15.126zm15.16 0v30.282l-15.13-15.156 15.13-15.126z" fill="#501D9A"/><path d="M1580.57.034v30.282h30.28V.034h-30.28z" fill="#CB0083"/><path d="M1580.57 15.165l15.15 15.148 15.15-15.152L1595.72.013l-15.15 15.152z" fill="#501D9A"/><path d="M1580.57 30.316v30.282h30.28V30.316h-30.28z" fill="#8600D3"/><path d="M1595.73 30.316v30.282l-15.16-15.156 15.16-15.126z" fill="#501D9A"/><path d="M1610.85 30.316l.03 30.282-15.15-15.156 15.12-15.126z" fill="#501D9A"/><path d="M1455 .035v30.281h4.41V.035H1455z" fill="#CB0083"/><path d="M1455 10.778l4.41 4.382-4.41 4.413v-8.795z" fill="#501D9A"/><path d="M1455 30.316v30.282h4.41V30.316H1455z" fill="#8600D3"/><path d="M1455 34.699l4.41-4.383v30.282l-4.41-4.413V34.699z" fill="#501D9A"/><path d="M1459.41.034v30.282h30.28V.034h-30.28z" fill="#CB0083"/><path d="M1459.41 15.152l15.15 15.148 15.15-15.152L1474.56 0l-15.15 15.152z" fill="#501D9A"/><path d="M1459.41 30.316v30.282h30.28V30.316h-30.28z" fill="#8600D3"/><path d="M1474.54 30.316v30.282l-15.13-15.156 15.13-15.126zm15.15 0v30.282l-15.12-15.156 15.12-15.126z" fill="#501D9A"/><path d="M1489.69.034v30.282h30.29V.034h-30.29z" fill="#CB0083"/><path d="M1489.7 15.162l15.15 15.148L1520 15.158 1504.84.01l-15.14 15.152z" fill="#501D9A"/><path d="M1489.69 30.316v30.282h30.29V30.316h-30.29z" fill="#8600D3"/><path d="M1504.85 30.316v30.282l-15.16-15.156 15.16-15.126zm15.13 0l.03 30.282-15.16-15.156 15.13-15.126z" fill="#501D9A"/><path d="M1701.76.034v30.282h30.28V.034h-30.28z" fill="#CB0083"/><path d="M1701.75 15.155l15.16 15.147 15.14-15.152L1716.9.002l-15.15 15.152z" fill="#501D9A"/><path d="M1701.76 30.316v30.282h30.28V30.316h-30.28z" fill="#8600D3"/><path d="M1716.91 30.316v30.282l-15.15-15.156 15.15-15.126z" fill="#501D9A"/><path d="M1732.04 30.316v30.282l-15.16-15.156 15.16-15.126z" fill="#501D9A"/><path d="M1732.04.034v30.282h30.28V.034h-30.28z" fill="#CB0083"/><path d="M1732.04 15.163l15.15 15.148 15.15-15.152L1747.19.011l-15.15 15.152z" fill="#501D9A"/><path d="M1732.04 30.316v30.282h30.28V30.316h-30.28z" fill="#8600D3"/><path d="M1747.2 30.316v30.282l-15.16-15.156 15.16-15.126z" fill="#501D9A"/><path d="M1762.32 30.316l.03 30.282-15.15-15.156 15.12-15.126z" fill="#501D9A"/><path d="M1762.35.034v30.282h30.28V.034h-30.28z" fill="#CB0083"/><path d="M1762.35 15.152L1777.5 30.3l15.15-15.152L1777.49 0l-15.14 15.152z" fill="#501D9A"/><path d="M1762.35 30.316v30.282h30.28V30.316h-30.28z" fill="#8600D3"/><path d="M1777.48 30.316v30.282l-15.13-15.156 15.13-15.126zm15.15 0v30.282l-15.15-15.156 15.15-15.126z" fill="#501D9A"/><path d="M1792.63.034v30.282h30.28V.034h-30.28z" fill="#CB0083"/><path d="M1792.63 15.162l15.15 15.148 15.15-15.152L1807.78.01l-15.15 15.152z" fill="#501D9A"/><path d="M1792.63 30.316v30.282h30.28V30.316h-30.28z" fill="#8600D3"/><path d="M1807.79 30.316v30.282l-15.16-15.156 15.16-15.126zm15.12 0v30.282l-15.12-15.156 15.12-15.126z" fill="#501D9A"/><path d="M1822.94.034v30.282h30.29V.034h-30.29z" fill="#CB0083"/><path d="M1822.92 15.17l15.15 15.148 15.15-15.152L1838.07.02l-15.15 15.152z" fill="#501D9A"/><path d="M1822.94 30.316v30.282h30.29V30.316h-30.29z" fill="#8600D3"/><path d="M1838.07 30.316v30.282l-15.13-15.156 15.13-15.126zm15.16 0v30.282l-15.16-15.156 15.16-15.126z" fill="#501D9A"/><path d="M1853.23.034v30.282h30.28V.034h-30.28z" fill="#CB0083"/><path d="M1853.22 15.159l15.16 15.148 15.14-15.152L1868.37.007l-15.15 15.152z" fill="#501D9A"/><path d="M1853.23 30.316v30.282h30.28V30.316h-30.28z" fill="#8600D3"/><path d="M1868.38 30.316v30.282l-15.15-15.156 15.15-15.126z" fill="#501D9A"/><path d="M1883.51 30.316v30.282l-15.13-15.156 15.13-15.126z" fill="#501D9A"/><path d="M1883.54.034v30.282h30.28V.034h-30.28z" fill="#CB0083"/><path d="M1883.51 15.168l15.15 15.148 15.15-15.152L1898.66.016l-15.15 15.152z" fill="#501D9A"/><path d="M1883.51 30.316v30.282h30.28V30.316h-30.28z" fill="#8600D3"/><path d="M1898.66 30.316v30.282l-15.12-15.156 15.12-15.126z" fill="#501D9A"/><path d="M1913.82 30.316v30.282l-15.16-15.156 15.16-15.126z" fill="#501D9A"/><path d="M1913.82.034v30.282h30.28V.034h-30.28z" fill="#CB0083"/><path d="M1913.82 15.158l15.15 15.148 15.15-15.152L1928.97.006l-15.15 15.152z" fill="#501D9A"/><path d="M1913.82 30.316v30.282h30.28V30.316h-30.28z" fill="#8600D3"/><path d="M1928.95 30.316l.03 30.282-15.16-15.156 15.13-15.126z" fill="#501D9A"/></svg>