<svg width="1920" height="145" fill="none" xmlns="http://www.w3.org/2000/svg"><g clip-path="url(#clip0_17_2891)"><path d="M-4 0v144.21h595.28V0H-4z" fill="#CC0082"/><path d="M567.64 0v99.84h23.63V0h-23.63z" fill="#4F1C99"/><path d="M567.64 49.89v49.95h23.63V49.89h-23.63zm0 0l23.64-23.64V0h-23.64v49.89z" fill="#CC0082"/><path d="M591.28 73.51V26.26l-23.63 23.63 23.63 23.62z" fill="#4F1C99"/><path d="M582.28 49.89h-.01.01l9 9v-18l-9 9h-.01.01z" fill="#CC0082"/><path d="M467.62 0v99.84h99.9V0h-99.9z" fill="#4F1C99"/><path d="M467.62 49.89v49.95h49.95V49.89h-49.95zM517.58 0v49.89h49.95V0h-49.95zm49.95 49.89v49.95h-49.95l49.95-49.95zm-99.91 0L517.51 0h-49.89v49.89z" fill="#4F1C99"/><path d="M517.58 99.84l49.95-49.95L517.64 0h-.12l-49.89 49.89 49.95 49.95z" fill="#8700D4"/><path d="M482.26 49.89l35.32 35.32 35.32-35.32-35.32-35.32-35.32 35.32z" fill="#CC0082"/><path d="M367.61 0v99.84h99.9V0h-99.9z" fill="#4F1C99"/><path d="M367.61 49.89v49.95h49.95V49.89h-49.95zM417.56 0v49.89h49.95V0h-49.95zm49.95 49.89v49.95h-49.95l49.95-49.95zm-99.9 0L417.5 0h-49.89v49.89z" fill="#8700D4"/><path d="M417.56 99.84l49.95-49.95L417.62 0h-.12l-49.89 49.89 49.95 49.95z" fill="#CC0082"/><path d="M382.24 49.89l35.32 35.32 35.32-35.32-35.32-35.32-35.32 35.32zM267.66 0v99.84h99.9V0h-99.9z" fill="#4F1C99"/><path d="M317.61 99.84l49.95-49.95L317.67 0h-.12l-49.88 49.89 49.94 49.95z" fill="#CC0082"/><path d="M282.29 49.89h.01l35.31 35.32 35.33-35.32-35.33-35.32-35.31 35.32h-.01z" fill="#8700D4"/><path d="M-4 0v99.84h71.56V0H-4z" fill="#4F1C99"/><path d="M17.61 49.89v49.95h49.95V49.89H17.61zM-4 0v49.89h21.61V0H-4zm0 99.84h21.61L-4 78.23v21.61zm71.56-49.95V0H17.67l49.89 49.89z" fill="#4F1C99"/><path d="M-4 78.23l21.61 21.61 49.94-49.95L17.67 0h-.13L-4 21.54v56.69z" fill="#8700D4"/><path d="M-4 63.6l21.61 21.61 35.31-35.32h.01-.01.01-.01L17.61 14.57-4 36.17V63.6z" fill="#CC0082"/><path d="M67.67 0v99.84h99.9V0h-99.9z" fill="#4F1C99"/><path d="M117.62 49.89v49.95h49.95V49.89h-49.95zM67.67 0v49.89h49.95V0H67.67zm0 49.89v49.95h49.95L67.67 49.89zm99.9 0L167.58 0h-49.89l49.88 49.89z" fill="#8700D4"/><path d="M117.62 99.84l49.95-49.95L117.68 0h-.12L67.67 49.89l49.95 49.95z" fill="#CC0082"/><path d="M152.94 49.89l-35.32 35.32L82.3 49.89l35.32-35.32 35.32 35.32zM167.64 0v99.84h99.9V0h-99.9z" fill="#4F1C99"/><path d="M217.59 49.89v49.95h49.95V49.89h-49.95zM167.64 0v49.89h49.95V0h-49.95zm0 49.89v49.95h49.95l-49.95-49.95zm99.91 0V0h-49.89l49.89 49.89z" fill="#CC0082"/><path d="M217.59 99.84l49.95-49.95L217.65 0h-.12l-49.89 49.89 49.95 49.95z" fill="#4F1C99"/><path d="M252.91 49.89l-35.32 35.32-35.32-35.32 35.32-35.32 35.32 35.32z" fill="#CC0082"/></g><path d="M968 0v99.84h23.63V0H968z" fill="#4F1C99"/><path d="M968 49.89v49.95h23.63V49.89H968zm0 0l23.64-23.64V0H968v49.89z" fill="#CC0082"/><path d="M991.64 73.51V26.26l-23.63 23.63 23.63 23.62z" fill="#4F1C99"/><path d="M982.64 49.89h-.01.01l9 9v-18l-9 9h-.01.01z" fill="#CC0082"/><path d="M867.98 0v99.84h99.9V0h-99.9z" fill="#4F1C99"/><path d="M867.98 49.89v49.95h49.95V49.89h-49.95zM917.94 0v49.89h49.95V0h-49.95zm49.95 49.89v49.95h-49.95l49.95-49.95zm-99.91 0L917.87 0h-49.89v49.89z" fill="#4F1C99"/><path d="M917.94 99.84l49.95-49.95L918 0h-.12l-49.89 49.89 49.95 49.95z" fill="#8700D4"/><path d="M882.62 49.89l35.32 35.32 35.32-35.32-35.32-35.32-35.32 35.32z" fill="#CC0082"/><path d="M767.97 0v99.84h99.9V0h-99.9z" fill="#4F1C99"/><path d="M767.97 49.89v49.95h49.95V49.89h-49.95zM817.92 0v49.89h49.95V0h-49.95z" fill="#8700D4"/><path d="M867.87 49.89v49.95h-49.95l49.95-49.95zm-99.9 0L817.86 0h-49.89v49.89z" fill="#8700D4"/><path d="M817.92 99.84l49.95-49.95L817.98 0h-.12l-49.89 49.89 49.95 49.95z" fill="#CC0082"/><path d="M782.6 49.89l35.32 35.32 35.32-35.32-35.32-35.32-35.32 35.32zM668.02 0v99.84h99.9V0h-99.9z" fill="#4F1C99"/><path d="M717.97 99.84l49.95-49.95L718.03 0h-.12l-49.88 49.89 49.94 49.95z" fill="#CC0082"/><path d="M682.65 49.89h.01l35.31 35.32 35.33-35.32-35.33-35.32-35.31 35.32h-.01z" fill="#8700D4"/><path d="M568 0v99.84h99.9V0H568z" fill="#4F1C99"/><path d="M617.95 49.89v49.95h49.95V49.89h-49.95zM568 0v49.89h49.95V0H568zm0 49.89v49.95h49.95L568 49.89zm99.91 0V0h-49.89l49.89 49.89z" fill="#CC0082"/><path d="M617.95 99.84l49.95-49.95L618.01 0h-.12L568 49.89l49.95 49.95z" fill="#4F1C99"/><path d="M653.27 49.89l-35.32 35.32-35.32-35.32 35.32-35.32 35.32 35.32z" fill="#CC0082"/><path d="M1370 0v99.84h23.63V0H1370z" fill="#4F1C99"/><path d="M1370 49.89v49.95h23.63V49.89H1370zm0 0l23.64-23.64V0H1370v49.89z" fill="#CC0082"/><path d="M1393.64 73.51V26.26l-23.63 23.63 23.63 23.62z" fill="#4F1C99"/><path d="M1384.64 49.89h-.01.01l9 9v-18l-9 9h-.01.01z" fill="#CC0082"/><path d="M1269.98 0v99.84h99.9V0h-99.9z" fill="#4F1C99"/><path d="M1269.98 49.89v49.95h49.95V49.89h-49.95zM1319.94 0v49.89h49.95V0h-49.95zm49.95 49.89v49.95h-49.95l49.95-49.95zm-99.91 0L1319.87 0h-49.89v49.89z" fill="#4F1C99"/><path d="M1319.94 99.84l49.95-49.95L1320 0h-.12l-49.89 49.89 49.95 49.95z" fill="#8700D4"/><path d="M1284.62 49.89l35.32 35.32 35.32-35.32-35.32-35.32-35.32 35.32z" fill="#CC0082"/><path d="M1169.97 0v99.84h99.9V0h-99.9z" fill="#4F1C99"/><path d="M1169.97 49.89v49.95h49.95V49.89h-49.95zM1219.92 0v49.89h49.95V0h-49.95z" fill="#8700D4"/><path d="M1269.87 49.89v49.95h-49.95l49.95-49.95zm-99.9 0L1219.86 0h-49.89v49.89z" fill="#8700D4"/><path d="M1219.92 99.84l49.95-49.95L1219.98 0h-.12l-49.89 49.89 49.95 49.95z" fill="#CC0082"/><path d="M1184.6 49.89l35.32 35.32 35.32-35.32-35.32-35.32-35.32 35.32zM1070.02 0v99.84h99.9V0h-99.9z" fill="#4F1C99"/><path d="M1119.97 99.84l49.95-49.95L1120.03 0h-.12l-49.88 49.89 49.94 49.95z" fill="#CC0082"/><path d="M1084.65 49.89h.01l35.31 35.32 35.33-35.32-35.33-35.32-35.31 35.32h-.01z" fill="#8700D4"/><path d="M970 0v99.84h99.9V0H970z" fill="#4F1C99"/><path d="M1019.95 49.89v49.95h49.95V49.89h-49.95zM970 0v49.89h49.95V0H970zm0 49.89v49.95h49.95L970 49.89zm99.91 0V0h-49.89l49.89 49.89z" fill="#CC0082"/><path d="M1019.95 99.84l49.95-49.95L1020.01 0h-.12L970 49.89l49.95 49.95z" fill="#4F1C99"/><path d="M1055.27 49.89l-35.32 35.32-35.32-35.32 35.32-35.32 35.32 35.32z" fill="#CC0082"/><path d="M1771 0v99.84h23.63V0H1771z" fill="#4F1C99"/><path d="M1771 49.89v49.95h23.63V49.89H1771zm0 0l23.64-23.64V0H1771v49.89z" fill="#CC0082"/><path d="M1794.64 73.51V26.26l-23.63 23.63 23.63 23.62z" fill="#4F1C99"/><path d="M1785.64 49.89h-.01.01l9 9v-18l-9 9h-.01.01z" fill="#CC0082"/><path d="M1670.98 0v99.84h99.9V0h-99.9z" fill="#4F1C99"/><path d="M1670.98 49.89v49.95h49.95V49.89h-49.95zM1720.94 0v49.89h49.95V0h-49.95zm49.95 49.89v49.95h-49.95l49.95-49.95zm-99.91 0L1720.87 0h-49.89v49.89z" fill="#4F1C99"/><path d="M1720.94 99.84l49.95-49.95L1721 0h-.12l-49.89 49.89 49.95 49.95z" fill="#8700D4"/><path d="M1685.62 49.89l35.32 35.32 35.32-35.32-35.32-35.32-35.32 35.32z" fill="#CC0082"/><path d="M1570.97 0v99.84h99.9V0h-99.9z" fill="#4F1C99"/><path d="M1570.97 49.89v49.95h49.95V49.89h-49.95zM1620.92 0v49.89h49.95V0h-49.95z" fill="#8700D4"/><path d="M1670.87 49.89v49.95h-49.95l49.95-49.95zm-99.9 0L1620.86 0h-49.89v49.89z" fill="#8700D4"/><path d="M1620.92 99.84l49.95-49.95L1620.98 0h-.12l-49.89 49.89 49.95 49.95z" fill="#CC0082"/><path d="M1585.6 49.89l35.32 35.32 35.32-35.32-35.32-35.32-35.32 35.32zM1471.02 0v99.84h99.9V0h-99.9z" fill="#4F1C99"/><path d="M1520.97 99.84l49.95-49.95L1521.03 0h-.12l-49.88 49.89 49.94 49.95z" fill="#CC0082"/><path d="M1485.65 49.89h.01l35.31 35.32 35.33-35.32-35.33-35.32-35.31 35.32h-.01z" fill="#8700D4"/><path d="M1371 0v99.84h99.9V0H1371z" fill="#4F1C99"/><path d="M1420.95 49.89v49.95h49.95V49.89h-49.95zM1371 0v49.89h49.95V0H1371zm0 49.89v49.95h49.95L1371 49.89zm99.91 0V0h-49.89l49.89 49.89z" fill="#CC0082"/><path d="M1420.95 99.84l49.95-49.95L1421.01 0h-.12L1371 49.89l49.95 49.95z" fill="#4F1C99"/><path d="M1456.27 49.89l-35.32 35.32-35.32-35.32 35.32-35.32 35.32 35.32z" fill="#CC0082"/><path d="M1871.02 0v99.84h99.9V0h-99.9z" fill="#4F1C99"/><path d="M1920.97 99.84l49.95-49.95L1921.03 0h-.12l-49.88 49.89 49.94 49.95z" fill="#CC0082"/><path d="M1885.65 49.89h.01l35.31 35.32 35.33-35.32-35.33-35.32-35.31 35.32h-.01z" fill="#8700D4"/><path d="M1771 0v99.84h99.9V0H1771z" fill="#4F1C99"/><path d="M1820.95 49.89v49.95h49.95V49.89h-49.95zM1771 0v49.89h49.95V0H1771zm0 49.89v49.95h49.95L1771 49.89zm99.91 0V0h-49.89l49.89 49.89z" fill="#CC0082"/><path d="M1820.95 99.84l49.95-49.95L1821.01 0h-.12L1771 49.89l49.95 49.95z" fill="#4F1C99"/><path d="M1856.27 49.89l-35.32 35.32-35.32-35.32 35.32-35.32 35.32 35.32zM0 100h1921v44H0z" fill="#CC0082"/><defs><clipPath id="clip0_17_2891"><path fill="#fff" transform="rotate(-90 70.105 74.105)" d="M0 0h144.21v595.28H0z"/></clipPath></defs></svg>