<svg width="70" height="70" viewBox="0 0 70 70" fill="none" xmlns="http://www.w3.org/2000/svg">
<g id="Layer 12">
<path id="Vector" d="M63.0119 9.32542H50.0797V1.77966C50.0797 1.30767 49.8922 0.855002 49.5584 0.521251C49.2247 0.1875 48.772 0 48.3 0H21.7C21.228 0 20.7753 0.1875 20.4416 0.521251C20.1078 0.855002 19.9203 1.30767 19.9203 1.77966V9.32542H6.98814C6.07044 9.32542 5.16173 9.50618 4.31389 9.85736C3.46605 10.2086 2.69569 10.7233 2.04678 11.3722C0.736248 12.6827 0 14.4602 0 16.3136V54.6237C0 56.4771 0.736248 58.2546 2.04678 59.5651C2.69569 60.214 3.46605 60.7287 4.31389 61.0799C5.16173 61.4311 6.07044 61.6119 6.98814 61.6119H18.2237C18.6957 61.6119 19.1484 61.4244 19.4821 61.0906C19.8159 60.7569 20.0034 60.3042 20.0034 59.8322C20.0034 59.3602 19.8159 58.9075 19.4821 58.5738C19.1484 58.24 18.6957 58.0525 18.2237 58.0525H6.98814C6.07972 58.0494 5.2094 57.6872 4.56705 57.0448C3.9247 56.4025 3.56245 55.5321 3.55932 54.6237V16.3136C3.56245 15.4051 3.9247 14.5348 4.56705 13.8925C5.2094 13.2501 6.07972 12.8879 6.98814 12.8847H63.0119C63.9203 12.8879 64.7906 13.2501 65.4329 13.8925C66.0753 14.5348 66.4376 15.4051 66.4407 16.3136V54.6237C66.4376 55.5321 66.0753 56.4025 65.4329 57.0448C64.7906 57.6872 63.9203 58.0494 63.0119 58.0525H51.7763C51.3043 58.0525 50.8516 58.24 50.5179 58.5738C50.1841 58.9075 49.9966 59.3602 49.9966 59.8322C49.9966 60.3042 50.1841 60.7569 50.5179 61.0906C50.8516 61.4244 51.3043 61.6119 51.7763 61.6119H63.0119C64.8652 61.6119 66.6427 60.8756 67.9532 59.5651C69.2638 58.2546 70 56.4771 70 54.6237V16.3136C70 14.4602 69.2638 12.6827 67.9532 11.3722C66.6427 10.0617 64.8652 9.32542 63.0119 9.32542ZM23.4797 3.55932H46.5203V9.32542H23.4797V3.55932Z" fill="#8600D3"/>
<path id="Vector_2" d="M58.2424 42.2492C58.0051 29.6729 42.6051 25.1882 35 35C27.3712 25.2475 11.9949 29.7323 11.7576 42.3085C11.753 43.9702 12.0778 45.6164 12.7132 47.1519C13.3485 48.6873 14.2819 50.0817 15.4593 51.2543L33.7424 69.478C34.0773 69.8097 34.5287 69.9971 35 70C35.4719 69.9996 35.9242 69.8119 36.2576 69.478L54.5407 51.195C55.7181 50.0224 56.6515 48.628 57.2869 47.0926C57.9222 45.5571 58.247 43.9109 58.2424 42.2492ZM35 65.7051L17.9865 48.6797C17.138 47.8379 16.4652 46.836 16.0069 45.7321C15.5487 44.6283 15.3142 43.4444 15.317 42.2492C15.0797 34.3831 25.4254 30.0645 30.8475 35.8187L33.7424 38.7136C34.0832 39.0331 34.5329 39.2109 35 39.2109C35.4672 39.2109 35.9168 39.0331 36.2576 38.7136L39.1526 35.8187C44.5034 30.0645 54.9678 34.395 54.6831 42.2492C54.6855 43.4433 54.4519 44.6261 53.9959 45.7296C53.5398 46.8332 52.8701 47.8357 52.0254 48.6797L35 65.7051Z" fill="#8600D3"/>
<path id="Vector_3" d="M39.9 48.0509H36.7797V44.9069C36.7797 44.4349 36.5922 43.9822 36.2584 43.6485C35.9247 43.3147 35.472 43.1272 35 43.1272C34.528 43.1272 34.0754 43.3147 33.7416 43.6485C33.4079 43.9822 33.2204 44.4349 33.2204 44.9069V48.0509H30.1119C29.6399 48.0509 29.1872 48.2384 28.8535 48.5722C28.5197 48.9059 28.3322 49.3586 28.3322 49.8306C28.3322 50.3026 28.5197 50.7552 28.8535 51.089C29.1872 51.4228 29.6399 51.6103 30.1119 51.6103H33.2204V54.695C33.2204 55.167 33.4079 55.6197 33.7416 55.9534C34.0754 56.2872 34.528 56.4747 35 56.4747C35.472 56.4747 35.9247 56.2872 36.2584 55.9534C36.5922 55.6197 36.7797 55.167 36.7797 54.695V51.6103H39.9C40.372 51.6103 40.8247 51.4228 41.1584 51.089C41.4922 50.7552 41.6797 50.3026 41.6797 49.8306C41.6797 49.3586 41.4922 48.9059 41.1584 48.5722C40.8247 48.2384 40.372 48.0509 39.9 48.0509Z" fill="#8600D3"/>
</g>
</svg>
