<svg width="144" height="144" viewBox="0 0 144 144" fill="none" xmlns="http://www.w3.org/2000/svg">
<path id="Vector" d="M72 0C32.304 0 0 32.304 0 72C0 111.696 32.304 144 72 144C111.696 144 144 111.696 144 72C144 32.304 111.696 0 72 0ZM109.008 51.408L65.808 94.608C64.848 95.52 63.648 96 62.4 96C61.152 96 59.952 95.52 58.992 94.608L39.792 75.408C37.92 73.536 37.92 70.464 39.792 68.592C41.664 66.72 44.736 66.72 46.608 68.592L62.4 84.432L102.192 44.592C104.064 42.72 107.136 42.72 109.008 44.592C110.88 46.464 110.88 49.536 109.008 51.408Z" fill="#CB0083"/>
</svg>
