<svg width="243" height="61" viewBox="0 0 243 61" fill="none" xmlns="http://www.w3.org/2000/svg">
<g filter="url(#filter0_d_1_1456)">
<path d="M104.92 25.4502C104.95 21.8302 105.64 17.8002 106.13 17.2302C106.52 16.7902 108.82 16.2002 112.76 16.2002C116.93 16.2002 119.25 16.8602 119.62 17.2702C120.1 17.7902 120.77 21.8702 120.81 25.4502L120.89 32.7802C120.9 33.8202 120.87 34.7502 120.7 34.8902C120.53 35.0402 119.31 35.1502 118.12 35.1502C116.93 35.1502 115.77 35.0302 115.59 34.8902C115.39 34.7402 115.35 33.9702 115.34 32.7802L115.33 30.4802C115.33 29.7302 115.21 29.0302 115.15 28.9702C115.1 28.9002 114.39 28.8002 113.67 28.8002H112.02C111.3 28.8002 110.59 28.8902 110.54 28.9702C110.49 29.0402 110.37 29.7502 110.36 30.4802L110.35 32.7802C110.35 33.8102 110.3 34.7502 110.12 34.8902C109.94 35.0402 108.74 35.1502 107.55 35.1502C106.35 35.1502 105.18 35.0302 105.01 34.8902C104.83 34.7502 104.8 33.9402 104.81 32.7802L104.92 25.4502ZM113.69 24.6102C114.41 24.6102 115.1 24.4802 115.15 24.3802C115.2 24.3002 115.24 23.9002 115.18 23.0202C115.11 22.1202 114.88 20.9102 114.58 20.6502C114.39 20.4802 113.95 20.3102 112.88 20.3102C111.82 20.3102 111.37 20.4802 111.18 20.6502C110.87 20.9102 110.66 22.1302 110.59 22.9902C110.51 23.9502 110.57 24.3002 110.61 24.3802C110.66 24.4502 111.35 24.6102 112.07 24.6102H113.69Z" fill="white"/>
<path d="M188.1 25.4502C188.13 21.8302 188.82 17.8002 189.31 17.2302C189.7 16.7902 192 16.2002 195.94 16.2002C200.11 16.2002 202.43 16.8602 202.8 17.2702C203.28 17.7902 203.95 21.8702 203.99 25.4502L204.07 32.7802C204.08 33.8202 204.05 34.7502 203.88 34.8902C203.71 35.0402 202.49 35.1502 201.3 35.1502C200.11 35.1502 198.95 35.0302 198.77 34.8902C198.57 34.7402 198.53 33.9702 198.52 32.7802L198.51 30.4802C198.51 29.7302 198.39 29.0302 198.33 28.9702C198.28 28.9002 197.57 28.8002 196.85 28.8002H195.2C194.48 28.8002 193.77 28.8902 193.72 28.9702C193.67 29.0402 193.55 29.7502 193.54 30.4802L193.53 32.7802C193.53 33.8102 193.48 34.7502 193.3 34.8902C193.12 35.0402 191.92 35.1502 190.73 35.1502C189.53 35.1502 188.36 35.0302 188.19 34.8902C188.01 34.7502 187.98 33.9402 187.99 32.7802L188.1 25.4502ZM196.87 24.6102C197.59 24.6102 198.28 24.4802 198.33 24.3802C198.38 24.3002 198.42 23.9002 198.36 23.0202C198.29 22.1202 198.06 20.9102 197.76 20.6502C197.57 20.4802 197.13 20.3102 196.06 20.3102C195 20.3102 194.55 20.4802 194.36 20.6502C194.05 20.9102 193.84 22.1302 193.77 22.9902C193.69 23.9502 193.75 24.3002 193.79 24.3802C193.84 24.4502 194.53 24.6102 195.25 24.6102H196.87Z" fill="white"/>
<path d="M222.22 25.4502C222.25 21.8302 222.94 17.8002 223.44 17.2302C223.83 16.7902 226.13 16.2002 230.07 16.2002C234.24 16.2002 236.56 16.8602 236.93 17.2702C237.41 17.7902 238.08 21.8702 238.12 25.4502L238.2 32.7802C238.21 33.8202 238.18 34.7502 238.01 34.8902C237.84 35.0402 236.62 35.1502 235.43 35.1502C234.24 35.1502 233.08 35.0302 232.9 34.8902C232.7 34.7402 232.66 33.9702 232.65 32.7802L232.64 30.4802C232.64 29.7302 232.52 29.0302 232.46 28.9702C232.41 28.9002 231.7 28.8002 230.98 28.8002H229.33C228.61 28.8002 227.9 28.8902 227.85 28.9702C227.8 29.0402 227.68 29.7502 227.67 30.4802L227.66 32.7802C227.66 33.8102 227.61 34.7502 227.43 34.8902C227.24 35.0402 226.05 35.1502 224.86 35.1502C223.66 35.1502 222.49 35.0302 222.32 34.8902C222.14 34.7502 222.11 33.9402 222.12 32.7802L222.22 25.4502ZM230.99 24.6102C231.71 24.6102 232.4 24.4802 232.45 24.3802C232.5 24.3002 232.55 23.9002 232.48 23.0202C232.41 22.1202 232.18 20.9102 231.88 20.6502C231.69 20.4802 231.25 20.3102 230.18 20.3102C229.12 20.3102 228.67 20.4802 228.48 20.6502C228.17 20.9102 227.96 22.1302 227.89 22.9902C227.81 23.9502 227.87 24.3002 227.91 24.3802C227.96 24.4502 228.65 24.6102 229.37 24.6102H230.99Z" fill="white"/>
<path d="M206.96 18.5202C206.96 17.5002 207 16.5802 207.17 16.4502C207.37 16.2902 208.64 16.2002 209.83 16.2002C211.08 16.2002 212.22 16.3002 212.44 16.4502C212.65 16.6002 212.68 17.3702 212.68 18.5202V29.2902C212.68 29.6102 212.75 30.0602 212.85 30.1502C212.96 30.2702 213.45 30.3202 213.74 30.3202H218.3C218.86 30.3202 219.8 30.3202 219.91 30.4802C220.02 30.6102 220.09 31.8102 220.09 32.7702C220.09 33.7402 220.01 34.8102 219.91 34.9502C219.82 35.0902 219.22 35.1302 218.3 35.1302L209.62 35.1202C208.67 35.1202 207.6 34.9502 207.36 34.7202C207.12 34.4902 206.96 33.3902 206.96 32.4602V18.5202Z" fill="white"/>
<path d="M185.21 25.8399C185.21 22.2799 184.59 17.8499 184.1 17.2699C183.72 16.7899 181.52 16.1899 177.31 16.1899C175.18 16.1899 173.72 16.3799 172.76 16.6099C171.63 16.3699 169.93 16.1899 167.62 16.1899C163.47 16.1899 161.85 16.9099 161.53 17.2799C161.06 17.8099 160.42 22.2099 160.42 25.8399V32.8399C160.42 34.0099 160.45 34.7399 160.65 34.8999C160.85 35.0399 161.73 35.1499 163.04 35.1499C164.32 35.1499 165.41 35.0399 165.58 34.8999C165.78 34.7399 165.8 33.8999 165.8 32.8399V25.7299C165.8 23.5099 165.89 21.4299 166.3 20.9699C166.48 20.7599 166.93 20.5499 167.9 20.5499C168.87 20.5499 169.42 20.6399 169.59 20.9499C169.8 21.2899 170.06 22.2599 170.13 24.1399C170.12 24.4699 170.11 27.5499 170.11 27.8799V32.8499C170.11 34.0199 170.14 34.7499 170.34 34.9099C170.54 35.0499 171.42 35.1599 172.73 35.1599H172.83H172.93C174.18 35.1599 175.12 35.0699 175.3 34.9099C175.5 34.7499 175.53 34.0099 175.53 32.8499V27.8799C175.53 27.4899 175.52 24.3399 175.51 23.9399C175.54 22.1599 175.66 21.3699 176 20.9799C176.18 20.7699 176.63 20.5599 177.6 20.5599C178.57 20.5599 179.12 20.6499 179.29 20.9599C179.53 21.3599 179.84 23.5299 179.84 25.7499V32.8599C179.84 33.9399 179.89 34.7599 180.06 34.9199C180.22 35.0599 181.26 35.1699 182.62 35.1699C183.87 35.1699 184.81 35.0799 184.99 34.9199C185.19 34.7599 185.22 34.0199 185.22 32.8599V25.8399H185.21Z" fill="white"/>
<path d="M85.3 18.5202C85.3 17.3502 85.33 16.6102 85.53 16.4502C85.71 16.2902 86.66 16.2002 87.92 16.2002C89.29 16.2002 90.34 16.3002 90.5 16.4502C90.67 16.6102 90.73 17.4302 90.73 18.5202V25.6602C90.73 27.8902 91.05 30.0902 91.29 30.4902C91.46 30.8002 92.65 30.8902 93.67 30.8902C95.17 30.8902 95.82 30.6802 96.01 30.4602C96.42 30.0002 96.52 27.8902 96.52 25.6602V18.5202C96.52 17.4602 96.55 16.6102 96.75 16.4502C96.92 16.3002 98.03 16.2002 99.32 16.2002C100.63 16.2002 101.53 16.3002 101.73 16.4502C101.93 16.6102 101.96 17.3402 101.96 18.5202V25.5402C101.96 29.1902 101.32 33.6402 100.84 34.1702C100.51 34.5402 98.15 35.2702 93.97 35.2702C89.73 35.2702 86.83 34.6602 86.44 34.1802C85.95 33.5902 85.32 29.1302 85.32 25.5402V18.5202H85.3Z" fill="white"/>
<path d="M82.11 24.07C81.84 23.76 80.72 23.49 79.78 23.49H76.23C75.41 23.49 74.86 23.52 74.77 23.66C74.66 23.81 74.59 24.72 74.59 25.64C74.59 26.58 74.67 27.47 74.77 27.62C74.86 27.74 75.49 27.77 76.23 27.77H76.44C77.02 27.77 77.35 27.85 77.45 27.97C77.5 28.03 77.5 28.3 77.48 28.64C77.37 29.5 77.24 30.21 77.13 30.4C76.96 30.67 75.34 30.78 74.21 30.8C72.97 30.79 71.01 30.68 70.84 30.4C70.59 30 70.28 27.24 70.28 25.69C70.28 24.15 70.58 21.46 70.88 21.05C71.07 20.78 72.83 20.59 74.29 20.59C76.45 20.59 79.81 21.3 80.11 21.3C80.57 21.3 80.87 20.2 81.08 19.25C81.27 18.44 81.44 17.3 81.35 17.14C81.18 16.85 77.05 16.21 73.96 16.21C69.81 16.21 66.4 16.82 65.99 17.27C65.5 17.8 64.85 22.03 64.85 25.63C64.85 29.18 65.49 33.62 65.96 34.22C66.35 34.7 69.82 35.31 73.82 35.31H73.89H73.96C77.48 35.31 80.34 34.84 81.12 34.4C81.34 34.3 81.46 34.22 81.48 34.17C81.72 33.64 82.26 30.14 82.42 27.18C82.51 24.93 82.37 24.38 82.11 24.07Z" fill="white"/>
<path d="M138.8 16.1899C139.53 16.1899 140.17 16.2199 140.26 16.3399C140.37 16.4599 140.45 17.7199 140.45 18.4999C140.45 19.3099 140.37 20.4799 140.26 20.6099C140.17 20.7399 135.29 21.0399 134.88 21.1199C134.47 21.1999 134.43 21.4999 134.43 22.0299C134.43 22.5699 134.43 32.8199 134.43 32.8199C134.43 33.8699 134.39 34.7499 134.22 34.8899C134.05 35.0399 133.17 35.1399 131.64 35.1399C130.11 35.1399 129.23 35.0399 129.06 34.8899C128.89 34.7399 128.85 33.8699 128.85 32.8199C128.85 32.8199 128.85 22.5699 128.85 22.0299C128.85 21.4899 128.8 21.1899 128.4 21.1199C127.99 21.0499 123.11 20.7399 123.02 20.6099C122.91 20.4799 122.83 19.3099 122.83 18.4999C122.83 17.7099 122.91 16.4599 123.02 16.3399C123.11 16.2199 123.75 16.1899 124.48 16.1899H138.8Z" fill="white"/>
<path d="M153.69 20.7302H148.76C148.49 20.7302 148.3 20.8402 148.21 21.1802C148.13 21.5102 147.94 22.8602 147.97 23.2502C147.97 23.3202 147.97 23.3702 148.02 23.4502C148.08 23.5202 148.21 23.5402 148.32 23.5402C149.98 23.5202 151.86 23.5202 151.86 23.5202H153.46C154.15 23.5202 154.7 23.5402 154.78 23.6602C154.88 23.7702 155.01 24.9202 155.01 25.6702C155.01 26.4402 154.88 27.4902 154.78 27.6102C154.69 27.7402 154.24 27.7802 153.46 27.7802H153.29C151.63 27.7802 149.97 27.7802 148.32 27.7502C148.21 27.7502 148.08 27.7702 148.02 27.8402C147.96 27.9102 147.97 27.9702 147.97 28.0402C147.94 28.4302 148.13 29.8602 148.22 30.1802C148.31 30.5202 148.5 30.6302 148.77 30.6302H155.94C157 30.6302 157.55 30.6802 157.72 30.8202C157.84 30.9102 158.03 31.7502 158.03 32.8902C158.03 34.0202 157.79 34.8802 157.72 34.9602C157.64 35.0402 157.16 35.1302 156.1 35.1302L146.49 35.1402C145.56 35.1402 144.02 34.8602 143.54 34.3202C143.06 33.7802 142.41 29.1602 142.41 25.5302C142.41 21.8502 143.05 17.5802 143.56 16.9802C144.08 16.3802 144.76 16.1802 145.71 16.1802H155.93C156.78 16.1802 157.54 16.2302 157.71 16.3702C157.83 16.4702 158.02 17.3202 158.02 18.4602C158.02 19.5902 157.78 20.4602 157.71 20.5502C157.63 20.6302 156.99 20.7302 155.93 20.7302H153.69Z" fill="white"/>
<path d="M68.58 41.48H70.23L73.7 49.87H71.73L71.16 48.46H67.66L67.09 49.87H65.12L68.58 41.48ZM70.63 46.98L69.41 43.94L68.18 46.98H70.63Z" fill="white"/>
<path d="M75.11 47.8401C75.43 48.2301 76.06 48.5001 76.77 48.5001C77.41 48.5001 77.68 48.3001 77.68 48.0101C77.68 47.6001 76.85 47.5601 75.92 47.2501C75.08 46.9601 74.52 46.4801 74.52 45.5701C74.52 44.2701 75.65 43.6201 76.88 43.6201C77.96 43.6201 78.66 43.9901 79.12 44.4001L78.26 45.5801C78 45.3601 77.54 45.1401 76.83 45.1401C76.42 45.1401 76.23 45.3201 76.23 45.5201C76.23 45.9301 76.72 45.8601 77.89 46.2601C78.98 46.6301 79.38 47.2101 79.38 47.9801C79.38 49.1501 78.56 50.0201 76.71 50.0201C75.35 50.0201 74.52 49.5001 74.06 48.9401L75.11 47.8401Z" fill="white"/>
<path d="M83.56 43.6201C85.42 43.6201 86.93 45.0401 86.93 46.8301C86.93 48.6201 85.43 50.0401 83.56 50.0401C81.68 50.0401 80.19 48.6201 80.19 46.8301C80.19 45.0401 81.68 43.6201 83.56 43.6201ZM83.56 48.4201C84.44 48.4201 85.14 47.7201 85.14 46.8301C85.14 45.9501 84.44 45.2401 83.56 45.2401C82.67 45.2401 81.98 45.9501 81.98 46.8301C81.98 47.7201 82.67 48.4201 83.56 48.4201Z" fill="white"/>
<path d="M88.1 43.7999H89.89V44.5599C90.12 44.0299 90.72 43.6699 91.47 43.6699C92.3 43.6699 92.84 44.0099 93.12 44.6299C93.52 43.8699 94.27 43.6699 95.12 43.6699C96.49 43.6699 97.25 44.6199 97.25 46.1799V47.7099C97.25 48.1599 97.32 48.3499 97.65 48.3499C97.72 48.3499 97.81 48.3399 97.83 48.3399V49.8599C97.79 49.8699 97.53 49.9399 97.06 49.9399C96.11 49.9399 95.46 49.4799 95.46 48.2099V46.4099C95.46 45.7099 95.16 45.2699 94.58 45.2699C94 45.2699 93.59 45.7599 93.59 46.4699V49.8699H91.8V46.3999C91.8 45.6999 91.49 45.2599 90.9 45.2599C90.32 45.2599 89.9 45.7499 89.9 46.4599V49.8599H88.1V43.7999Z" fill="white"/>
<path d="M98.91 41.48H100.7V44.6C100.87 44.07 101.58 43.7 102.5 43.7C104.22 43.7 105.51 45.1 105.51 46.84C105.51 48.6 104.22 49.98 102.5 49.98C101.57 49.98 100.86 49.6 100.7 49.08V49.87H98.91V41.48ZM102.18 48.35C103.05 48.35 103.72 47.69 103.72 46.83C103.72 45.97 103.05 45.31 102.18 45.31C101.3 45.31 100.59 45.97 100.59 46.83C100.59 47.69 101.3 48.35 102.18 48.35Z" fill="white"/>
<path d="M106.68 43.7999H108.47V44.6299C108.75 44.0199 109.4 43.6699 110.23 43.6699C110.4 43.6699 110.6 43.6899 110.7 43.7099V45.3899C110.53 45.3499 110.33 45.3299 110.1 45.3299C109.08 45.3299 108.48 45.9199 108.48 46.9099V49.8699H106.69V43.7999H106.68Z" fill="white"/>
<path d="M114.64 43.6201C116.5 43.6201 118.01 45.0401 118.01 46.8301C118.01 48.6201 116.51 50.0401 114.64 50.0401C112.76 50.0401 111.27 48.6201 111.27 46.8301C111.27 45.0401 112.76 43.6201 114.64 43.6201ZM114.64 48.4201C115.52 48.4201 116.22 47.7201 116.22 46.8301C116.22 45.9501 115.52 45.2401 114.64 45.2401C113.75 45.2401 113.06 45.9501 113.06 46.8301C113.06 47.7201 113.75 48.4201 114.64 48.4201Z" fill="white"/>
<path d="M119.58 47.8401C119.9 48.2301 120.53 48.5001 121.24 48.5001C121.88 48.5001 122.15 48.3001 122.15 48.0101C122.15 47.6001 121.32 47.5601 120.39 47.2501C119.55 46.9601 118.99 46.4801 118.99 45.5701C118.99 44.2701 120.12 43.6201 121.35 43.6201C122.43 43.6201 123.13 43.9901 123.59 44.4001L122.73 45.5801C122.47 45.3601 122.01 45.1401 121.3 45.1401C120.89 45.1401 120.7 45.3201 120.7 45.5201C120.7 45.9301 121.19 45.8601 122.36 46.2601C123.46 46.6301 123.85 47.2101 123.85 47.9801C123.85 49.1501 123.03 50.0201 121.18 50.0201C119.82 50.0201 118.99 49.5001 118.53 48.9401L119.58 47.8401Z" fill="white"/>
<path d="M127.7 43.6899C128.63 43.6899 129.34 44.0599 129.5 44.5899V43.7999H131.29V47.7299C131.29 48.2199 131.42 48.3999 131.74 48.3999C131.82 48.3999 131.96 48.3899 132.04 48.3799V49.8699C131.86 49.9299 131.52 49.9699 131.23 49.9699C130.9 49.9699 130.54 49.9199 130.24 49.7499C130.05 49.6299 129.81 49.4399 129.7 49.0999C129.35 49.6199 128.75 49.9799 127.69 49.9799C125.97 49.9799 124.68 48.5999 124.68 46.8299C124.69 45.0899 125.98 43.6899 127.7 43.6899ZM128.03 48.3499C128.91 48.3499 129.62 47.6899 129.62 46.8299C129.62 45.9699 128.91 45.3099 128.03 45.3099C127.16 45.3099 126.49 45.9699 126.49 46.8299C126.49 47.6899 127.16 48.3499 128.03 48.3499Z" fill="white"/>
<path d="M136.01 46.8201C136.01 44.8801 137.41 43.6401 139.29 43.6401C141.17 43.6401 142.41 45.0101 142.41 46.7201C142.41 46.7201 142.41 47.0201 142.39 47.3001H137.81C137.85 48.0201 138.47 48.4901 139.42 48.4901C140.05 48.4901 140.48 48.3001 140.9 47.9001L141.95 48.9001C141.14 49.7301 140.27 50.0101 139.34 50.0101C137.37 50.0101 136.02 48.7701 136.02 46.8701V46.8201H136.01ZM140.61 46.1401C140.61 45.5901 140.02 45.1301 139.3 45.1301C138.52 45.1301 137.88 45.5801 137.83 46.1401H140.61Z" fill="white"/>
<path d="M145.97 42.27C145.97 41.69 146.44 41.25 146.99 41.25C147.56 41.25 148.01 41.7 148.01 42.27C148.01 42.84 147.55 43.28 146.99 43.28C146.44 43.28 145.97 42.84 145.97 42.27ZM146.11 43.8H147.9V47.74C147.9 48.17 148 48.38 148.31 48.38C148.38 48.38 148.5 48.37 148.53 48.36V49.89C148.47 49.91 148.19 49.99 147.7 49.99C146.74 49.99 146.11 49.53 146.11 48.28V43.8Z" fill="white"/>
<path d="M149.58 43.7999H151.37V44.5599C151.6 44.0299 152.2 43.6699 152.95 43.6699C153.78 43.6699 154.32 44.0099 154.6 44.6299C155 43.8699 155.75 43.6699 156.6 43.6699C157.97 43.6699 158.73 44.6199 158.73 46.1799V47.7099C158.73 48.1599 158.8 48.3499 159.13 48.3499C159.2 48.3499 159.29 48.3399 159.31 48.3399V49.8599C159.27 49.8699 159.01 49.9399 158.54 49.9399C157.59 49.9399 156.94 49.4799 156.94 48.2099V46.4099C156.94 45.7099 156.64 45.2699 156.06 45.2699C155.48 45.2699 155.07 45.7599 155.07 46.4699V49.8699H153.28V46.3999C153.28 45.6999 152.97 45.2599 152.38 45.2599C151.8 45.2599 151.38 45.7499 151.38 46.4599V49.8599H149.59V43.7999H149.58Z" fill="white"/>
<path d="M160.38 43.7999H162.17V44.5899C162.34 44.0699 163.05 43.6899 163.97 43.6899C165.69 43.6899 166.98 45.0699 166.98 46.8299C166.98 48.5699 165.69 49.9699 163.97 49.9699C163.04 49.9699 162.33 49.5999 162.17 49.0699V52.1899H160.38V43.7999ZM163.66 48.3499C164.53 48.3499 165.2 47.6899 165.2 46.8299C165.2 45.9699 164.53 45.3099 163.66 45.3099C162.78 45.3099 162.07 45.9699 162.07 46.8299C162.07 47.6899 162.78 48.3499 163.66 48.3499Z" fill="white"/>
<path d="M170.9 43.6899C171.83 43.6899 172.54 44.0599 172.7 44.5899V43.7999H174.49V47.7299C174.49 48.2199 174.62 48.3999 174.94 48.3999C175.02 48.3999 175.16 48.3899 175.24 48.3799V49.8699C175.06 49.9299 174.72 49.9699 174.43 49.9699C174.1 49.9699 173.74 49.9199 173.44 49.7499C173.25 49.6299 173.01 49.4399 172.9 49.0999C172.55 49.6199 171.95 49.9799 170.89 49.9799C169.17 49.9799 167.88 48.5999 167.88 46.8299C167.89 45.0899 169.18 43.6899 170.9 43.6899ZM171.22 48.3499C172.1 48.3499 172.81 47.6899 172.81 46.8299C172.81 45.9699 172.1 45.3099 171.22 45.3099C170.35 45.3099 169.68 45.9699 169.68 46.8299C169.68 47.6899 170.36 48.3499 171.22 48.3499Z" fill="white"/>
<path d="M176.27 43.7999H178.06V44.6299C178.34 44.0199 178.99 43.6699 179.82 43.6699C179.99 43.6699 180.19 43.6899 180.29 43.7099V45.3899C180.12 45.3499 179.92 45.3299 179.69 45.3299C178.67 45.3299 178.07 45.9199 178.07 46.9099V49.8699H176.28V43.7999H176.27Z" fill="white"/>
<path d="M183.88 43.6899C184.81 43.6899 185.52 44.0599 185.68 44.5899V43.7999H187.47V47.7299C187.47 48.2199 187.6 48.3999 187.92 48.3999C188 48.3999 188.14 48.3899 188.22 48.3799V49.8699C188.04 49.9299 187.7 49.9699 187.41 49.9699C187.08 49.9699 186.72 49.9199 186.42 49.7499C186.23 49.6299 185.99 49.4399 185.88 49.0999C185.53 49.6199 184.93 49.9799 183.87 49.9799C182.15 49.9799 180.86 48.5999 180.86 46.8299C180.87 45.0899 182.16 43.6899 183.88 43.6899ZM184.2 48.3499C185.08 48.3499 185.79 47.6899 185.79 46.8299C185.79 45.9699 185.08 45.3099 184.2 45.3099C183.33 45.3099 182.66 45.9699 182.66 46.8299C182.66 47.6899 183.33 48.3499 184.2 48.3499Z" fill="white"/>
<path d="M189.25 41.48H191.04V44.6C191.21 44.07 191.92 43.7 192.84 43.7C194.56 43.7 195.85 45.1 195.85 46.84C195.85 48.6 194.56 49.98 192.84 49.98C191.91 49.98 191.2 49.6 191.04 49.08V49.87H189.25V41.48ZM192.53 48.35C193.4 48.35 194.07 47.69 194.07 46.83C194.07 45.97 193.4 45.31 192.53 45.31C191.65 45.31 190.94 45.97 190.94 46.83C190.94 47.69 191.65 48.35 192.53 48.35Z" fill="white"/>
<path d="M196.99 41.48H198.78V47.62C198.78 48.17 198.99 48.4 199.48 48.4C199.61 48.4 199.78 48.39 199.91 48.35V49.94C199.73 49.99 199.38 50.03 199.06 50.03C198.21 50.03 196.99 49.76 196.99 47.9V41.48Z" fill="white"/>
<path d="M200.56 46.8201C200.56 44.8801 201.95 43.6401 203.84 43.6401C205.72 43.6401 206.96 45.0101 206.96 46.7201C206.96 46.7201 206.96 47.0201 206.94 47.3001H202.36C202.4 48.0201 203.02 48.4901 203.97 48.4901C204.6 48.4901 205.03 48.3001 205.45 47.9001L206.5 48.9001C205.69 49.7301 204.82 50.0101 203.89 50.0101C201.92 50.0101 200.57 48.7701 200.57 46.8701V46.8201H200.56ZM205.16 46.1401C205.16 45.5901 204.57 45.1301 203.85 45.1301C203.07 45.1301 202.43 45.5801 202.38 46.1401H205.16Z" fill="white"/>
<path d="M22.32 4.43004V18.32L29.7 10.94L22.81 4.04004C22.64 4.17004 22.48 4.30004 22.32 4.43004Z" fill="#501D9A"/>
<path d="M4 25.7002C4 27.0602 5.86 29.8202 8.05 32.5902L14.94 25.7002H4Z" fill="#CB0083"/>
<path d="M14.94 25.7001L8.04 18.8101C5.86 21.5701 4 24.3201 4 25.7001H14.94Z" fill="#8600D3"/>
<path d="M22.32 18.3198H8.42998C8.29998 18.4798 8.16998 18.6398 8.03998 18.8098L14.93 25.7098L22.32 18.3198Z" fill="#501D9A"/>
<path d="M29.7 0V10.94L36.56 4.08C33.78 1.88 31.02 0 29.7 0Z" fill="#501D9A"/>
<path d="M29.7 0C28.32 0 25.57 1.86 22.8 4.04L29.7 10.93V0Z" fill="#CB0083"/>
<path d="M22.32 33.0802L14.94 25.7002L8.04999 32.5902C10.91 36.2102 14.34 39.8502 14.89 40.4202L14.93 40.4602L22.32 33.0802Z" fill="#501D9A"/>
<path d="M29.7 18.3198L37.08 25.6998L44.46 18.3198H29.7Z" fill="#501D9A"/>
<path d="M29.7 10.9398L33.41 14.6498L40.61 7.44982C39.38 6.36982 37.97 5.17982 36.57 4.06982L29.7 10.9398Z" fill="#8600D3"/>
<path d="M29.7 40.46H14.94L14.98 40.5C15.55 41.06 19.19 44.48 22.81 47.34L29.7 40.46Z" fill="#8600D3"/>
<path d="M14.94 40.4601H29.7L22.32 33.0801L14.94 40.4601Z" fill="#CB0083"/>
<path d="M37.08 25.6998L29.7 18.3198V25.6998V33.0798L37.08 25.6998Z" fill="#8600D3"/>
<path d="M29.7 18.3198L22.32 25.6998L29.7 33.0798V25.6998V18.3198Z" fill="#CB0083"/>
<path d="M29.7 51.4C31.07 51.4 33.82 49.54 36.59 47.35L29.7 40.46L22.81 47.35C25.58 49.53 28.34 51.4 29.7 51.4Z" fill="#CB0083"/>
<path d="M29.7 40.46L36.59 47.35C40.17 44.52 43.77 41.13 44.41 40.51L44.46 40.46H29.7Z" fill="#8600D3"/>
<path d="M44.46 40.4601L37.08 33.0801L29.7 40.4601H44.46Z" fill="#CB0083"/>
<path d="M44.46 25.7002L37.08 33.0802L44.46 40.4602L44.51 40.4102C45.13 39.7802 48.52 36.1802 51.35 32.5902L44.46 25.7002Z" fill="#501D9A"/>
<path d="M55.4 25.7002H44.46L51.35 32.5902C53.54 29.8202 55.4 27.0702 55.4 25.7002Z" fill="#8600D3"/>
<path d="M44.46 25.6998H37.08L44.46 18.3198H50.91C51.05 18.4898 51.19 18.6698 51.32 18.8398C53.52 21.6198 55.4 24.3798 55.4 25.6998H44.46Z" fill="#CB0083"/>
<path d="M18.6 7.57018V14.6002V14.6702H11.51C10.53 15.7802 9.45999 17.0402 8.42999 18.3102H22.32V4.43018C21.02 5.48018 19.73 6.58018 18.6 7.57018Z" fill="#CB0083"/>
<path d="M14.94 10.9398C14.63 11.2498 13.22 12.7298 11.51 14.6798H18.6V14.5998V7.56982C16.7 9.24982 15.24 10.6298 14.94 10.9398Z" fill="#8600D3"/>
<path d="M29.6978 44.1491L27.8523 45.9946L29.6978 47.8402L31.5434 45.9946L29.6978 44.1491Z" fill="#501D9A"/>
</g>
<defs>
<filter id="filter0_d_1_1456" x="0" y="0" width="242.202" height="60.1899" filterUnits="userSpaceOnUse" color-interpolation-filters="sRGB">
<feFlood flood-opacity="0" result="BackgroundImageFix"/>
<feColorMatrix in="SourceAlpha" type="matrix" values="0 0 0 0 0 0 0 0 0 0 0 0 0 0 0 0 0 0 127 0" result="hardAlpha"/>
<feOffset dy="4"/>
<feGaussianBlur stdDeviation="2"/>
<feComposite in2="hardAlpha" operator="out"/>
<feColorMatrix type="matrix" values="0 0 0 0 0 0 0 0 0 0 0 0 0 0 0 0 0 0 0.25 0"/>
<feBlend mode="normal" in2="BackgroundImageFix" result="effect1_dropShadow_1_1456"/>
<feBlend mode="normal" in="SourceGraphic" in2="effect1_dropShadow_1_1456" result="shape"/>
</filter>
</defs>
</svg>
