<svg width="80" height="64" viewBox="0 0 80 64" fill="none" xmlns="http://www.w3.org/2000/svg">
<g id="Capa_1" clip-path="url(#clip0_56_504)">
<path id="Vector" d="M4.1 59.29C0.67 55.86 0 33.6 0 31.7C0 29.8 0.67 7.54 4.1 4.1C7.54 0.67 28.62 0 39.62 0C50.62 0 71.7 0.67 75.14 4.1C78.57 7.53 79.24 29.96 79.24 31.69C79.24 33.42 78.57 55.85 75.14 59.29C71.71 62.72 49.65 63.39 39.62 63.39C29.59 63.39 7.54 62.72 4.1 59.29Z" fill="white"/>
<path id="Vector_2" d="M35.6797 10.6102V18.0302L39.6197 14.0902L35.9397 10.4102C35.8497 10.4802 35.7697 10.5502 35.6797 10.6202" fill="#501D9A"/>
<path id="Vector_3" d="M25.9004 21.9702C25.9004 22.7002 26.8904 24.1702 28.0604 25.6502L31.7404 21.9702H25.9004Z" fill="#CB0083"/>
<path id="Vector_4" d="M31.7404 21.97L28.0604 18.29C26.8904 19.77 25.9004 21.24 25.9004 21.97H31.7404Z" fill="#8600D3"/>
<path id="Vector_5" d="M35.6798 18.0298H28.2598C28.1898 18.1198 28.1198 18.1998 28.0498 18.2898L31.7298 21.9698L35.6698 18.0298H35.6798Z" fill="#501D9A"/>
<path id="Vector_6" d="M39.6299 8.23998V14.08L43.2999 10.41C41.8199 9.23998 40.3399 8.22998 39.6299 8.22998" fill="#501D9A"/>
<path id="Vector_7" d="M39.6302 8.24023C38.9002 8.24023 37.4202 9.23023 35.9502 10.4002L39.6302 14.0802V8.24023Z" fill="#CB0083"/>
<path id="Vector_8" d="M35.6796 25.9102L31.7396 21.9702L28.0596 25.6502C29.5896 27.5802 31.4196 29.5302 31.7196 29.8302L31.7396 29.8502L35.6796 25.9102Z" fill="#501D9A"/>
<path id="Vector_9" d="M39.6299 18.0298L43.5699 21.9698L47.5099 18.0298H39.6299Z" fill="#501D9A"/>
<path id="Vector_10" d="M39.6301 14.0902L41.6101 16.0702L45.4501 12.2302C44.7901 11.6602 44.0401 11.0202 43.2901 10.4302L39.6201 14.1002L39.6301 14.0902Z" fill="#8600D3"/>
<path id="Vector_11" d="M39.63 29.8599H31.75L31.77 29.8799C32.07 30.1799 34.02 32.0099 35.95 33.5399L39.63 29.8599Z" fill="#8600D3"/>
<path id="Vector_12" d="M31.7402 29.8602H39.6302L35.6802 25.9102L31.7402 29.8602Z" fill="#CB0083"/>
<path id="Vector_13" d="M43.5699 21.9698L39.6299 18.0298V21.9698V25.9098L43.5699 21.9698Z" fill="#8600D3"/>
<path id="Vector_14" d="M39.6297 18.0298L35.6797 21.9698L39.6297 25.9098V21.9698V18.0298Z" fill="#CB0083"/>
<path id="Vector_15" d="M39.6302 35.6999C40.3602 35.6999 41.8302 34.7099 43.3102 33.5399L39.6302 29.8599L35.9502 33.5399C37.4302 34.7099 38.9002 35.6999 39.6302 35.6999Z" fill="#CB0083"/>
<path id="Vector_16" d="M39.6299 29.8601L43.3099 33.5401C45.2199 32.0301 47.1499 30.2201 47.4899 29.8801L47.5199 29.8501H39.6399L39.6299 29.8601Z" fill="#8600D3"/>
<path id="Vector_17" d="M47.5099 29.8602L43.5699 25.9102L39.6299 29.8602H47.5099Z" fill="#CB0083"/>
<path id="Vector_18" d="M47.5103 21.97L43.5703 25.91L47.5103 29.85L47.5403 29.82C47.8703 29.48 49.6803 27.56 51.1903 25.64L47.5103 21.96V21.97Z" fill="#501D9A"/>
<path id="Vector_19" d="M53.3498 21.9702H47.5098L51.1898 25.6502C52.3598 24.1702 53.3498 22.7002 53.3498 21.9702Z" fill="#8600D3"/>
<path id="Vector_20" d="M47.5103 21.9698H43.5703L47.5103 18.0298H50.9603C51.0303 18.1198 51.1103 18.2098 51.1803 18.2998C52.3503 19.7798 53.3603 21.2598 53.3603 21.9698H47.5203" fill="#CB0083"/>
<path id="Vector_21" d="M33.6995 12.2899V16.0799H29.9095C29.3895 16.6699 28.8095 17.3499 28.2695 18.0299H35.6895V10.6099C34.9895 11.1699 34.3095 11.7599 33.6995 12.2899Z" fill="#CB0083"/>
<path id="Vector_22" d="M31.7402 14.09C31.5802 14.25 30.8202 15.05 29.9102 16.09H33.7002V16.05V12.29C32.6802 13.19 31.9102 13.93 31.7402 14.09Z" fill="#8600D3"/>
<path id="Vector_23" d="M39.6237 31.8308L38.6406 32.8135L39.6233 33.7965L40.6064 32.8138L39.6237 31.8308Z" fill="#501D9A"/>
<path id="Vector_24" d="M23.0204 44.1398C23.0204 42.8498 23.2804 41.4098 23.4504 41.2098C23.5904 41.0498 24.4104 40.8398 25.8104 40.8398C27.3004 40.8398 28.1204 41.0698 28.2604 41.2198C28.4304 41.3998 28.6704 42.8598 28.6804 44.1398L28.7104 46.7498C28.7104 47.1198 28.7104 47.4498 28.6404 47.4998C28.5804 47.5498 28.1504 47.5898 27.7204 47.5898C27.2904 47.5898 26.8804 47.5498 26.8204 47.4998C26.7504 47.4498 26.7304 47.1698 26.7304 46.7498V45.9298C26.7304 45.6598 26.6804 45.4098 26.6704 45.3898C26.6504 45.3698 26.4004 45.3298 26.1404 45.3298H25.5504C25.2904 45.3298 25.0404 45.3598 25.0204 45.3898C25.0004 45.4098 24.9604 45.6698 24.9604 45.9298V46.7498C24.9604 47.1198 24.9404 47.4498 24.8804 47.4998C24.8104 47.5498 24.3904 47.5898 23.9704 47.5898C23.5504 47.5898 23.1304 47.5498 23.0704 47.4998C23.0004 47.4498 22.9904 47.1598 23.0004 46.7498L23.0204 44.1398ZM26.1504 43.8398C26.4104 43.8398 26.6504 43.7898 26.6704 43.7598C26.6904 43.7298 26.7004 43.5898 26.6704 43.2798C26.6404 42.9598 26.5604 42.5298 26.4504 42.4398C26.3804 42.3798 26.2304 42.3198 25.8404 42.3198C25.4504 42.3198 25.3004 42.3798 25.2304 42.4398C25.1204 42.5298 25.0404 42.9698 25.0204 43.2698C24.9904 43.6098 25.0204 43.7398 25.0204 43.7598C25.0404 43.7798 25.2804 43.8398 25.5404 43.8398H26.1204H26.1504Z" fill="#501D9A"/>
<path id="Vector_25" d="M52.66 44.1398C52.67 42.8498 52.92 41.4098 53.09 41.2098C53.23 41.0498 54.05 40.8398 55.45 40.8398C56.94 40.8398 57.76 41.0698 57.9 41.2198C58.07 41.3998 58.31 42.8598 58.32 44.1398L58.35 46.7498C58.35 47.1198 58.35 47.4498 58.28 47.4998C58.22 47.5498 57.79 47.5898 57.36 47.5898C56.93 47.5898 56.52 47.5498 56.46 47.4998C56.39 47.4498 56.37 47.1698 56.37 46.7498V45.9298C56.37 45.6598 56.32 45.4098 56.31 45.3898C56.29 45.3698 56.04 45.3298 55.78 45.3298H55.19C54.93 45.3298 54.68 45.3598 54.66 45.3898C54.64 45.4098 54.6 45.6698 54.6 45.9298V46.7498C54.6 47.1198 54.58 47.4498 54.52 47.4998C54.45 47.5498 54.03 47.5898 53.61 47.5898C53.19 47.5898 52.77 47.5498 52.71 47.4998C52.64 47.4498 52.63 47.1598 52.64 46.7498L52.66 44.1398ZM55.79 43.8398C56.05 43.8398 56.29 43.7898 56.31 43.7598C56.33 43.7298 56.34 43.5898 56.31 43.2798C56.28 42.9598 56.2 42.5298 56.09 42.4398C56.02 42.3798 55.87 42.3198 55.48 42.3198C55.09 42.3198 54.94 42.3798 54.87 42.4398C54.76 42.5298 54.68 42.9698 54.66 43.2698C54.63 43.6098 54.66 43.7398 54.66 43.7598C54.68 43.7798 54.92 43.8398 55.18 43.8398H55.76H55.79Z" fill="#501D9A"/>
<path id="Vector_26" d="M64.8104 44.1398C64.8204 42.8498 65.0704 41.4098 65.2404 41.2098C65.3804 41.0498 66.2004 40.8398 67.6004 40.8398C69.0904 40.8398 69.9104 41.0698 70.0504 41.2198C70.2204 41.3998 70.4604 42.8598 70.4704 44.1398L70.5004 46.7498C70.5004 47.1198 70.5004 47.4498 70.4304 47.4998C70.3704 47.5498 69.9404 47.5898 69.5104 47.5898C69.0804 47.5898 68.6704 47.5498 68.6104 47.4998C68.5404 47.4498 68.5204 47.1698 68.5204 46.7498V45.9298C68.5204 45.6598 68.4704 45.4098 68.4604 45.3898C68.4404 45.3698 68.1904 45.3298 67.9304 45.3298H67.3404C67.0804 45.3298 66.8304 45.3598 66.8104 45.3898C66.7904 45.4098 66.7504 45.6698 66.7504 45.9298V46.7498C66.7504 47.1198 66.7304 47.4498 66.6704 47.4998C66.6004 47.5498 66.1804 47.5898 65.7604 47.5898C65.3404 47.5898 64.9204 47.5498 64.8604 47.4998C64.7904 47.4498 64.7804 47.1598 64.7904 46.7498L64.8104 44.1398ZM67.9404 43.8398C68.2004 43.8398 68.4404 43.7898 68.4604 43.7598C68.4804 43.7298 68.4904 43.5898 68.4604 43.2798C68.4304 42.9598 68.3504 42.5298 68.2404 42.4398C68.1704 42.3798 68.0204 42.3198 67.6304 42.3198C67.2404 42.3198 67.0904 42.3798 67.0204 42.4398C66.9104 42.5298 66.8304 42.9698 66.8104 43.2698C66.7804 43.6098 66.8104 43.7398 66.8104 43.7598C66.8304 43.7798 67.0704 43.8398 67.3304 43.8398H67.9104H67.9404Z" fill="#501D9A"/>
<path id="Vector_27" d="M59.3799 41.6801C59.3799 41.3201 59.3899 40.9901 59.4599 40.9401C59.5299 40.8801 59.9899 40.8501 60.4099 40.8501C60.8599 40.8501 61.2599 40.8901 61.3399 40.9401C61.4199 40.9901 61.4299 41.2701 61.4299 41.6801V45.5201C61.4299 45.6301 61.4499 45.7901 61.4899 45.8301C61.5299 45.8701 61.6999 45.8901 61.8099 45.8901H63.4299C63.6299 45.8901 63.9699 45.8901 63.9999 45.9501C64.0399 46.0001 64.0699 46.4201 64.0699 46.7701C64.0699 47.1201 64.0399 47.4901 63.9999 47.5501C63.9699 47.6001 63.7499 47.6201 63.4299 47.6201H60.3399C59.9999 47.6201 59.6199 47.5501 59.5299 47.4701C59.4399 47.3901 59.3899 47.0001 59.3899 46.6601V41.6901L59.3799 41.6801Z" fill="#501D9A"/>
<path id="Vector_28" d="M51.6298 44.2899C51.6298 43.0199 51.4098 41.4399 51.2398 41.2399C51.0998 41.0699 50.3198 40.8599 48.8198 40.8599C48.0598 40.8599 47.5398 40.9299 47.1998 41.0099C46.7998 40.9199 46.1898 40.8599 45.3698 40.8599C43.8898 40.8599 43.3198 41.1199 43.1998 41.2499C43.0298 41.4399 42.7998 43.0099 42.7998 44.2999V46.7899C42.7998 47.2099 42.7998 47.4699 42.8798 47.5199C42.9498 47.5699 43.2698 47.6099 43.7298 47.6099C44.1898 47.6099 44.5798 47.5699 44.6398 47.5199C44.7098 47.4599 44.7198 47.1599 44.7198 46.7899V44.2599C44.7198 43.4699 44.7498 42.7299 44.8998 42.5599C44.9698 42.4799 45.1198 42.4099 45.4698 42.4099C45.8198 42.4099 46.0098 42.4399 46.0698 42.5499C46.1398 42.6699 46.2398 43.0199 46.2598 43.6899C46.2598 43.8099 46.2598 44.9099 46.2598 45.0199V46.7899C46.2598 47.2099 46.2598 47.4699 46.3398 47.5199C46.4098 47.5699 46.7298 47.6099 47.1898 47.6099H47.2598C47.7098 47.6099 48.0398 47.5799 48.1098 47.5199C48.1798 47.4599 48.1898 47.1999 48.1898 46.7899V45.0199C48.1898 44.8799 48.1898 43.7599 48.1898 43.6099C48.1998 42.9799 48.2398 42.6899 48.3698 42.5599C48.4398 42.4799 48.5898 42.4099 48.9398 42.4099C49.2898 42.4099 49.4798 42.4399 49.5398 42.5499C49.6198 42.6899 49.7398 43.4699 49.7398 44.2599V46.7899C49.7398 47.1799 49.7598 47.4699 49.8198 47.5199C49.8798 47.5699 50.2498 47.6099 50.7298 47.6099C51.1798 47.6099 51.5098 47.5799 51.5798 47.5199C51.6498 47.4599 51.6598 47.1999 51.6598 46.7899V44.2999L51.6298 44.2899Z" fill="#501D9A"/>
<path id="Vector_29" d="M16.0295 41.6801C16.0295 41.2601 16.0295 41.0001 16.1095 40.9401C16.1795 40.8801 16.5095 40.8501 16.9595 40.8501C17.4495 40.8501 17.8195 40.8901 17.8795 40.9401C17.9395 41.0001 17.9595 41.2901 17.9595 41.6801V44.2201C17.9595 45.0201 18.0695 45.8001 18.1595 45.9401C18.2195 46.0501 18.6395 46.0801 19.0095 46.0801C19.5495 46.0801 19.7795 46.0001 19.8395 45.9301C19.9895 45.7601 20.0195 45.0201 20.0195 44.2201V41.6801C20.0195 41.3001 20.0195 41.0001 20.0995 40.9401C20.1595 40.8901 20.5495 40.8501 21.0095 40.8501C21.4695 40.8501 21.7995 40.8901 21.8695 40.9401C21.9395 41.0001 21.9495 41.2601 21.9495 41.6801V44.1801C21.9495 45.4801 21.7195 47.0601 21.5495 47.2501C21.4295 47.3801 20.5895 47.6401 19.0995 47.6401C17.6095 47.6401 16.5595 47.4201 16.4195 47.2501C16.2395 47.0401 16.0195 45.4501 16.0195 44.1701V41.6701L16.0295 41.6801Z" fill="#501D9A"/>
<path id="Vector_30" d="M14.89 43.6501C14.8 43.5401 14.4 43.4401 14.06 43.4401H12.79C12.5 43.4401 12.3 43.4401 12.27 43.5001C12.23 43.5501 12.2 43.8801 12.2 44.2001C12.2 44.5201 12.23 44.8501 12.27 44.9001C12.3 44.9401 12.53 44.9501 12.79 44.9501H12.87C13.08 44.9501 13.2 44.9801 13.23 45.0201C13.25 45.0401 13.25 45.1401 13.24 45.2601C13.2 45.5701 13.16 45.8201 13.11 45.8901C13.05 45.9901 12.47 46.0301 12.07 46.0301C11.63 46.0301 10.93 45.9901 10.87 45.8901C10.78 45.7501 10.67 44.7701 10.67 44.2101C10.67 43.6501 10.78 42.7001 10.88 42.5601C10.95 42.4701 11.57 42.3901 12.09 42.3901C12.86 42.3901 14.06 42.6401 14.16 42.6401C14.33 42.6401 14.43 42.2501 14.5 41.9101C14.57 41.6201 14.63 41.2201 14.59 41.1601C14.53 41.0601 13.06 40.8301 11.96 40.8301C10.48 40.8301 9.26996 41.0501 9.11996 41.2101C8.94996 41.4001 8.70996 42.9101 8.70996 44.1901C8.70996 45.4701 8.93996 47.0401 9.10996 47.2501C9.24996 47.4201 10.49 47.6401 11.91 47.6401H11.96C13.21 47.6401 14.23 47.4701 14.51 47.3201C14.59 47.2901 14.63 47.2601 14.64 47.2401C14.73 47.0501 14.92 45.8001 14.97 44.7501C15.01 43.9601 14.97 43.7601 14.87 43.6501" fill="#501D9A"/>
<path id="Vector_31" d="M35.0899 40.8501C35.3499 40.8501 35.5799 40.8501 35.6099 40.9001C35.6499 40.9401 35.6799 41.3901 35.6799 41.6701C35.6799 41.9501 35.6499 42.3701 35.6099 42.4201C35.5799 42.4701 33.8399 42.5701 33.6899 42.6001C33.5399 42.6301 33.5299 42.7301 33.5299 42.9301C33.5299 43.1301 33.5299 46.7701 33.5299 46.7701C33.5299 47.1401 33.5199 47.4601 33.4499 47.5101C33.3899 47.5601 33.0799 47.6001 32.5299 47.6001C31.9799 47.6001 31.6699 47.5601 31.6099 47.5101C31.5499 47.4601 31.5299 47.1501 31.5299 46.7701V42.9301C31.5299 42.7401 31.5099 42.6301 31.3699 42.6001C31.2199 42.5701 29.4899 42.4701 29.4499 42.4201C29.4099 42.3701 29.3799 41.9601 29.3799 41.6701C29.3799 41.3801 29.4099 40.9401 29.4499 40.9001C29.4799 40.8601 29.7099 40.8501 29.9699 40.8501H35.0799H35.0899Z" fill="#501D9A"/>
<path id="Vector_32" d="M40.4004 42.4601H38.6404C38.5504 42.4601 38.4704 42.5001 38.4404 42.6201C38.4104 42.7401 38.3504 43.2201 38.3604 43.3601C38.3604 43.3901 38.3604 43.4001 38.3804 43.4301C38.4004 43.4601 38.4504 43.4601 38.4904 43.4601C39.0804 43.4601 39.7504 43.4601 39.7504 43.4601H40.3204C40.5704 43.4601 40.7604 43.4601 40.7904 43.5101C40.8304 43.5501 40.8704 43.9601 40.8704 44.2301C40.8704 44.5001 40.8204 44.8801 40.7904 44.9201C40.7604 44.9701 40.6004 44.9801 40.3204 44.9801H40.2604C39.6704 44.9801 39.0804 44.9801 38.4904 44.9801C38.4504 44.9801 38.4004 44.9801 38.3804 45.0101C38.3604 45.0401 38.3604 45.0601 38.3604 45.0801C38.3504 45.2201 38.4204 45.7301 38.4504 45.8401C38.4804 45.9601 38.5504 46.0001 38.6504 46.0001H41.2104C41.5904 46.0001 41.7804 46.0201 41.8504 46.0701C41.8904 46.1001 41.9604 46.4001 41.9604 46.8101C41.9604 47.2201 41.8704 47.5201 41.8504 47.5501C41.8204 47.5801 41.5904 47.6101 41.2104 47.6101H37.8504C37.5204 47.6101 36.9704 47.5101 36.8004 47.3201C36.6304 47.1301 36.4004 45.4801 36.4004 44.1901C36.4004 42.9001 36.6304 41.3601 36.8104 41.1401C36.9904 40.9301 37.2404 40.8501 37.5804 40.8501H41.2204C41.5204 40.8501 41.7904 40.8701 41.8604 40.9201C41.9004 40.9501 41.9704 41.2601 41.9704 41.6601C41.9704 42.0601 41.8804 42.3701 41.8604 42.4001C41.8304 42.4301 41.6004 42.4601 41.2204 42.4601H40.4204H40.4004Z" fill="#501D9A"/>
<path id="Vector_33" d="M15.8799 49.73H16.4599L17.6799 52.68H16.9899L16.7899 52.18H15.5599L15.3599 52.68H14.6699L15.8899 49.73H15.8799ZM16.5999 51.66L16.1699 50.59L15.7399 51.66H16.5999Z" fill="#EF509C"/>
<path id="Vector_34" d="M18.1803 51.97C18.2903 52.11 18.5103 52.2 18.7603 52.2C18.9803 52.2 19.0803 52.13 19.0803 52.03C19.0803 51.89 18.7903 51.87 18.4603 51.76C18.1603 51.66 17.9703 51.49 17.9703 51.17C17.9703 50.71 18.3703 50.48 18.8003 50.48C19.1803 50.48 19.4303 50.61 19.5903 50.76L19.2903 51.18C19.2003 51.1 19.0403 51.02 18.7903 51.02C18.6503 51.02 18.5803 51.08 18.5803 51.16C18.5803 51.3 18.7503 51.28 19.1603 51.42C19.5503 51.55 19.6903 51.75 19.6903 52.03C19.6903 52.44 19.4003 52.75 18.7503 52.75C18.2703 52.75 17.9803 52.57 17.8203 52.37L18.1803 51.98V51.97Z" fill="#EF509C"/>
<path id="Vector_35" d="M21.15 50.48C21.81 50.48 22.34 50.98 22.34 51.61C22.34 52.24 21.81 52.74 21.15 52.74C20.49 52.74 19.96 52.24 19.96 51.61C19.96 50.98 20.48 50.48 21.15 50.48ZM21.15 52.17C21.46 52.17 21.7 51.92 21.7 51.61C21.7 51.3 21.45 51.05 21.15 51.05C20.85 51.05 20.6 51.3 20.6 51.61C20.6 51.92 20.84 52.17 21.15 52.17Z" fill="#EF509C"/>
<path id="Vector_36" d="M22.7502 50.5498H23.3802V50.8198C23.4602 50.6298 23.6702 50.5098 23.9302 50.5098C24.2202 50.5098 24.4102 50.6298 24.5102 50.8498C24.6502 50.5798 24.9202 50.5098 25.2102 50.5098C25.6902 50.5098 25.9602 50.8398 25.9602 51.3998V51.9398C25.9602 52.0998 25.9902 52.1598 26.1002 52.1598C26.1302 52.1598 26.1602 52.1598 26.1602 52.1598V52.6898C26.1602 52.6898 26.0502 52.7198 25.8902 52.7198C25.5602 52.7198 25.3302 52.5598 25.3302 52.1098V51.4698C25.3302 51.2198 25.2202 51.0698 25.0202 51.0698C24.8202 51.0698 24.6702 51.2398 24.6702 51.4898V52.6898H24.0402V51.4698C24.0402 51.2198 23.9302 51.0698 23.7202 51.0698C23.5102 51.0698 23.3702 51.2398 23.3702 51.4898V52.6898H22.7402V50.5598L22.7502 50.5498Z" fill="#EF509C"/>
<path id="Vector_37" d="M26.5498 49.73H27.1798V50.83C27.2398 50.64 27.4898 50.51 27.8198 50.51C28.4298 50.51 28.8798 51 28.8798 51.62C28.8798 52.24 28.4298 52.72 27.8198 52.72C27.4898 52.72 27.2398 52.58 27.1798 52.4V52.68H26.5498V49.73ZM27.6998 52.15C27.9998 52.15 28.2398 51.92 28.2398 51.62C28.2398 51.32 27.9998 51.09 27.6998 51.09C27.3998 51.09 27.1398 51.32 27.1398 51.62C27.1398 51.92 27.3898 52.15 27.6998 52.15Z" fill="#EF509C"/>
<path id="Vector_38" d="M29.29 50.55H29.92V50.84C30.02 50.62 30.25 50.5 30.54 50.5C30.6 50.5 30.67 50.5 30.71 50.51V51.1C30.65 51.09 30.58 51.08 30.5 51.08C30.14 51.08 29.93 51.29 29.93 51.63V52.67H29.3V50.54L29.29 50.55Z" fill="#EF509C"/>
<path id="Vector_39" d="M32.0904 50.48C32.7504 50.48 33.2804 50.98 33.2804 51.61C33.2804 52.24 32.7504 52.74 32.0904 52.74C31.4304 52.74 30.9004 52.24 30.9004 51.61C30.9004 50.98 31.4204 50.48 32.0904 50.48ZM32.0904 52.17C32.4004 52.17 32.6404 51.92 32.6404 51.61C32.6404 51.3 32.3904 51.05 32.0904 51.05C31.7904 51.05 31.5404 51.3 31.5404 51.61C31.5404 51.92 31.7804 52.17 32.0904 52.17Z" fill="#EF509C"/>
<path id="Vector_40" d="M33.8297 51.97C33.9397 52.11 34.1597 52.2 34.4097 52.2C34.6297 52.2 34.7297 52.13 34.7297 52.03C34.7297 51.89 34.4397 51.87 34.1097 51.76C33.8097 51.66 33.6197 51.49 33.6197 51.17C33.6197 50.71 34.0197 50.48 34.4497 50.48C34.8297 50.48 35.0797 50.61 35.2397 50.76L34.9397 51.18C34.8497 51.1 34.6897 51.02 34.4397 51.02C34.2997 51.02 34.2297 51.08 34.2297 51.16C34.2297 51.3 34.3997 51.28 34.8097 51.42C35.1997 51.55 35.3397 51.75 35.3397 52.03C35.3397 52.44 35.0497 52.75 34.3997 52.75C33.9197 52.75 33.6297 52.57 33.4697 52.37L33.8297 51.98V51.97Z" fill="#EF509C"/>
<path id="Vector_41" d="M36.6896 50.5098C37.0196 50.5098 37.2697 50.6398 37.3297 50.8298V50.5498H37.9596V51.9298C37.9596 52.0998 38.0096 52.1698 38.1196 52.1698C38.1496 52.1698 38.1996 52.1698 38.2296 52.1698V52.6998C38.1696 52.7198 38.0496 52.7298 37.9496 52.7298C37.8396 52.7298 37.7096 52.7098 37.5996 52.6498C37.5296 52.6098 37.4496 52.5398 37.4096 52.4198C37.2896 52.5998 37.0796 52.7298 36.6996 52.7298C36.0896 52.7298 35.6396 52.2398 35.6396 51.6198C35.6396 50.9998 36.0896 50.5098 36.6996 50.5098M36.8097 52.1498C37.1197 52.1498 37.3696 51.9198 37.3696 51.6198C37.3696 51.3198 37.1197 51.0898 36.8097 51.0898C36.4997 51.0898 36.2696 51.3198 36.2696 51.6198C36.2696 51.9198 36.5097 52.1498 36.8097 52.1498Z" fill="#EF509C"/>
<path id="Vector_42" d="M39.6104 51.6102C39.6104 50.9302 40.1004 50.4902 40.7704 50.4902C41.4404 50.4902 41.8703 50.9702 41.8703 51.5702C41.8703 51.5702 41.8703 51.6802 41.8703 51.7702H40.2603C40.2703 52.0202 40.4904 52.1902 40.8304 52.1902C41.0504 52.1902 41.2003 52.1202 41.3503 51.9802L41.7204 52.3302C41.4404 52.6202 41.1304 52.7202 40.8004 52.7202C40.1104 52.7202 39.6304 52.2802 39.6304 51.6202V51.6002L39.6104 51.6102ZM41.2304 51.3702C41.2304 51.1802 41.0204 51.0102 40.7704 51.0102C40.4904 51.0102 40.2704 51.1702 40.2504 51.3702H41.2304Z" fill="#EF509C"/>
<path id="Vector_43" d="M43.1201 50.0099C43.1201 49.8099 43.2901 49.6499 43.4801 49.6499C43.6701 49.6499 43.8401 49.8099 43.8401 50.0099C43.8401 50.2099 43.6801 50.3699 43.4801 50.3699C43.2801 50.3699 43.1201 50.2099 43.1201 50.0099ZM43.1701 50.5499H43.8001V51.9299C43.8001 52.0799 43.8301 52.1499 43.9401 52.1499C43.9701 52.1499 44.0101 52.1499 44.0201 52.1499V52.6899C44.0201 52.6899 43.9001 52.7199 43.7301 52.7199C43.3901 52.7199 43.1701 52.5599 43.1701 52.1199V50.5499Z" fill="#EF509C"/>
<path id="Vector_44" d="M44.3899 50.5498H45.0199V50.8198C45.0999 50.6298 45.3099 50.5098 45.5699 50.5098C45.8599 50.5098 46.0499 50.6298 46.1499 50.8498C46.2899 50.5798 46.5599 50.5098 46.8499 50.5098C47.3299 50.5098 47.5999 50.8398 47.5999 51.3998V51.9398C47.5999 52.0998 47.6299 52.1598 47.7399 52.1598C47.7699 52.1598 47.7999 52.1598 47.7999 52.1598V52.6898C47.7999 52.6898 47.6899 52.7198 47.5299 52.7198C47.1999 52.7198 46.9699 52.5598 46.9699 52.1098V51.4698C46.9699 51.2198 46.8599 51.0698 46.6599 51.0698C46.4599 51.0698 46.3099 51.2398 46.3099 51.4898V52.6898H45.6799V51.4698C45.6799 51.2198 45.5699 51.0698 45.3599 51.0698C45.1499 51.0698 45.0099 51.2398 45.0099 51.4898V52.6898H44.3799V50.5598L44.3899 50.5498Z" fill="#EF509C"/>
<path id="Vector_45" d="M48.1904 50.5498H48.8204V50.8298C48.8804 50.6498 49.1304 50.5098 49.4604 50.5098C50.0704 50.5098 50.5204 50.9998 50.5204 51.6198C50.5204 52.2398 50.0704 52.7198 49.4604 52.7198C49.1304 52.7198 48.8804 52.5898 48.8204 52.3998V53.4998H48.1904V50.5498ZM49.3404 52.1498C49.6404 52.1498 49.8804 51.9198 49.8804 51.6198C49.8804 51.3198 49.6404 51.0898 49.3404 51.0898C49.0404 51.0898 48.7804 51.3198 48.7804 51.6198C48.7804 51.9198 49.0304 52.1498 49.3404 52.1498Z" fill="#EF509C"/>
<path id="Vector_46" d="M51.8898 50.5098C52.2198 50.5098 52.4698 50.6398 52.5298 50.8298V50.5498H53.1598V51.9298C53.1598 52.0998 53.2098 52.1698 53.3198 52.1698C53.3498 52.1698 53.3998 52.1698 53.4298 52.1698V52.6998C53.3698 52.7198 53.2498 52.7298 53.1498 52.7298C53.0398 52.7298 52.9098 52.7098 52.7998 52.6498C52.7298 52.6098 52.6498 52.5398 52.6098 52.4198C52.4898 52.5998 52.2798 52.7298 51.8998 52.7298C51.2898 52.7298 50.8398 52.2398 50.8398 51.6198C50.8398 50.9998 51.2898 50.5098 51.8998 50.5098M52.0098 52.1498C52.3198 52.1498 52.5698 51.9198 52.5698 51.6198C52.5698 51.3198 52.3198 51.0898 52.0098 51.0898C51.6998 51.0898 51.4698 51.3198 51.4698 51.6198C51.4698 51.9198 51.7098 52.1498 52.0098 52.1498Z" fill="#EF509C"/>
<path id="Vector_47" d="M53.7803 50.55H54.4103V50.84C54.5103 50.62 54.7403 50.5 55.0303 50.5C55.0903 50.5 55.1603 50.5 55.2003 50.51V51.1C55.1403 51.09 55.0703 51.08 54.9903 51.08C54.6303 51.08 54.4203 51.29 54.4203 51.63V52.67H53.7903V50.54L53.7803 50.55Z" fill="#EF509C"/>
<path id="Vector_48" d="M56.4504 50.5098C56.7804 50.5098 57.0304 50.6398 57.0904 50.8298V50.5498H57.7204V51.9298C57.7204 52.0998 57.7704 52.1698 57.8804 52.1698C57.9104 52.1698 57.9604 52.1698 57.9904 52.1698V52.6998C57.9304 52.7198 57.8104 52.7298 57.7104 52.7298C57.6004 52.7298 57.4704 52.7098 57.3604 52.6498C57.2904 52.6098 57.2104 52.5398 57.1704 52.4198C57.0504 52.5998 56.8404 52.7298 56.4604 52.7298C55.8504 52.7298 55.4004 52.2398 55.4004 51.6198C55.4004 50.9998 55.8504 50.5098 56.4604 50.5098M56.5704 52.1498C56.8804 52.1498 57.1304 51.9198 57.1304 51.6198C57.1304 51.3198 56.8804 51.0898 56.5704 51.0898C56.2604 51.0898 56.0304 51.3198 56.0304 51.6198C56.0304 51.9198 56.2704 52.1498 56.5704 52.1498Z" fill="#EF509C"/>
<path id="Vector_49" d="M58.3496 49.73H58.9796V50.83C59.0396 50.64 59.2896 50.51 59.6196 50.51C60.2296 50.51 60.6796 51 60.6796 51.62C60.6796 52.24 60.2296 52.72 59.6196 52.72C59.2896 52.72 59.0396 52.58 58.9796 52.4V52.68H58.3496V49.73ZM59.4996 52.15C59.7996 52.15 60.0396 51.92 60.0396 51.62C60.0396 51.32 59.7996 51.09 59.4996 51.09C59.1996 51.09 58.9396 51.32 58.9396 51.62C58.9396 51.92 59.1896 52.15 59.4996 52.15Z" fill="#EF509C"/>
<path id="Vector_50" d="M61.0703 49.73H61.7003V51.89C61.7003 52.08 61.7703 52.17 61.9503 52.17C62.0003 52.17 62.0603 52.17 62.1003 52.15V52.71C62.0403 52.73 61.9103 52.74 61.8003 52.74C61.5003 52.74 61.0703 52.65 61.0703 51.99V49.73Z" fill="#EF509C"/>
<path id="Vector_51" d="M62.3203 51.6102C62.3203 50.9302 62.8103 50.4902 63.4803 50.4902C64.1503 50.4902 64.5803 50.9702 64.5803 51.5702C64.5803 51.5702 64.5803 51.6802 64.5803 51.7702H62.9703C62.9803 52.0202 63.2003 52.1902 63.5403 52.1902C63.7603 52.1902 63.9103 52.1202 64.0603 51.9802L64.4303 52.3302C64.1503 52.6202 63.8403 52.7202 63.5103 52.7202C62.8203 52.7202 62.3403 52.2802 62.3403 51.6202V51.6002L62.3203 51.6102ZM63.9403 51.3702C63.9403 51.1802 63.7303 51.0102 63.4803 51.0102C63.2003 51.0102 62.9803 51.1702 62.9603 51.3702H63.9403Z" fill="#EF509C"/>
</g>
<defs>
<clipPath id="clip0_56_504">
<rect width="79.24" height="63.39" fill="white"/>
</clipPath>
</defs>
</svg>
