<svg width="1920" height="145" viewBox="0 0 1920 145" fill="none" xmlns="http://www.w3.org/2000/svg">
<g clip-path="url(#clip0_17_2891)">
<path d="M-4.00001 -4.57764e-05L-4 144.21L591.28 144.21L591.28 -7.17969e-05L-4.00001 -4.57764e-05Z" fill="#CC0082"/>
<path d="M567.64 -0.000167847L567.64 99.8398L591.27 99.8398L591.27 -0.00016888L567.64 -0.000167847Z" fill="#4F1C99"/>
<path d="M567.64 49.8898L567.64 99.8398L591.27 99.8398L591.27 49.8898L567.64 49.8898Z" fill="#CC0082"/>
<path d="M567.64 49.8899L591.28 26.2499L591.28 -0.000115474L567.64 -0.000114441L567.64 49.8899Z" fill="#CC0082"/>
<path d="M591.28 73.51L591.28 26.26L567.65 49.89L591.28 73.51Z" fill="#4F1C99"/>
<path d="M582.28 49.8899L582.27 49.8899L582.28 49.8899L591.28 58.8899L591.28 40.8899L582.28 49.8899L582.27 49.8899L582.28 49.8899Z" fill="#CC0082"/>
<path d="M467.62 -0.000167847L467.62 99.8398L567.52 99.8398L567.52 -0.000172213L467.62 -0.000167847Z" fill="#4F1C99"/>
<path d="M467.62 49.8898L467.62 99.8398L517.57 99.8398L517.57 49.8898L467.62 49.8898Z" fill="#4F1C99"/>
<path d="M517.58 -0.000114441L517.58 49.8899L567.53 49.8899L567.53 -0.000116624L517.58 -0.000114441Z" fill="#4F1C99"/>
<path d="M567.53 49.8898L567.53 99.8398L517.58 99.8398L567.53 49.8898Z" fill="#4F1C99"/>
<path d="M467.62 49.8899L517.51 -0.000116622L467.62 -0.000114441L467.62 49.8899Z" fill="#4F1C99"/>
<path d="M517.58 99.8398L567.53 49.8898L517.64 -0.000170033L517.52 -0.000170027L467.63 49.8898L517.58 99.8398Z" fill="#8700D4"/>
<path d="M482.26 49.89L517.58 85.21L552.9 49.89L517.58 14.57L482.26 49.89Z" fill="#CC0082"/>
<path d="M367.61 -0.000167847L367.61 99.8398L467.51 99.8398L467.51 -0.000172213L367.61 -0.000167847Z" fill="#4F1C99"/>
<path d="M367.61 49.8898L367.61 99.8398L417.56 99.8398L417.56 49.8898L367.61 49.8898Z" fill="#8700D4"/>
<path d="M417.56 -0.000114441L417.56 49.8899L467.51 49.8899L467.51 -0.000116624L417.56 -0.000114441Z" fill="#8700D4"/>
<path d="M467.51 49.8898L467.51 99.8398L417.56 99.8398L467.51 49.8898Z" fill="#8700D4"/>
<path d="M367.61 49.8899L417.5 -0.000116622L367.61 -0.000114441L367.61 49.8899Z" fill="#8700D4"/>
<path d="M417.56 99.8398L467.51 49.8898L417.62 -0.000170033L417.5 -0.000170027L367.61 49.8898L417.56 99.8398Z" fill="#CC0082"/>
<path d="M382.24 49.89L417.56 85.21L452.88 49.89L417.56 14.57L382.24 49.89Z" fill="#4F1C99"/>
<path d="M267.66 -0.000167847L267.66 99.8398L367.56 99.8398L367.56 -0.000172213L267.66 -0.000167847Z" fill="#4F1C99"/>
<path d="M317.61 99.8398L367.56 49.8898L317.67 -0.000170032L317.55 -0.000170027L267.67 49.8898L317.61 99.8398Z" fill="#CC0082"/>
<path d="M282.29 49.89L282.3 49.89L317.61 85.21L352.94 49.89L317.61 14.57L282.3 49.89L282.29 49.89Z" fill="#8700D4"/>
<path d="M-4 -0.000167847L-4 99.8398L67.56 99.8398L67.56 -0.000170975L-4 -0.000167847Z" fill="#4F1C99"/>
<path d="M17.6099 49.8898L17.6099 99.8398L67.5599 99.8398L67.5599 49.8898L17.6099 49.8898Z" fill="#4F1C99"/>
<path d="M-4 -0.000114441L-4 49.8899L17.61 49.8899L17.61 -0.000115386L-4 -0.000114441Z" fill="#4F1C99"/>
<path d="M-4 99.8398L17.61 99.8398L-4 78.2298L-4 99.8398Z" fill="#4F1C99"/>
<path d="M67.5599 49.8899L67.5599 -0.000116622L17.6699 -0.000114441L67.5599 49.8899Z" fill="#4F1C99"/>
<path d="M-4 78.2298L17.61 99.8398L67.55 49.8898L17.67 -0.000168794L17.54 -0.000168788L-4 21.5398L-4 78.2298Z" fill="#8700D4"/>
<path d="M-4 63.6L17.61 85.21L52.92 49.89L52.93 49.89L52.92 49.89L52.93 49.89L52.92 49.89L17.61 14.57L-4 36.17L-4 63.6Z" fill="#CC0082"/>
<path d="M67.6699 -0.000167847L67.6699 99.8398L167.57 99.8398L167.57 -0.000172213L67.6699 -0.000167847Z" fill="#4F1C99"/>
<path d="M117.62 49.8898L117.62 99.8398L167.57 99.8398L167.57 49.8898L117.62 49.8898Z" fill="#8700D4"/>
<path d="M67.6699 -0.000114441L67.6699 49.8899L117.62 49.8899L117.62 -0.000116624L67.6699 -0.000114441Z" fill="#8700D4"/>
<path d="M67.6699 49.8898L67.6699 99.8398L117.62 99.8398L67.6699 49.8898Z" fill="#8700D4"/>
<path d="M167.57 49.8899L167.58 -0.000116622L117.69 -0.000114441L167.57 49.8899Z" fill="#8700D4"/>
<path d="M117.62 99.8398L167.57 49.8898L117.68 -0.000170033L117.56 -0.000170027L67.6699 49.8898L117.62 99.8398Z" fill="#CC0082"/>
<path d="M152.94 49.89L117.62 85.21L82.2998 49.89L117.62 14.57L152.94 49.89Z" fill="#4F1C99"/>
<path d="M167.64 -0.000167847L167.64 99.8398L267.54 99.8398L267.54 -0.000172213L167.64 -0.000167847Z" fill="#4F1C99"/>
<path d="M217.59 49.8898L217.59 99.8398L267.54 99.8398L267.54 49.8898L217.59 49.8898Z" fill="#CC0082"/>
<path d="M167.64 -0.000114441L167.64 49.8899L217.59 49.8899L217.59 -0.000116624L167.64 -0.000114441Z" fill="#CC0082"/>
<path d="M167.64 49.8898L167.64 99.8398L217.59 99.8398L167.64 49.8898Z" fill="#CC0082"/>
<path d="M267.55 49.8899L267.55 -0.000116622L217.66 -0.000114441L267.55 49.8899Z" fill="#CC0082"/>
<path d="M217.59 99.8398L267.54 49.8898L217.65 -0.000170033L217.53 -0.000170027L167.64 49.8898L217.59 99.8398Z" fill="#4F1C99"/>
<path d="M252.91 49.89L217.59 85.21L182.27 49.89L217.59 14.57L252.91 49.89Z" fill="#CC0082"/>
</g>
<path d="M968 7.62939e-05L968 99.8401L991.63 99.8401L991.63 7.5261e-05L968 7.62939e-05Z" fill="#4F1C99"/>
<path d="M968 49.8901L968 99.8401L991.63 99.8401L991.63 49.8901L968 49.8901Z" fill="#CC0082"/>
<path d="M968 49.8901L991.64 26.2501L991.64 0.000128666L968 0.0001297L968 49.8901Z" fill="#CC0082"/>
<path d="M991.64 73.51L991.64 26.26L968.01 49.89L991.64 73.51Z" fill="#4F1C99"/>
<path d="M982.64 49.8901L982.63 49.8901L982.64 49.8901L991.64 58.8901L991.64 40.8901L982.64 49.8901L982.63 49.8901L982.64 49.8901Z" fill="#CC0082"/>
<path d="M867.98 7.62939e-05L867.98 99.8401L967.88 99.8401L967.88 7.19272e-05L867.98 7.62939e-05Z" fill="#4F1C99"/>
<path d="M867.98 49.8901L867.98 99.8401L917.93 99.8401L917.93 49.8901L867.98 49.8901Z" fill="#4F1C99"/>
<path d="M917.94 0.0001297L917.94 49.8901L967.89 49.8901L967.89 0.000127516L917.94 0.0001297Z" fill="#4F1C99"/>
<path d="M967.89 49.8901L967.89 99.8401L917.94 99.8401L967.89 49.8901Z" fill="#4F1C99"/>
<path d="M867.98 49.8901L917.87 0.000127519L867.98 0.0001297L867.98 49.8901Z" fill="#4F1C99"/>
<path d="M917.94 99.8401L967.89 49.8901L918 7.41079e-05L917.88 7.41132e-05L867.99 49.8901L917.94 99.8401Z" fill="#8700D4"/>
<path d="M882.62 49.8902L917.94 85.2102L953.26 49.8902L917.94 14.5702L882.62 49.8902Z" fill="#CC0082"/>
<path d="M767.97 7.62939e-05L767.97 99.8401L867.87 99.8401L867.87 7.19272e-05L767.97 7.62939e-05Z" fill="#4F1C99"/>
<path d="M767.97 49.8901L767.97 99.8401L817.92 99.8401L817.92 49.8901L767.97 49.8901Z" fill="#8700D4"/>
<path d="M817.92 0.0001297L817.92 49.8901L867.87 49.8901L867.87 0.000127516L817.92 0.0001297Z" fill="#8700D4"/>
<path d="M867.87 49.8901L867.87 99.8401L817.92 99.8401L867.87 49.8901Z" fill="#8700D4"/>
<path d="M767.97 49.8901L817.86 0.000127519L767.97 0.0001297L767.97 49.8901Z" fill="#8700D4"/>
<path d="M817.92 99.8401L867.87 49.8901L817.98 7.41079e-05L817.86 7.41132e-05L767.97 49.8901L817.92 99.8401Z" fill="#CC0082"/>
<path d="M782.6 49.8902L817.92 85.2102L853.24 49.8902L817.92 14.5702L782.6 49.8902Z" fill="#4F1C99"/>
<path d="M668.02 7.62939e-05L668.02 99.8401L767.92 99.8401L767.92 7.19272e-05L668.02 7.62939e-05Z" fill="#4F1C99"/>
<path d="M717.97 99.8401L767.92 49.8901L718.03 7.41084e-05L717.91 7.41136e-05L668.03 49.8901L717.97 99.8401Z" fill="#CC0082"/>
<path d="M682.65 49.8902L682.66 49.8902L717.97 85.2102L753.3 49.8902L717.97 14.5702L682.66 49.8902L682.65 49.8902Z" fill="#8700D4"/>
<path d="M568 7.62939e-05L568 99.8401L667.9 99.8401L667.9 7.19272e-05L568 7.62939e-05Z" fill="#4F1C99"/>
<path d="M617.95 49.8901L617.95 99.8401L667.9 99.8401L667.9 49.8901L617.95 49.8901Z" fill="#CC0082"/>
<path d="M568 0.00037384L568 49.8904L617.95 49.8904L617.95 0.000371657L568 0.00037384Z" fill="#CC0082"/>
<path d="M568 49.8901L568 99.8401L617.95 99.8401L568 49.8901Z" fill="#CC0082"/>
<path d="M667.91 49.8901L667.91 0.000127519L618.02 0.0001297L667.91 49.8901Z" fill="#CC0082"/>
<path d="M617.95 99.8401L667.9 49.8901L618.01 7.41079e-05L617.89 7.41132e-05L568 49.8901L617.95 99.8401Z" fill="#4F1C99"/>
<path d="M653.27 49.8902L617.95 85.2102L582.63 49.8902L617.95 14.5702L653.27 49.8902Z" fill="#CC0082"/>
<path d="M1370 7.62939e-05L1370 99.8401L1393.63 99.8401L1393.63 7.5261e-05L1370 7.62939e-05Z" fill="#4F1C99"/>
<path d="M1370 49.8901L1370 99.8401L1393.63 99.8401L1393.63 49.8901L1370 49.8901Z" fill="#CC0082"/>
<path d="M1370 49.8901L1393.64 26.2501L1393.64 0.000128666L1370 0.0001297L1370 49.8901Z" fill="#CC0082"/>
<path d="M1393.64 73.51L1393.64 26.26L1370.01 49.89L1393.64 73.51Z" fill="#4F1C99"/>
<path d="M1384.64 49.8901L1384.63 49.8901L1384.64 49.8901L1393.64 58.8901L1393.64 40.8901L1384.64 49.8901L1384.63 49.8901L1384.64 49.8901Z" fill="#CC0082"/>
<path d="M1269.98 7.62939e-05L1269.98 99.8401L1369.88 99.8401L1369.88 7.19272e-05L1269.98 7.62939e-05Z" fill="#4F1C99"/>
<path d="M1269.98 49.8901L1269.98 99.8401L1319.93 99.8401L1319.93 49.8901L1269.98 49.8901Z" fill="#4F1C99"/>
<path d="M1319.94 0.0001297L1319.94 49.8901L1369.89 49.8901L1369.89 0.000127516L1319.94 0.0001297Z" fill="#4F1C99"/>
<path d="M1369.89 49.8901L1369.89 99.8401L1319.94 99.8401L1369.89 49.8901Z" fill="#4F1C99"/>
<path d="M1269.98 49.8901L1319.87 0.000127519L1269.98 0.0001297L1269.98 49.8901Z" fill="#4F1C99"/>
<path d="M1319.94 99.8401L1369.89 49.8901L1320 7.41079e-05L1319.88 7.41132e-05L1269.99 49.8901L1319.94 99.8401Z" fill="#8700D4"/>
<path d="M1284.62 49.8902L1319.94 85.2102L1355.26 49.8902L1319.94 14.5702L1284.62 49.8902Z" fill="#CC0082"/>
<path d="M1169.97 7.62939e-05L1169.97 99.8401L1269.87 99.8401L1269.87 7.19272e-05L1169.97 7.62939e-05Z" fill="#4F1C99"/>
<path d="M1169.97 49.8901L1169.97 99.8401L1219.92 99.8401L1219.92 49.8901L1169.97 49.8901Z" fill="#8700D4"/>
<path d="M1219.92 0.0001297L1219.92 49.8901L1269.87 49.8901L1269.87 0.000127516L1219.92 0.0001297Z" fill="#8700D4"/>
<path d="M1269.87 49.8901L1269.87 99.8401L1219.92 99.8401L1269.87 49.8901Z" fill="#8700D4"/>
<path d="M1169.97 49.8901L1219.86 0.000127519L1169.97 0.0001297L1169.97 49.8901Z" fill="#8700D4"/>
<path d="M1219.92 99.8401L1269.87 49.8901L1219.98 7.41079e-05L1219.86 7.41132e-05L1169.97 49.8901L1219.92 99.8401Z" fill="#CC0082"/>
<path d="M1184.6 49.8902L1219.92 85.2102L1255.24 49.8902L1219.92 14.5702L1184.6 49.8902Z" fill="#4F1C99"/>
<path d="M1070.02 7.62939e-05L1070.02 99.8401L1169.92 99.8401L1169.92 7.19272e-05L1070.02 7.62939e-05Z" fill="#4F1C99"/>
<path d="M1119.97 99.8401L1169.92 49.8901L1120.03 7.41084e-05L1119.91 7.41136e-05L1070.03 49.8901L1119.97 99.8401Z" fill="#CC0082"/>
<path d="M1084.65 49.8902L1084.66 49.8902L1119.97 85.2102L1155.3 49.8902L1119.97 14.5702L1084.66 49.8902L1084.65 49.8902Z" fill="#8700D4"/>
<path d="M970 7.62939e-05L970 99.8401L1069.9 99.8401L1069.9 7.19272e-05L970 7.62939e-05Z" fill="#4F1C99"/>
<path d="M1019.95 49.8901L1019.95 99.8401L1069.9 99.8401L1069.9 49.8901L1019.95 49.8901Z" fill="#CC0082"/>
<path d="M970 0.00037384L970 49.8904L1019.95 49.8904L1019.95 0.000371657L970 0.00037384Z" fill="#CC0082"/>
<path d="M970 49.8901L970 99.8401L1019.95 99.8401L970 49.8901Z" fill="#CC0082"/>
<path d="M1069.91 49.8901L1069.91 0.000127519L1020.02 0.0001297L1069.91 49.8901Z" fill="#CC0082"/>
<path d="M1019.95 99.8401L1069.9 49.8901L1020.01 7.41079e-05L1019.89 7.41132e-05L970 49.8901L1019.95 99.8401Z" fill="#4F1C99"/>
<path d="M1055.27 49.8902L1019.95 85.2102L984.63 49.8902L1019.95 14.5702L1055.27 49.8902Z" fill="#CC0082"/>
<path d="M1771 7.62939e-05L1771 99.8401L1794.63 99.8401L1794.63 7.5261e-05L1771 7.62939e-05Z" fill="#4F1C99"/>
<path d="M1771 49.8901L1771 99.8401L1794.63 99.8401L1794.63 49.8901L1771 49.8901Z" fill="#CC0082"/>
<path d="M1771 49.8901L1794.64 26.2501L1794.64 0.000128666L1771 0.0001297L1771 49.8901Z" fill="#CC0082"/>
<path d="M1794.64 73.51L1794.64 26.26L1771.01 49.89L1794.64 73.51Z" fill="#4F1C99"/>
<path d="M1785.64 49.8901L1785.63 49.8901L1785.64 49.8901L1794.64 58.8901L1794.64 40.8901L1785.64 49.8901L1785.63 49.8901L1785.64 49.8901Z" fill="#CC0082"/>
<path d="M1670.98 7.62939e-05L1670.98 99.8401L1770.88 99.8401L1770.88 7.19272e-05L1670.98 7.62939e-05Z" fill="#4F1C99"/>
<path d="M1670.98 49.8901L1670.98 99.8401L1720.93 99.8401L1720.93 49.8901L1670.98 49.8901Z" fill="#4F1C99"/>
<path d="M1720.94 0.0001297L1720.94 49.8901L1770.89 49.8901L1770.89 0.000127516L1720.94 0.0001297Z" fill="#4F1C99"/>
<path d="M1770.89 49.8901L1770.89 99.8401L1720.94 99.8401L1770.89 49.8901Z" fill="#4F1C99"/>
<path d="M1670.98 49.8901L1720.87 0.000127519L1670.98 0.0001297L1670.98 49.8901Z" fill="#4F1C99"/>
<path d="M1720.94 99.8401L1770.89 49.8901L1721 7.41079e-05L1720.88 7.41132e-05L1670.99 49.8901L1720.94 99.8401Z" fill="#8700D4"/>
<path d="M1685.62 49.8902L1720.94 85.2102L1756.26 49.8902L1720.94 14.5702L1685.62 49.8902Z" fill="#CC0082"/>
<path d="M1570.97 7.62939e-05L1570.97 99.8401L1670.87 99.8401L1670.87 7.19272e-05L1570.97 7.62939e-05Z" fill="#4F1C99"/>
<path d="M1570.97 49.8901L1570.97 99.8401L1620.92 99.8401L1620.92 49.8901L1570.97 49.8901Z" fill="#8700D4"/>
<path d="M1620.92 0.0001297L1620.92 49.8901L1670.87 49.8901L1670.87 0.000127516L1620.92 0.0001297Z" fill="#8700D4"/>
<path d="M1670.87 49.8901L1670.87 99.8401L1620.92 99.8401L1670.87 49.8901Z" fill="#8700D4"/>
<path d="M1570.97 49.8901L1620.86 0.000127519L1570.97 0.0001297L1570.97 49.8901Z" fill="#8700D4"/>
<path d="M1620.92 99.8401L1670.87 49.8901L1620.98 7.41079e-05L1620.86 7.41132e-05L1570.97 49.8901L1620.92 99.8401Z" fill="#CC0082"/>
<path d="M1585.6 49.8902L1620.92 85.2102L1656.24 49.8902L1620.92 14.5702L1585.6 49.8902Z" fill="#4F1C99"/>
<path d="M1471.02 7.62939e-05L1471.02 99.8401L1570.92 99.8401L1570.92 7.19272e-05L1471.02 7.62939e-05Z" fill="#4F1C99"/>
<path d="M1520.97 99.8401L1570.92 49.8901L1521.03 7.41084e-05L1520.91 7.41136e-05L1471.03 49.8901L1520.97 99.8401Z" fill="#CC0082"/>
<path d="M1485.65 49.8902L1485.66 49.8902L1520.97 85.2102L1556.3 49.8902L1520.97 14.5702L1485.66 49.8902L1485.65 49.8902Z" fill="#8700D4"/>
<path d="M1371 7.62939e-05L1371 99.8401L1470.9 99.8401L1470.9 7.19272e-05L1371 7.62939e-05Z" fill="#4F1C99"/>
<path d="M1420.95 49.8901L1420.95 99.8401L1470.9 99.8401L1470.9 49.8901L1420.95 49.8901Z" fill="#CC0082"/>
<path d="M1371 0.00037384L1371 49.8904L1420.95 49.8904L1420.95 0.000371657L1371 0.00037384Z" fill="#CC0082"/>
<path d="M1371 49.8901L1371 99.8401L1420.95 99.8401L1371 49.8901Z" fill="#CC0082"/>
<path d="M1470.91 49.8901L1470.91 0.000127519L1421.02 0.0001297L1470.91 49.8901Z" fill="#CC0082"/>
<path d="M1420.95 99.8401L1470.9 49.8901L1421.01 7.41079e-05L1420.89 7.41132e-05L1371 49.8901L1420.95 99.8401Z" fill="#4F1C99"/>
<path d="M1456.27 49.8902L1420.95 85.2102L1385.63 49.8902L1420.95 14.5702L1456.27 49.8902Z" fill="#CC0082"/>
<path d="M1871.02 7.62939e-05L1871.02 99.8401L1970.92 99.8401L1970.92 7.19272e-05L1871.02 7.62939e-05Z" fill="#4F1C99"/>
<path d="M1920.97 99.8401L1970.92 49.8901L1921.03 7.41084e-05L1920.91 7.41136e-05L1871.03 49.8901L1920.97 99.8401Z" fill="#CC0082"/>
<path d="M1885.65 49.8902L1885.66 49.8902L1920.97 85.2102L1956.3 49.8902L1920.97 14.5702L1885.66 49.8902L1885.65 49.8902Z" fill="#8700D4"/>
<path d="M1771 7.62939e-05L1771 99.8401L1870.9 99.8401L1870.9 7.19272e-05L1771 7.62939e-05Z" fill="#4F1C99"/>
<path d="M1820.95 49.8901L1820.95 99.8401L1870.9 99.8401L1870.9 49.8901L1820.95 49.8901Z" fill="#CC0082"/>
<path d="M1771 0.00037384L1771 49.8904L1820.95 49.8904L1820.95 0.000371657L1771 0.00037384Z" fill="#CC0082"/>
<path d="M1771 49.8901L1771 99.8401L1820.95 99.8401L1771 49.8901Z" fill="#CC0082"/>
<path d="M1870.91 49.8901L1870.91 0.000127519L1821.02 0.0001297L1870.91 49.8901Z" fill="#CC0082"/>
<path d="M1820.95 99.8401L1870.9 49.8901L1821.01 7.41079e-05L1820.89 7.41132e-05L1771 49.8901L1820.95 99.8401Z" fill="#4F1C99"/>
<path d="M1856.27 49.8902L1820.95 85.2102L1785.63 49.8902L1820.95 14.5702L1856.27 49.8902Z" fill="#CC0082"/>
<rect y="100" width="1921" height="44" fill="#CC0082"/>
<defs>
<clipPath id="clip0_17_2891">
<rect width="144.21" height="595.28" fill="white" transform="translate(-4 144.21) rotate(-90)"/>
</clipPath>
</defs>
</svg>
