<svg width="24" height="22" viewBox="0 0 24 22" fill="none" xmlns="http://www.w3.org/2000/svg">
<g id="3">
<path id="Vector" fill-rule="evenodd" clip-rule="evenodd" d="M23.221 11.2328C23.221 5.28435 18.0717 0.461182 11.721 0.461182C5.37034 0.461182 0.221008 5.28435 0.221008 11.2328C0.221008 16.6089 4.42569 21.0652 9.92413 21.874L9.92413 14.3474L7.00344 14.3474L7.00344 11.2328L9.92413 11.2328L9.92413 8.85964C9.92413 6.1605 11.6414 4.66835 14.2679 4.66835C15.5263 4.66835 16.8426 4.87897 16.8426 4.87897L16.8426 7.53003L15.3918 7.53003C13.964 7.53003 13.5174 8.36001 13.5174 9.21308L13.5174 11.2328L16.7066 11.2328L16.1973 14.3474L13.5179 14.3474L13.5179 21.875C19.0163 21.0666 23.221 16.6104 23.221 11.2328V11.2328Z" fill="white"/>
</g>
</svg>
