<svg width="77" height="127" viewBox="0 0 77 127" fill="none" xmlns="http://www.w3.org/2000/svg">
<g id="Icon">
<path id="Vector" d="M41 36.2174C43.8826 36.2174 46.2174 33.8826 46.2174 31C46.2174 28.1174 43.8826 25.7826 41 25.7826C38.1174 25.7826 35.7826 28.1174 35.7826 31C35.7826 33.8826 38.1174 36.2174 41 36.2174ZM41 28.3913C42.4348 28.3913 43.6087 29.5652 43.6087 31C43.6087 32.4348 42.4348 33.6087 41 33.6087C39.5652 33.6087 38.3913 32.4348 38.3913 31C38.3913 29.5652 39.5652 28.3913 41 28.3913ZM39.6957 50.5V54.4783H42.3043V50.5C52.0478 49.8478 59.8478 42.0478 60.5 32.3043H64.4783V29.6957H60.5C59.8478 19.9522 52.0478 12.1522 42.3043 11.5V7.52174H39.6957V11.5C29.9522 12.1522 22.1522 19.9522 21.5 29.6957H17.5217V32.3043H21.5C22.1522 42.0478 29.9522 49.8478 39.6957 50.5ZM39.6957 14.1087V19.2609H42.3043V14.1087C50.613 14.7478 57.2522 21.387 57.8913 29.6957H52.7391V32.3043H57.8913C57.2522 40.613 50.613 47.2522 42.3043 47.8913V42.7391H39.6957V47.8913C31.387 47.2522 24.7478 40.613 24.1087 32.3043H29.2609V29.6957H24.1087C24.7478 21.387 31.387 14.7478 39.6957 14.1087ZM41 61C57.5391 61 71 47.5391 71 31C71 14.4609 57.5391 1 41 1C24.4609 1 11 14.4609 11 31C11 47.5391 24.4609 61 41 61ZM41 3.6087C56.1043 3.6087 68.3913 15.8957 68.3913 31C68.3913 46.1043 56.1043 58.3913 41 58.3913C25.8957 58.3913 13.6087 46.1043 13.6087 31C13.6087 15.8957 25.8957 3.6087 41 3.6087Z" fill="#501D9A" stroke="#501D9A"/>
</g>
</svg>
