<svg width="23" height="18" viewBox="0 0 23 18" fill="none" xmlns="http://www.w3.org/2000/svg">
<g id="2">
<path id="Vector" d="M22.221 2.74416C21.4156 3.09386 20.5634 3.32426 19.6914 3.42806C20.6078 2.89183 21.297 2.03995 21.6296 1.03217C20.7632 1.53843 19.8169 1.89365 18.8312 2.08261C18.4162 1.64792 17.917 1.30211 17.364 1.06621C16.8111 0.830301 16.2159 0.709224 15.6146 0.710335C13.1803 0.710335 11.2104 2.65029 11.2104 5.04171C11.2086 5.37434 11.2468 5.70599 11.324 6.02956C9.57843 5.94779 7.86917 5.50282 6.30557 4.72311C4.74196 3.94341 3.35844 2.84614 2.24352 1.50151C1.85238 2.16044 1.64552 2.91225 1.64457 3.67837C1.64457 5.18027 2.42871 6.50785 3.61275 7.28562C2.91124 7.26898 2.2241 7.08344 1.60968 6.74475V6.79839C1.60968 8.89926 3.13054 10.647 5.14345 11.0448C4.76493 11.1457 4.37486 11.1968 3.98312 11.1968C3.70515 11.1973 3.42781 11.1703 3.15514 11.1164C3.71473 12.8373 5.3434 14.0889 7.27267 14.1246C5.705 15.3319 3.78032 15.9844 1.80113 15.9796C1.44981 15.9791 1.09883 15.9582 0.749939 15.9171C2.76338 17.2018 5.10384 17.8814 7.49274 17.8749C15.6052 17.8749 20.0372 11.2728 20.0372 5.54681C20.0372 5.35907 20.0323 5.17133 20.0233 4.98807C20.8836 4.3766 21.6278 3.61674 22.221 2.74416V2.74416Z" fill="white"/>
</g>
</svg>
