<svg width="70" height="68" viewBox="0 0 70 68" fill="none" xmlns="http://www.w3.org/2000/svg">
<g id="Group">
<path id="Vector" d="M49.7214 7.19386C49.7214 5.27227 48.9726 3.46534 47.6143 2.10706C46.2553 0.748014 44.4483 0 42.5275 0C40.6059 0 38.799 0.748784 37.4399 2.10706L35.2428 4.30416L33.045 2.10706C31.6859 0.748014 29.8798 0 27.9582 0C26.0366 0 24.2304 0.748784 22.8714 2.10706C21.5123 3.46611 20.7643 5.27227 20.7643 7.19386C20.7643 9.11546 21.5123 10.9216 22.8714 12.2807L35.1105 24.5198L35.2428 24.3874L35.3752 24.5198L47.6143 12.2807C48.9726 10.9224 49.7214 9.11546 49.7214 7.19386ZM44.9963 9.66338L35.3752 19.2844L35.2428 19.1521L35.1097 19.2852L25.4879 9.66338C24.8191 8.99464 24.4651 8.14042 24.4651 7.19386C24.4651 6.2473 24.8191 5.39386 25.4879 4.72434C26.1574 4.05482 27.0108 3.70159 27.9574 3.70159C28.904 3.70159 29.7574 4.05559 30.4269 4.72434L32.624 6.92144L35.2413 9.53872L37.8586 6.92144L40.0557 4.72434C40.7252 4.05482 41.5786 3.70159 42.5252 3.70159C43.4718 3.70159 44.3252 4.05559 44.9947 4.72434C45.6642 5.39309 46.0175 6.2473 46.0175 7.19386C46.019 8.14042 45.665 8.99387 44.9963 9.66338Z" fill="#8600D3"/>
<path id="Vector_2" d="M53.443 49.9338C58.3674 49.9338 62.3737 45.9275 62.3737 41.003C62.3737 36.0786 58.3674 32.0723 53.443 32.0723C48.5185 32.0723 44.5122 36.0786 44.5122 41.003C44.5114 45.9275 48.5178 49.9338 53.443 49.9338ZM53.443 35.7746C56.3257 35.7746 58.6721 38.1203 58.6721 41.0038C58.6721 43.8866 56.3257 46.2322 53.443 46.2322C50.5602 46.2322 48.2138 43.8866 48.2138 41.0038C48.2138 38.1203 50.5594 35.7746 53.443 35.7746Z" fill="#8600D3"/>
<path id="Vector_3" d="M15.8068 32.0723C10.8831 32.0723 6.8768 36.0786 6.8768 41.003C6.8768 45.9275 10.8831 49.9338 15.8068 49.9338C20.7312 49.9338 24.7376 45.9275 24.7376 41.003C24.7383 36.0786 20.732 32.0723 15.8068 32.0723ZM10.5784 41.0038C10.5784 38.1203 12.924 35.7746 15.8068 35.7746C18.6896 35.7746 21.036 38.1203 21.036 41.0038C21.036 43.8866 18.6896 46.2322 15.8068 46.2322C12.924 46.2322 10.5784 43.8866 10.5784 41.0038Z" fill="#8600D3"/>
<path id="Vector_4" d="M3.6585 64.971C3.90245 59.8803 8.10733 55.8109 13.2572 55.8109H18.3571C18.4779 55.8109 18.5957 55.8247 18.7157 55.8293C16.8911 58.3981 15.8068 61.5279 15.8068 64.9109V67.3789C15.8068 67.3843 15.8076 67.3905 15.8076 67.3958C17.0473 67.5836 18.2902 67.7545 19.5353 67.9053C19.5276 67.7291 19.5084 67.5567 19.5084 67.3789V64.9109C19.5084 58.2765 24.9061 52.8796 31.5397 52.8796H37.7101C44.3437 52.8796 49.7414 58.2765 49.7414 64.9109V67.3789C49.7414 67.5882 49.7206 67.7929 49.7098 68C50.955 67.8568 52.1971 67.6937 53.436 67.5136C53.4368 67.4682 53.443 67.4243 53.443 67.3789V64.9109C53.443 61.5272 52.3587 58.3974 50.534 55.8293C50.6541 55.8247 50.7718 55.8109 50.8934 55.8109H55.9925C61.204 55.8109 65.4512 59.9773 65.6013 65.1533L69.2605 64.3084C68.6865 57.487 62.9601 52.1085 55.9925 52.1085H50.8934C49.6998 52.1085 48.5486 52.2809 47.4473 52.5764C44.7654 50.4547 41.387 49.1772 37.7101 49.1772H31.5397C27.8627 49.1772 24.4844 50.4547 21.8025 52.5764C20.7012 52.2809 19.5499 52.1085 18.3571 52.1085H13.2572C6.35658 52.1093 0.664901 57.3838 0 64.1137L3.6585 64.971Z" fill="#8600D3"/>
<path id="Vector_5" d="M25.6941 38.2274C25.6941 43.1518 29.7005 47.1582 34.6249 47.1582C39.5485 47.1582 43.5549 43.1518 43.5549 38.2274C43.5549 33.303 39.5485 29.2966 34.6249 29.2966C29.7005 29.2959 25.6941 33.303 25.6941 38.2274ZM34.6257 43.4558C31.7429 43.4558 29.3965 41.1102 29.3965 38.2274C29.3965 35.3438 31.7429 32.9982 34.6257 32.9982C37.5084 32.9982 39.8541 35.3438 39.8541 38.2274C39.8533 41.1102 37.5084 43.4558 34.6257 43.4558Z" fill="#8600D3"/>
</g>
</svg>
