<svg width="82" height="115" viewBox="0 0 82 115" fill="none" xmlns="http://www.w3.org/2000/svg">
<g id="Icon">
<path id="Vector" d="M61.2017 65.657L61.2352 65.6286L61.2632 65.5948L62.2978 64.3463C62.5637 64.0254 62.6604 63.5971 62.5574 63.1931L61.613 59.4884L62.4191 56.8524L79.99 43.3221C80.9227 42.6039 80.5031 41.1256 79.3397 40.9918L61.5977 38.9524L62.5972 4.84367C62.6188 4.10573 62.0243 3.5 61.2885 3.5H28.2691C27.5482 3.5 26.9598 4.08232 26.9598 4.80554V14.1445L20.4417 14.8057C19.2327 14.9284 18.825 16.4905 19.8332 17.1808L22.3005 18.8701L27.3654 23.6878C27.4595 23.7773 27.5664 23.8523 27.6826 23.9103L32.9107 26.5223L34.2147 30.3837C34.3325 30.7324 34.5922 31.0148 34.9291 31.1624L37.5594 32.3141L36.8408 32.9573C36.5645 33.2046 36.4061 33.5577 36.4061 33.9288V36.1277H15.6911C15.2303 36.1277 14.8025 36.3694 14.566 36.7656L5.68419 51.6463C5.42473 52.081 5.4405 52.626 5.72448 53.045L7.79184 56.0955L6.09589 58.7562C5.9752 58.9455 5.90542 59.1628 5.89344 59.387L5.50186 66.7196C5.47818 67.163 5.68207 67.5872 6.04183 67.8468L6.04215 67.847C9.17344 70.1021 11.5277 71.7958 13.1047 72.9277C13.8931 73.4937 14.4876 73.9195 14.888 74.205C15.088 74.3477 15.2403 74.4558 15.3442 74.529C15.396 74.5654 15.437 74.5941 15.4664 74.6143C15.4725 74.6185 15.4784 74.6226 15.4841 74.6264C15.492 74.6318 15.4994 74.6367 15.5061 74.6411C15.5115 74.6447 15.5194 74.6499 15.5281 74.6552C15.5322 74.6578 15.5397 74.6623 15.5489 74.6674L15.5493 74.6677C15.5539 74.6702 15.5812 74.6856 15.6171 74.6993L24.4216 78.0401C24.5704 78.0965 24.7282 78.1254 24.8873 78.1254H37.3747L43.1399 81.3344C43.6751 81.6323 44.3468 81.5202 44.7553 81.0632L49.4108 75.8561H51.1477C51.4745 75.8561 51.7898 75.7342 52.0314 75.5139L55.8764 72.0073C56.2831 71.6365 56.4137 71.0508 56.2016 70.5425L55.481 68.8151L58.2042 68.045C58.3831 67.9944 58.5492 67.9064 58.6915 67.7867L58.693 67.7854L61.2017 65.657ZM75.8409 43.218L60.4882 55.0402C60.2735 55.2055 60.1154 55.4335 60.0361 55.6927L59.0016 59.0757C58.9318 59.3039 58.926 59.5468 58.985 59.7781L59.8558 63.194L59.3195 63.8412L57.2182 65.6098L53.3489 66.704C52.5965 66.9167 52.1953 67.7376 52.4973 68.4614L53.4309 70.6992L50.6393 73.245H48.824C48.4511 73.245 48.0954 73.4036 47.8467 73.6818L43.4994 78.5442L38.3536 75.6799C38.1584 75.5713 37.9387 75.5144 37.7154 75.5144H25.128L16.71 72.3202L8.15464 66.1482L8.49004 59.8678L10.4622 56.7738C10.7417 56.3352 10.7338 55.7731 10.442 55.3425L8.35941 52.2696L16.4355 38.7388H37.7154C38.4363 38.7388 39.0247 38.1565 39.0247 37.4333V34.5112L40.8198 32.9044C41.5289 32.2698 41.3417 31.1186 40.4716 30.7376L36.5117 29.0036L35.2202 25.1793C35.1097 24.8524 34.8743 24.5828 34.5658 24.4287L29.0306 21.6633L24.1687 17.0522L28.4016 16.6228C29.0681 16.5551 29.5784 15.9957 29.5784 15.3239V6.11107H59.9404L58.9452 40.074C58.9253 40.7534 59.4306 41.3317 60.104 41.4091L75.8409 43.218Z" fill="#501D9A" stroke="#501D9A"/>
</g>
</svg>
