<svg width="80" height="64" viewBox="0 0 80 64" fill="none" xmlns="http://www.w3.org/2000/svg">
<g id="Frame" clip-path="url(#clip0_227_103)">
<g id="Group">
<path id="Vector" d="M4.1 59.29C0.67 55.86 0 33.6 0 31.7C0 29.8 0.67 7.54 4.1 4.1C7.54 0.67 28.62 0 39.62 0C50.62 0 71.7 0.67 75.14 4.1C78.57 7.53 79.24 29.96 79.24 31.69C79.24 33.43 78.57 55.85 75.14 59.29C71.71 62.72 49.65 63.39 39.62 63.39C29.59 63.39 7.54 62.73 4.1 59.29Z" fill="white"/>
<path id="Vector_2" d="M35.68 10.6102V18.0302L39.62 14.0902L35.94 10.4102C35.86 10.4702 35.77 10.5402 35.68 10.6102Z" fill="#501D9A"/>
<path id="Vector_3" d="M25.9 21.9702C25.9 22.7002 26.89 24.1702 28.06 25.6502L31.74 21.9702H25.9Z" fill="#CB0083"/>
<path id="Vector_4" d="M31.74 21.97L28.06 18.29C26.89 19.77 25.9 21.24 25.9 21.97H31.74Z" fill="#8600D3"/>
<path id="Vector_5" d="M35.68 18.0298H28.26C28.19 18.1198 28.12 18.1998 28.05 18.2898L31.73 21.9698L35.68 18.0298Z" fill="#501D9A"/>
<path id="Vector_6" d="M39.63 8.24023V14.0802L43.3 10.4102C41.81 9.25023 40.33 8.24023 39.63 8.24023Z" fill="#501D9A"/>
<path id="Vector_7" d="M39.63 8.24023C38.9 8.24023 37.42 9.23023 35.95 10.4002L39.63 14.0802V8.24023Z" fill="#CB0083"/>
<path id="Vector_8" d="M35.68 25.9102L31.74 21.9702L28.06 25.6502C29.59 27.5802 31.42 29.5302 31.72 29.8302L31.74 29.8502L35.68 25.9102Z" fill="#501D9A"/>
<path id="Vector_9" d="M39.63 18.0298L43.57 21.9698L47.51 18.0298H39.63Z" fill="#501D9A"/>
<path id="Vector_10" d="M39.63 14.0902L41.61 16.0702L45.45 12.2302C44.79 11.6602 44.04 11.0202 43.29 10.4302L39.63 14.0902Z" fill="#8600D3"/>
<path id="Vector_11" d="M39.63 29.8599H31.75L31.77 29.8799C32.07 30.1799 34.02 32.0099 35.95 33.5399L39.63 29.8599Z" fill="#8600D3"/>
<path id="Vector_12" d="M31.74 29.8602H39.63L35.68 25.9102L31.74 29.8602Z" fill="#CB0083"/>
<path id="Vector_13" d="M43.57 21.9698L39.63 18.0298V21.9698V25.9098L43.57 21.9698Z" fill="#8600D3"/>
<path id="Vector_14" d="M39.63 18.0298L35.68 21.9698L39.63 25.9098V21.9698V18.0298Z" fill="#CB0083"/>
<path id="Vector_15" d="M39.63 35.6999C40.36 35.6999 41.83 34.7099 43.31 33.5399L39.63 29.8599L35.95 33.5399C37.43 34.7099 38.9 35.6999 39.63 35.6999Z" fill="#CB0083"/>
<path id="Vector_16" d="M39.63 29.8601L43.31 33.5401C45.22 32.0301 47.15 30.2201 47.49 29.8801L47.52 29.8501H39.63V29.8601Z" fill="#8600D3"/>
<path id="Vector_17" d="M47.51 29.8602L43.57 25.9102L39.63 29.8602H47.51Z" fill="#CB0083"/>
<path id="Vector_18" d="M47.51 21.9702L43.57 25.9102L47.51 29.8502L47.54 29.8202C47.87 29.4802 49.68 27.5602 51.19 25.6402L47.51 21.9702Z" fill="#501D9A"/>
<path id="Vector_19" d="M53.35 21.9702H47.51L51.19 25.6502C52.36 24.1802 53.35 22.7002 53.35 21.9702Z" fill="#8600D3"/>
<path id="Vector_20" d="M47.51 21.9698H43.57L47.51 18.0298H50.96C51.03 18.1198 51.11 18.2098 51.18 18.3098C52.35 19.7898 53.36 21.2698 53.36 21.9798H47.51" fill="#CB0083"/>
<path id="Vector_21" d="M33.7 12.2901V16.0501V16.0901H29.91C29.39 16.6801 28.81 17.3601 28.27 18.0401H35.69V10.6201C34.99 11.1701 34.3 11.7601 33.7 12.2901Z" fill="#CB0083"/>
<path id="Vector_22" d="M31.74 14.09C31.58 14.25 30.82 15.05 29.91 16.09H33.7V16.05V12.29C32.68 13.19 31.9 13.92 31.74 14.09Z" fill="#8600D3"/>
<path id="Vector_23" d="M39.626 31.8317L38.6429 32.8145L39.6257 33.7975L40.6087 32.8147L39.626 31.8317Z" fill="#501D9A"/>
<path id="Vector_24" d="M23.02 44.1398C23.03 42.8498 23.28 41.4098 23.45 41.2098C23.59 41.0498 24.41 40.8398 25.81 40.8398C27.3 40.8398 28.12 41.0698 28.26 41.2198C28.43 41.3998 28.67 42.8598 28.68 44.1398L28.71 46.7498C28.71 47.1198 28.7 47.4498 28.64 47.4998C28.58 47.5498 28.15 47.5898 27.72 47.5898C27.3 47.5898 26.88 47.5498 26.82 47.4998C26.75 47.4498 26.73 47.1698 26.73 46.7498V45.9298C26.73 45.6598 26.69 45.4098 26.67 45.3898C26.65 45.3698 26.4 45.3298 26.14 45.3298H25.55C25.29 45.3298 25.04 45.3598 25.02 45.3898C25 45.4098 24.96 45.6698 24.96 45.9298V46.7498C24.96 47.1198 24.94 47.4498 24.88 47.4998C24.81 47.5498 24.39 47.5898 23.97 47.5898C23.54 47.5898 23.13 47.5498 23.07 47.4998C23 47.4598 22.99 47.1698 23 46.7598L23.02 44.1398ZM26.15 43.8398C26.41 43.8398 26.65 43.7898 26.67 43.7598C26.69 43.7298 26.7 43.5898 26.68 43.2798C26.65 42.9598 26.57 42.5298 26.46 42.4398C26.39 42.3798 26.24 42.3198 25.85 42.3198C25.47 42.3198 25.31 42.3798 25.24 42.4398C25.13 42.5298 25.05 42.9698 25.03 43.2698C25 43.6098 25.02 43.7398 25.04 43.7598C25.06 43.7798 25.3 43.8398 25.56 43.8398H26.15Z" fill="#501D9A"/>
<path id="Vector_25" d="M52.66 44.1398C52.67 42.8498 52.92 41.4098 53.09 41.2098C53.23 41.0498 54.05 40.8398 55.45 40.8398C56.94 40.8398 57.76 41.0698 57.9 41.2198C58.07 41.3998 58.31 42.8598 58.32 44.1398L58.35 46.7498C58.35 47.1198 58.34 47.4498 58.28 47.4998C58.22 47.5498 57.79 47.5898 57.36 47.5898C56.94 47.5898 56.52 47.5498 56.46 47.4998C56.39 47.4498 56.37 47.1698 56.37 46.7498V45.9298C56.37 45.6598 56.33 45.4098 56.31 45.3898C56.29 45.3698 56.04 45.3298 55.78 45.3298H55.2C54.94 45.3298 54.69 45.3598 54.67 45.3898C54.65 45.4098 54.61 45.6698 54.61 45.9298V46.7498C54.61 47.1198 54.59 47.4498 54.53 47.4998C54.46 47.5498 54.04 47.5898 53.62 47.5898C53.19 47.5898 52.78 47.5498 52.72 47.4998C52.65 47.4498 52.64 47.1598 52.65 46.7498L52.66 44.1398ZM55.78 43.8398C56.04 43.8398 56.28 43.7898 56.3 43.7598C56.32 43.7298 56.33 43.5898 56.31 43.2798C56.28 42.9598 56.2 42.5298 56.09 42.4398C56.02 42.3798 55.87 42.3198 55.48 42.3198C55.1 42.3198 54.94 42.3798 54.87 42.4398C54.76 42.5298 54.68 42.9698 54.66 43.2698C54.63 43.6098 54.65 43.7398 54.67 43.7598C54.69 43.7798 54.93 43.8398 55.19 43.8398H55.78Z" fill="#501D9A"/>
<path id="Vector_26" d="M64.81 44.1398C64.82 42.8498 65.07 41.4098 65.24 41.2098C65.38 41.0498 66.2 40.8398 67.6 40.8398C69.09 40.8398 69.91 41.0698 70.05 41.2198C70.22 41.3998 70.46 42.8598 70.47 44.1398L70.5 46.7498C70.5 47.1198 70.49 47.4498 70.43 47.4998C70.37 47.5498 69.94 47.5898 69.51 47.5898C69.09 47.5898 68.67 47.5498 68.61 47.4998C68.54 47.4498 68.52 47.1698 68.52 46.7498V45.9298C68.52 45.6598 68.48 45.4098 68.46 45.3898C68.44 45.3698 68.19 45.3298 67.93 45.3298H67.34C67.08 45.3298 66.83 45.3598 66.81 45.3898C66.79 45.4098 66.75 45.6698 66.75 45.9298V46.7498C66.75 47.1198 66.73 47.4498 66.67 47.4998C66.6 47.5498 66.18 47.5898 65.76 47.5898C65.33 47.5898 64.92 47.5498 64.86 47.4998C64.79 47.4498 64.78 47.1598 64.79 46.7498L64.81 44.1398ZM67.94 43.8398C68.2 43.8398 68.44 43.7898 68.46 43.7598C68.48 43.7298 68.49 43.5898 68.47 43.2798C68.44 42.9598 68.36 42.5298 68.25 42.4398C68.18 42.3798 68.03 42.3198 67.64 42.3198C67.26 42.3198 67.1 42.3798 67.03 42.4398C66.92 42.5298 66.84 42.9698 66.82 43.2698C66.79 43.6098 66.81 43.7398 66.83 43.7598C66.85 43.7798 67.09 43.8398 67.35 43.8398H67.94Z" fill="#501D9A"/>
<path id="Vector_27" d="M59.38 41.6801C59.38 41.3201 59.39 40.9901 59.46 40.9401C59.53 40.8801 59.99 40.8501 60.41 40.8501C60.86 40.8501 61.26 40.8901 61.34 40.9401C61.42 40.9901 61.43 41.2701 61.43 41.6801V45.5201C61.43 45.6301 61.45 45.7901 61.49 45.8301C61.53 45.8701 61.7 45.8901 61.81 45.8901H63.43C63.63 45.8901 63.97 45.8901 64 45.9501C64.04 46.0001 64.07 46.4201 64.07 46.7701C64.07 47.1201 64.04 47.4901 64 47.5501C63.97 47.6001 63.75 47.6201 63.43 47.6201H60.34C60 47.6201 59.62 47.5601 59.53 47.4801C59.44 47.4001 59.39 47.0101 59.39 46.6701V41.6801H59.38Z" fill="#501D9A"/>
<path id="Vector_28" d="M51.63 44.2899C51.63 43.0199 51.41 41.4399 51.24 41.2399C51.1 41.0699 50.32 40.8599 48.82 40.8599C48.06 40.8599 47.54 40.9299 47.2 41.0099C46.8 40.9199 46.19 40.8599 45.37 40.8599C43.89 40.8599 43.32 41.1199 43.2 41.2499C43.03 41.4399 42.8 43.0099 42.8 44.2999V46.7899C42.8 47.2099 42.81 47.4699 42.88 47.5199C42.95 47.5699 43.27 47.6099 43.73 47.6099C44.19 47.6099 44.58 47.5699 44.64 47.5199C44.71 47.4599 44.72 47.1599 44.72 46.7899V44.2599C44.72 43.4699 44.75 42.7299 44.9 42.5599C44.97 42.4799 45.12 42.4099 45.47 42.4099C45.82 42.4099 46.01 42.4399 46.07 42.5499C46.14 42.6699 46.24 43.0199 46.26 43.6899C46.26 43.8099 46.25 44.9099 46.25 45.0199V46.7899C46.25 47.2099 46.26 47.4699 46.33 47.5199C46.4 47.5699 46.72 47.6099 47.18 47.6099H47.21H47.25C47.7 47.6099 48.03 47.5799 48.1 47.5199C48.17 47.4599 48.18 47.1999 48.18 46.7899V45.0199C48.18 44.8799 48.18 43.7599 48.17 43.6099C48.18 42.9799 48.22 42.6899 48.35 42.5599C48.42 42.4799 48.57 42.4099 48.92 42.4099C49.27 42.4099 49.46 42.4399 49.52 42.5499C49.6 42.6899 49.72 43.4699 49.72 44.2599V46.7899C49.72 47.1799 49.74 47.4699 49.8 47.5199C49.86 47.5699 50.23 47.6099 50.71 47.6099C51.16 47.6099 51.49 47.5799 51.56 47.5199C51.63 47.4599 51.64 47.1999 51.64 46.7899V44.2899H51.63Z" fill="#501D9A"/>
<path id="Vector_29" d="M16.03 41.6801C16.03 41.2601 16.04 41.0001 16.11 40.9401C16.18 40.8801 16.51 40.8501 16.96 40.8501C17.45 40.8501 17.82 40.8901 17.88 40.9401C17.94 41.0001 17.96 41.2901 17.96 41.6801V44.2201C17.96 45.0201 18.07 45.8001 18.16 45.9401C18.22 46.0501 18.64 46.0801 19.01 46.0801C19.55 46.0801 19.78 46.0001 19.84 45.9301C19.99 45.7601 20.02 45.0201 20.02 44.2201V41.6801C20.02 41.3001 20.03 41.0001 20.1 40.9401C20.16 40.8901 20.55 40.8501 21.01 40.8501C21.48 40.8501 21.8 40.8901 21.87 40.9401C21.94 41.0001 21.95 41.2601 21.95 41.6801V44.1801C21.95 45.4801 21.72 47.0601 21.55 47.2501C21.43 47.3801 20.59 47.6401 19.1 47.6401C17.59 47.6401 16.56 47.4201 16.42 47.2501C16.24 47.0401 16.02 45.4501 16.02 44.1701V41.6801H16.03Z" fill="#501D9A"/>
<path id="Vector_30" d="M14.89 43.6501C14.8 43.5401 14.4 43.4401 14.06 43.4401H12.8C12.51 43.4401 12.31 43.4501 12.28 43.5001C12.24 43.5501 12.21 43.8801 12.21 44.2001C12.21 44.5401 12.24 44.8501 12.28 44.9001C12.31 44.9401 12.54 44.9501 12.8 44.9501H12.88C13.09 44.9501 13.21 44.9801 13.24 45.0201C13.26 45.0401 13.26 45.1401 13.25 45.2601C13.21 45.5701 13.17 45.8201 13.12 45.8901C13.06 45.9901 12.48 46.0301 12.08 46.0301C11.64 46.0301 10.94 45.9901 10.88 45.8901C10.79 45.7501 10.68 44.7701 10.68 44.2101C10.68 43.6601 10.79 42.7001 10.89 42.5601C10.96 42.4701 11.58 42.3901 12.1 42.3901C12.87 42.3901 14.07 42.6401 14.17 42.6401C14.34 42.6401 14.44 42.2501 14.51 41.9101C14.58 41.6201 14.64 41.2201 14.6 41.1601C14.54 41.0601 13.07 40.8301 11.97 40.8301C10.49 40.8301 9.28 41.0501 9.13 41.2101C8.96 41.4001 8.72 42.9101 8.72 44.1901C8.72 45.4601 8.95 47.0401 9.12 47.2501C9.26 47.4201 10.5 47.6401 11.92 47.6401H11.94H11.96C13.21 47.6401 14.23 47.4701 14.51 47.3201C14.59 47.2901 14.63 47.2601 14.64 47.2401C14.73 47.0501 14.92 45.8001 14.97 44.7501C15.03 43.9601 14.99 43.7601 14.89 43.6501Z" fill="#501D9A"/>
<path id="Vector_31" d="M35.09 40.8501C35.35 40.8501 35.58 40.8601 35.61 40.9001C35.65 40.9401 35.68 41.3901 35.68 41.6701C35.68 41.9601 35.65 42.3701 35.61 42.4201C35.58 42.4701 33.84 42.5701 33.69 42.6001C33.54 42.6301 33.53 42.7301 33.53 42.9301C33.53 43.1301 33.53 46.7701 33.53 46.7701C33.53 47.1401 33.52 47.4601 33.45 47.5101C33.39 47.5601 33.08 47.6001 32.53 47.6001C31.99 47.6001 31.67 47.5601 31.61 47.5101C31.55 47.4601 31.53 47.1501 31.53 46.7701V42.9301C31.53 42.7401 31.51 42.6301 31.37 42.6001C31.22 42.5701 29.49 42.4701 29.45 42.4201C29.41 42.3701 29.38 41.9601 29.38 41.6701C29.38 41.3901 29.41 40.9401 29.45 40.9001C29.48 40.8601 29.71 40.8501 29.97 40.8501H35.09Z" fill="#501D9A"/>
<path id="Vector_32" d="M40.4 42.4601H38.64C38.55 42.4601 38.47 42.5001 38.44 42.6201C38.41 42.7401 38.35 43.2201 38.36 43.3601C38.36 43.3901 38.36 43.4001 38.38 43.4301C38.4 43.4601 38.45 43.4601 38.49 43.4601C39.08 43.4501 39.75 43.4501 39.75 43.4501H40.32C40.57 43.4501 40.76 43.4601 40.79 43.5001C40.83 43.5401 40.87 43.9501 40.87 44.2201C40.87 44.5001 40.82 44.8701 40.79 44.9101C40.76 44.9601 40.6 44.9701 40.32 44.9701H40.26C39.67 44.9701 39.08 44.9701 38.49 44.9601C38.45 44.9601 38.4 44.9701 38.38 44.9901C38.36 45.0201 38.36 45.0401 38.36 45.0601C38.35 45.2001 38.42 45.7101 38.45 45.8201C38.48 45.9401 38.55 45.9801 38.65 45.9801H41.21C41.59 45.9801 41.78 46.0001 41.85 46.0501C41.89 46.0801 41.96 46.3801 41.96 46.7901C41.96 47.1901 41.87 47.5001 41.85 47.5301C41.82 47.5601 41.59 47.5901 41.21 47.5901H37.85C37.52 47.5901 36.97 47.4901 36.8 47.3001C36.63 47.1101 36.4 45.4601 36.4 44.1701C36.4 42.8601 36.63 41.3401 36.81 41.1201C36.99 40.9101 37.24 40.8301 37.58 40.8301H41.22C41.52 40.8301 41.79 40.8501 41.86 40.9001C41.9 40.9301 41.97 41.2401 41.97 41.6401C41.97 42.0401 41.88 42.3501 41.86 42.3801C41.83 42.4101 41.6 42.4401 41.22 42.4401H40.4V42.4601Z" fill="#501D9A"/>
<path id="Vector_33" d="M15.88 49.73H16.46L17.68 52.68H16.99L16.79 52.18H15.56L15.36 52.68H14.67L15.88 49.73ZM16.6 51.67L16.17 50.6L15.74 51.67H16.6Z" fill="#EF509C"/>
<path id="Vector_34" d="M18.18 51.97C18.29 52.11 18.51 52.2 18.76 52.2C18.98 52.2 19.08 52.13 19.08 52.03C19.08 51.89 18.79 51.87 18.46 51.76C18.16 51.66 17.97 51.49 17.97 51.17C17.97 50.71 18.37 50.48 18.8 50.48C19.18 50.48 19.43 50.61 19.59 50.76L19.29 51.18C19.2 51.1 19.04 51.02 18.79 51.02C18.65 51.02 18.58 51.08 18.58 51.16C18.58 51.3 18.75 51.28 19.16 51.42C19.55 51.55 19.69 51.75 19.69 52.03C19.69 52.44 19.4 52.75 18.75 52.75C18.27 52.75 17.98 52.57 17.82 52.37L18.18 51.97Z" fill="#EF509C"/>
<path id="Vector_35" d="M21.15 50.48C21.81 50.48 22.34 50.98 22.34 51.61C22.34 52.24 21.81 52.74 21.15 52.74C20.49 52.74 19.96 52.24 19.96 51.61C19.97 50.98 20.49 50.48 21.15 50.48ZM21.15 52.17C21.46 52.17 21.7 51.92 21.7 51.61C21.7 51.3 21.45 51.05 21.15 51.05C20.84 51.05 20.6 51.3 20.6 51.61C20.6 51.93 20.84 52.17 21.15 52.17Z" fill="#EF509C"/>
<path id="Vector_36" d="M22.75 50.5498H23.38V50.8198C23.46 50.6298 23.67 50.5098 23.93 50.5098C24.22 50.5098 24.41 50.6298 24.51 50.8498C24.65 50.5798 24.92 50.5098 25.21 50.5098C25.69 50.5098 25.96 50.8398 25.96 51.3998V51.9398C25.96 52.0998 25.99 52.1598 26.1 52.1598C26.13 52.1598 26.16 52.1598 26.16 52.1598V52.6898C26.15 52.6898 26.05 52.7198 25.89 52.7198C25.56 52.7198 25.33 52.5598 25.33 52.1098V51.4698C25.33 51.2198 25.22 51.0698 25.02 51.0698C24.82 51.0698 24.67 51.2398 24.67 51.4898V52.6898H24.04V51.4698C24.04 51.2198 23.93 51.0698 23.72 51.0698C23.52 51.0698 23.37 51.2398 23.37 51.4898V52.6898H22.74V50.5498H22.75Z" fill="#EF509C"/>
<path id="Vector_37" d="M26.55 49.73H27.18V50.83C27.24 50.64 27.49 50.51 27.82 50.51C28.43 50.51 28.88 51 28.88 51.62C28.88 52.24 28.43 52.72 27.82 52.72C27.49 52.72 27.24 52.58 27.18 52.4V52.68H26.55V49.73ZM27.71 52.15C28.01 52.15 28.25 51.92 28.25 51.62C28.25 51.32 28.01 51.09 27.71 51.09C27.4 51.09 27.15 51.32 27.15 51.62C27.15 51.92 27.4 52.15 27.71 52.15Z" fill="#EF509C"/>
<path id="Vector_38" d="M29.29 50.55H29.92V50.84C30.02 50.62 30.25 50.5 30.54 50.5C30.6 50.5 30.67 50.51 30.71 50.51V51.1C30.65 51.09 30.58 51.08 30.5 51.08C30.14 51.08 29.93 51.29 29.93 51.63V52.67H29.3V50.55H29.29Z" fill="#EF509C"/>
<path id="Vector_39" d="M32.09 50.48C32.75 50.48 33.28 50.98 33.28 51.61C33.28 52.24 32.75 52.74 32.09 52.74C31.43 52.74 30.9 52.24 30.9 51.61C30.91 50.98 31.43 50.48 32.09 50.48ZM32.09 52.17C32.4 52.17 32.64 51.92 32.64 51.61C32.64 51.3 32.39 51.05 32.09 51.05C31.78 51.05 31.54 51.3 31.54 51.61C31.54 51.93 31.78 52.17 32.09 52.17Z" fill="#EF509C"/>
<path id="Vector_40" d="M33.83 51.97C33.94 52.11 34.16 52.2 34.41 52.2C34.63 52.2 34.73 52.13 34.73 52.03C34.73 51.89 34.44 51.87 34.11 51.76C33.81 51.66 33.62 51.49 33.62 51.17C33.62 50.71 34.02 50.48 34.45 50.48C34.83 50.48 35.08 50.61 35.24 50.76L34.94 51.18C34.85 51.1 34.69 51.02 34.44 51.02C34.3 51.02 34.23 51.08 34.23 51.16C34.23 51.3 34.4 51.28 34.81 51.42C35.2 51.55 35.34 51.75 35.34 52.03C35.34 52.44 35.05 52.75 34.4 52.75C33.92 52.75 33.63 52.57 33.47 52.37L33.83 51.97Z" fill="#EF509C"/>
<path id="Vector_41" d="M36.69 50.5098C37.02 50.5098 37.27 50.6398 37.33 50.8298V50.5498H37.96V51.9298C37.96 52.0998 38.01 52.1698 38.12 52.1698C38.15 52.1698 38.2 52.1698 38.23 52.1598V52.6898C38.17 52.7098 38.05 52.7198 37.95 52.7198C37.84 52.7198 37.71 52.6998 37.6 52.6398C37.53 52.5998 37.45 52.5298 37.41 52.4098C37.29 52.5898 37.08 52.7198 36.7 52.7198C36.09 52.7198 35.64 52.2298 35.64 51.6098C35.63 50.9998 36.08 50.5098 36.69 50.5098ZM36.8 52.1498C37.11 52.1498 37.36 51.9198 37.36 51.6198C37.36 51.3198 37.11 51.0898 36.8 51.0898C36.5 51.0898 36.26 51.3198 36.26 51.6198C36.26 51.9198 36.5 52.1498 36.8 52.1498Z" fill="#EF509C"/>
<path id="Vector_42" d="M39.61 51.6102C39.61 50.9302 40.1 50.4902 40.77 50.4902C41.43 50.4902 41.87 50.9702 41.87 51.5702C41.87 51.5702 41.87 51.6802 41.86 51.7702H40.25C40.26 52.0202 40.48 52.1902 40.82 52.1902C41.04 52.1902 41.19 52.1202 41.34 51.9802L41.71 52.3302C41.43 52.6202 41.12 52.7202 40.79 52.7202C40.1 52.7202 39.62 52.2802 39.62 51.6202V51.6102H39.61ZM41.23 51.3702C41.23 51.1802 41.02 51.0102 40.77 51.0102C40.49 51.0102 40.27 51.1702 40.25 51.3702H41.23Z" fill="#EF509C"/>
<path id="Vector_43" d="M43.12 50.0099C43.12 49.8099 43.29 49.6499 43.48 49.6499C43.68 49.6499 43.84 49.8099 43.84 50.0099C43.84 50.2099 43.68 50.3699 43.48 50.3699C43.28 50.3699 43.12 50.2099 43.12 50.0099ZM43.16 50.5499H43.79V51.9299C43.79 52.0799 43.82 52.1499 43.93 52.1499C43.96 52.1499 44 52.1499 44.01 52.1399V52.6799C43.99 52.6899 43.89 52.7099 43.72 52.7099C43.38 52.7099 43.16 52.5499 43.16 52.1099V50.5499Z" fill="#EF509C"/>
<path id="Vector_44" d="M44.39 50.5498H45.02V50.8198C45.1 50.6298 45.31 50.5098 45.57 50.5098C45.86 50.5098 46.05 50.6298 46.15 50.8498C46.29 50.5798 46.56 50.5098 46.85 50.5098C47.33 50.5098 47.6 50.8398 47.6 51.3998V51.9398C47.6 52.0998 47.63 52.1598 47.74 52.1598C47.77 52.1598 47.8 52.1598 47.8 52.1598V52.6898C47.79 52.6898 47.69 52.7198 47.53 52.7198C47.2 52.7198 46.97 52.5598 46.97 52.1098V51.4698C46.97 51.2198 46.86 51.0698 46.66 51.0698C46.46 51.0698 46.31 51.2398 46.31 51.4898V52.6898H45.68V51.4698C45.68 51.2198 45.57 51.0698 45.36 51.0698C45.16 51.0698 45.01 51.2398 45.01 51.4898V52.6898H44.38V50.5498H44.39Z" fill="#EF509C"/>
<path id="Vector_45" d="M48.19 50.5498H48.82V50.8298C48.88 50.6498 49.13 50.5098 49.46 50.5098C50.07 50.5098 50.52 50.9998 50.52 51.6198C50.52 52.2298 50.07 52.7198 49.46 52.7198C49.13 52.7198 48.88 52.5898 48.82 52.3998V53.4998H48.19V50.5498ZM49.34 52.1498C49.64 52.1498 49.88 51.9198 49.88 51.6198C49.88 51.3198 49.64 51.0898 49.34 51.0898C49.03 51.0898 48.78 51.3198 48.78 51.6198C48.78 51.9198 49.03 52.1498 49.34 52.1498Z" fill="#EF509C"/>
<path id="Vector_46" d="M51.89 50.5098C52.22 50.5098 52.47 50.6398 52.53 50.8298V50.5498H53.16V51.9298C53.16 52.0998 53.21 52.1698 53.32 52.1698C53.35 52.1698 53.4 52.1698 53.43 52.1598V52.6898C53.37 52.7098 53.25 52.7198 53.15 52.7198C53.04 52.7198 52.91 52.6998 52.8 52.6398C52.73 52.5998 52.65 52.5298 52.61 52.4098C52.49 52.5898 52.28 52.7198 51.9 52.7198C51.29 52.7198 50.84 52.2298 50.84 51.6098C50.83 50.9998 51.28 50.5098 51.89 50.5098ZM52 52.1498C52.31 52.1498 52.56 51.9198 52.56 51.6198C52.56 51.3198 52.31 51.0898 52 51.0898C51.7 51.0898 51.46 51.3198 51.46 51.6198C51.46 51.9198 51.7 52.1498 52 52.1498Z" fill="#EF509C"/>
<path id="Vector_47" d="M53.78 50.55H54.41V50.84C54.51 50.62 54.74 50.5 55.03 50.5C55.09 50.5 55.16 50.51 55.2 50.51V51.1C55.14 51.09 55.07 51.08 54.99 51.08C54.63 51.08 54.42 51.29 54.42 51.63V52.67H53.79V50.55H53.78Z" fill="#EF509C"/>
<path id="Vector_48" d="M56.45 50.5098C56.78 50.5098 57.03 50.6398 57.09 50.8298V50.5498H57.72V51.9298C57.72 52.0998 57.77 52.1698 57.88 52.1698C57.91 52.1698 57.96 52.1698 57.99 52.1598V52.6898C57.93 52.7098 57.81 52.7198 57.71 52.7198C57.6 52.7198 57.47 52.6998 57.36 52.6398C57.29 52.5998 57.21 52.5298 57.17 52.4098C57.05 52.5898 56.84 52.7198 56.46 52.7198C55.85 52.7198 55.4 52.2298 55.4 51.6098C55.4 50.9998 55.85 50.5098 56.45 50.5098ZM56.57 52.1498C56.88 52.1498 57.13 51.9198 57.13 51.6198C57.13 51.3198 56.88 51.0898 56.57 51.0898C56.27 51.0898 56.03 51.3198 56.03 51.6198C56.03 51.9198 56.26 52.1498 56.57 52.1498Z" fill="#EF509C"/>
<path id="Vector_49" d="M58.35 49.73H58.98V50.83C59.04 50.64 59.29 50.51 59.62 50.51C60.23 50.51 60.68 51 60.68 51.62C60.68 52.24 60.23 52.72 59.62 52.72C59.29 52.72 59.04 52.58 58.98 52.4V52.68H58.35V49.73ZM59.5 52.15C59.8 52.15 60.04 51.92 60.04 51.62C60.04 51.32 59.8 51.09 59.5 51.09C59.19 51.09 58.94 51.32 58.94 51.62C58.94 51.92 59.19 52.15 59.5 52.15Z" fill="#EF509C"/>
<path id="Vector_50" d="M61.07 49.73H61.7V51.89C61.7 52.08 61.77 52.17 61.95 52.17C62 52.17 62.06 52.17 62.1 52.15V52.71C62.04 52.73 61.91 52.74 61.8 52.74C61.5 52.74 61.07 52.65 61.07 51.99V49.73Z" fill="#EF509C"/>
<path id="Vector_51" d="M62.32 51.6102C62.32 50.9302 62.81 50.4902 63.48 50.4902C64.14 50.4902 64.58 50.9702 64.58 51.5702C64.58 51.5702 64.58 51.6802 64.57 51.7702H62.96C62.97 52.0202 63.19 52.1902 63.53 52.1902C63.75 52.1902 63.9 52.1202 64.05 51.9802L64.42 52.3302C64.14 52.6202 63.83 52.7202 63.5 52.7202C62.81 52.7202 62.33 52.2802 62.33 51.6202V51.6102H62.32ZM63.94 51.3702C63.94 51.1802 63.73 51.0102 63.48 51.0102C63.2 51.0102 62.98 51.1702 62.96 51.3702H63.94Z" fill="#EF509C"/>
</g>
</g>
<defs>
<clipPath id="clip0_227_103">
<rect width="79.24" height="63.39" fill="white"/>
</clipPath>
</defs>
</svg>
