<svg width="227" height="47" viewBox="0 0 227 47" fill="none" xmlns="http://www.w3.org/2000/svg">
<g id="Modo_de_aislamiento" clip-path="url(#clip0_56_94)">
<path id="Vector" fill-rule="evenodd" clip-rule="evenodd" d="M23.8583 0C37.035 0 47.7167 10.5212 47.7167 23.5C47.7167 36.4788 37.035 47 23.8583 47C10.6816 47 0 36.4788 0 23.5C0 10.5212 10.6816 0 23.8583 0ZM23.8583 2.23794C11.9356 2.23794 2.27207 11.7564 2.27207 23.5C2.27207 35.2436 11.9356 44.7621 23.8583 44.7621C35.781 44.7621 45.4446 35.2436 45.4446 23.5C45.4446 11.7564 35.781 2.23794 23.8583 2.23794Z" fill="#E40520"/>
<path id="Vector_2" fill-rule="evenodd" clip-rule="evenodd" d="M25.0283 28.0555V35.2564H22.6884V28.0555C21.5701 28.0555 20.1093 28.0491 19.5566 28.03L11.7967 28.0491C11.1406 28.081 10.4651 27.9345 9.85426 27.5876C8.67459 26.9158 8.04113 25.6775 8.09284 24.4328C8.09284 24.2481 8.11546 24.0858 8.13809 23.9585C8.41604 22.4336 8.959 20.9342 9.78639 19.5208C10.617 18.101 11.6706 16.8817 12.8826 15.8821C13.6938 15.2932 14.8315 14.9971 15.8754 15.1754C16.1695 14.1917 16.8644 13.3799 17.7661 12.9152C17.9374 12.8197 18.099 12.7528 18.2315 12.7051C19.9897 12.0779 21.8868 11.7373 23.8583 11.7373C25.8298 11.7373 27.7464 12.0811 29.5143 12.7146C30.5323 13.1507 31.4373 14.0612 31.8187 15.1467C32.8173 14.9207 33.8516 15.1404 34.6628 15.7484C35.8715 16.748 37.0997 18.101 37.9335 19.5208C38.7609 20.931 39.3039 22.4336 39.5818 23.9585C39.6045 24.0858 39.6238 24.2481 39.6271 24.4328C39.6788 25.6775 39.0453 26.9158 37.8657 27.5876C37.2581 27.9345 36.5826 28.081 35.9233 28.0491L28.1601 28.03C27.6074 28.0491 26.1498 28.0523 25.0315 28.0555H25.0283ZM33.2924 17.6234C32.924 17.3465 32.4036 17.2987 31.977 17.5439C31.754 17.6712 31.586 17.859 31.4858 18.0755L27.5525 24.8243C27.4329 25.0026 27.4167 25.2382 27.5331 25.4387C27.6527 25.6425 27.8757 25.7475 28.0954 25.7284L35.9911 25.7475C36.2238 25.7666 36.4662 25.7189 36.686 25.5947C37.0965 25.3592 37.313 24.9198 37.2774 24.4805C37.2774 24.4487 37.2774 24.4137 37.271 24.3659C37.0415 23.1021 36.589 21.8542 35.9006 20.6763C35.209 19.4953 34.3299 18.4798 33.328 17.6489C33.3151 17.6394 33.3021 17.6298 33.2892 17.6203L33.2924 17.6234ZM14.4243 17.6234C14.4243 17.6234 14.3984 17.6425 14.3855 17.6521C13.3803 18.483 12.5045 19.4953 11.8128 20.6795C11.1244 21.8574 10.6719 23.1021 10.4425 24.3691C10.436 24.4137 10.4328 24.4519 10.436 24.4837C10.4005 24.923 10.617 25.3623 11.0275 25.5979C11.2472 25.7221 11.4896 25.7698 11.7223 25.7507L19.618 25.7316C19.841 25.7507 20.064 25.6457 20.1804 25.4419C20.2967 25.2446 20.2806 25.0058 20.161 24.8275L16.2277 18.0787C16.1275 17.8622 15.9627 17.6744 15.7364 17.547C15.3098 17.3051 14.7927 17.3529 14.421 17.6266L14.4243 17.6234ZM28.7677 14.908C28.7515 14.9016 28.7321 14.8921 28.7127 14.8857C27.197 14.3445 25.5616 14.0485 23.8583 14.0485C22.1551 14.0485 20.5359 14.3413 19.0266 14.8793C18.9716 14.8984 18.9328 14.9175 18.9005 14.9398C18.4028 15.169 18.0602 15.6688 18.0602 16.245C18.0602 16.5506 18.1572 16.834 18.322 17.0663L23.199 25.3369C23.3154 25.582 23.5675 25.7507 23.8583 25.7507C24.1492 25.7507 24.3916 25.5884 24.5112 25.3528L29.3882 17.0791C29.5628 16.8435 29.6629 16.5506 29.6629 16.2355C29.6629 15.637 29.2945 15.1245 28.7677 14.908Z" fill="#E40520"/>
<path id="Vector_3" fill-rule="evenodd" clip-rule="evenodd" d="M68.4562 11.1929L74.2834 22.9429L80.1074 11.1929L88.9177 11.1961V34.6961H80.1074V22.9429L74.2834 34.6929L68.4562 22.9429V34.6929H59.6458V11.1929H68.4562Z" fill="#E40520"/>
<path id="Vector_4" fill-rule="evenodd" clip-rule="evenodd" d="M106.38 14.7137L102.802 26.9826H109.958L106.38 14.7137ZM91.7457 34.696L98.5974 11.196H114.166L121.018 34.696H112.207L111.082 30.8377H101.681L100.556 34.696H91.7457Z" fill="#E40520"/>
<path id="Vector_5" fill-rule="evenodd" clip-rule="evenodd" d="M134.695 13.8956C136.68 13.8956 138.609 14.9429 138.609 17.0726C138.609 19.2023 136.906 20.9277 134.695 20.9277H132.785V13.8956H134.695ZM140.316 11.2056H123.829V34.696H132.636V24.907H140.316C144.155 24.907 147.271 21.8382 147.271 18.0563C147.271 14.2744 144.158 11.2056 140.316 11.2056Z" fill="#E40520"/>
<path id="Vector_6" fill-rule="evenodd" clip-rule="evenodd" d="M150.325 11.1929H173.747V15.0512H159.132V21.0265H173.747V24.8848H159.132V34.6961H150.325V11.1929Z" fill="#E40520"/>
<path id="Vector_7" fill-rule="evenodd" clip-rule="evenodd" d="M212.385 30.8378H227V34.6929H203.575V11.1929H227V15.0512H212.385V21.0265H227V24.8848H212.385V30.8378Z" fill="#E40520"/>
<path id="Vector_8" fill-rule="evenodd" clip-rule="evenodd" d="M187.693 13.8987C189.629 13.8987 191.607 14.9461 191.607 17.0726C191.607 19.1991 189.855 20.9277 187.693 20.9277H185.783V13.8987H187.693ZM200.265 28.6284V28.8226C200.265 28.759 200.265 28.6953 200.265 28.6284ZM200.265 28.8226C200.265 28.759 200.265 28.6953 200.265 28.6284C200.162 25.4737 197.531 22.9492 194.302 22.9492C197.596 22.9492 200.265 20.3197 200.265 17.0758C200.265 13.8319 197.596 11.2024 194.302 11.2024H176.824V34.696H185.78V24.9675H187.69C189.849 24.9675 191.604 26.6929 191.604 28.8226C191.604 28.8863 191.604 28.95 191.597 29.0104V34.696H200.262V28.8226H200.265Z" fill="#E40520"/>
</g>
<defs>
<clipPath id="clip0_56_94">
<rect width="227" height="47" fill="white"/>
</clipPath>
</defs>
</svg>
