<svg width="1920" height="61" viewBox="0 0 1920 61" fill="none" xmlns="http://www.w3.org/2000/svg">
<path d="M155.882 0.0342789L155.882 30.3159L186.164 30.3159L186.164 0.0342783L155.882 0.0342789Z" fill="#CB0083"/>
<path d="M155.855 15.1677L171.007 30.3154L186.155 15.1634L171.003 0.0156211L155.855 15.1677Z" fill="#501D9A"/>
<path d="M155.882 30.316L155.882 60.5977L186.164 60.5977L186.164 30.316L155.882 30.316Z" fill="#8600D3"/>
<path d="M171.008 30.316L171.008 60.5977L155.882 45.4416L171.008 30.316Z" fill="#501D9A"/>
<path d="M186.164 30.316L186.164 60.5977L171.008 45.4416L186.164 30.316Z" fill="#501D9A"/>
<path d="M186.164 0.0342789L186.164 30.3159L216.445 30.3159L216.445 0.0342783L186.164 0.0342789Z" fill="#CB0083"/>
<path d="M186.162 15.1564L201.314 30.3042L216.462 15.1522L201.31 0.00439733L186.162 15.1564Z" fill="#501D9A"/>
<path d="M186.164 30.316L186.164 60.5977L216.445 60.5977L216.445 30.316L186.164 30.316Z" fill="#8600D3"/>
<path d="M201.289 30.316L201.32 60.5977L186.164 45.4416L201.289 30.316Z" fill="#501D9A"/>
<path d="M216.445 30.316L216.445 60.5977L201.32 45.4416L216.445 30.316Z" fill="#501D9A"/>
<path d="M216.476 0.0342789L216.476 30.3159L246.757 30.3159L246.757 0.0342783L216.476 0.0342789Z" fill="#CB0083"/>
<path d="M216.447 15.1662L231.599 30.314L246.747 15.1619L231.595 0.0141562L216.447 15.1662Z" fill="#501D9A"/>
<path d="M216.476 30.316L216.476 60.5977L246.757 60.5977L246.757 30.316L216.476 30.316Z" fill="#8600D3"/>
<path d="M231.601 30.316L231.601 60.5977L216.445 45.4416L231.601 30.316Z" fill="#501D9A"/>
<path d="M246.757 30.316L246.757 60.5977L231.601 45.4416L246.757 30.316Z" fill="#501D9A"/>
<path d="M64.9762 0.0342789L64.9762 30.3159L95.2578 30.3159L95.2578 0.0342783L64.9762 0.0342789Z" fill="#CB0083"/>
<path d="M64.9802 15.1662L80.1323 30.314L95.28 15.1619L80.128 0.0141562L64.9802 15.1662Z" fill="#501D9A"/>
<path d="M64.9762 30.316L64.9762 60.5977L95.2578 60.5977L95.2578 30.316L64.9762 30.316Z" fill="#8600D3"/>
<path d="M80.1323 30.316L80.1323 60.5977L65.0067 45.4416L80.1323 30.316Z" fill="#501D9A"/>
<path d="M95.2883 30.316L95.2883 60.5977L80.1323 45.4416L95.2883 30.316Z" fill="#501D9A"/>
<path d="M95.2883 0.0342789L95.2883 30.3159L125.57 30.3159L125.57 0.0342783L95.2883 0.0342789Z" fill="#CB0083"/>
<path d="M95.2869 15.1545L110.439 30.3022L125.587 15.1502L110.435 0.00243746L95.2869 15.1545Z" fill="#501D9A"/>
<path d="M95.2883 30.316L95.2883 60.5977L125.57 60.5977L125.57 30.316L95.2883 30.316Z" fill="#8600D3"/>
<path d="M110.414 30.316L110.444 60.5977L95.2883 45.4416L110.414 30.316Z" fill="#501D9A"/>
<path d="M125.57 30.316L125.57 60.5977L110.444 45.4416L125.57 30.316Z" fill="#501D9A"/>
<path d="M125.57 0.0342789L125.57 30.3159L155.852 30.3159L155.852 0.0342783L125.57 0.0342789Z" fill="#CB0083"/>
<path d="M125.572 15.1647L140.724 30.3125L155.872 15.1605L140.72 0.0126981L125.572 15.1647Z" fill="#501D9A"/>
<path d="M125.57 30.316L125.57 60.5977L155.852 60.5977L155.852 30.316L125.57 30.316Z" fill="#8600D3"/>
<path d="M140.726 30.316L140.726 60.5977L125.57 45.4416L140.726 30.316Z" fill="#501D9A"/>
<path d="M155.852 30.316L155.882 60.5977L140.726 45.4416L155.852 30.316Z" fill="#501D9A"/>
<path d="M-3.22793e-06 0.0347672L0 30.3164L4.4129 30.3164L4.4129 0.0347671L-3.22793e-06 0.0347672Z" fill="#CB0083"/>
<path d="M-9.3756e-07 10.7779L4.4129 15.1603L0 19.5732L-9.3756e-07 10.7779Z" fill="#501D9A"/>
<path d="M-3.22793e-06 30.316L0 60.5977L4.4129 60.5977L4.4129 30.316L-3.22793e-06 30.316Z" fill="#8600D3"/>
<path d="M-2.76077e-06 34.6985L4.4129 30.316L4.4129 60.5977L-4.70402e-07 56.1848L-2.76077e-06 34.6985Z" fill="#501D9A"/>
<path d="M4.4129 0.0342789L4.4129 30.3159L34.6945 30.3159L34.6945 0.0342783L4.4129 0.0342789Z" fill="#CB0083"/>
<path d="M4.41149 15.152L19.5635 30.2998L34.7113 15.1478L19.5592 -2.5946e-06L4.41149 15.152Z" fill="#501D9A"/>
<path d="M4.4129 30.316L4.4129 60.5977L34.6945 60.5977L34.6945 30.316L4.4129 30.316Z" fill="#8600D3"/>
<path d="M19.5385 30.316L19.5385 60.5977L4.4129 45.4416L19.5385 30.316Z" fill="#501D9A"/>
<path d="M34.6945 30.316L34.6945 60.5977L19.5689 45.4416L34.6945 30.316Z" fill="#501D9A"/>
<path d="M34.6945 0.0342789L34.6945 30.3159L64.9762 30.3159L64.9762 0.0342783L34.6945 0.0342789Z" fill="#CB0083"/>
<path d="M34.697 15.1618L49.849 30.3096L64.9968 15.1575L49.8447 0.00976303L34.697 15.1618Z" fill="#501D9A"/>
<path d="M34.6945 30.316L34.6945 60.5977L64.9762 60.5977L64.9762 30.316L34.6945 30.316Z" fill="#8600D3"/>
<path d="M49.8506 30.316L49.8506 60.5977L34.6945 45.4416L49.8506 30.316Z" fill="#501D9A"/>
<path d="M64.9762 30.316L65.0066 60.5977L49.8506 45.4416L64.9762 30.316Z" fill="#501D9A"/>
<path d="M246.757 0.0342789L246.757 30.3159L277.039 30.3159L277.039 0.0342783L246.757 0.0342789Z" fill="#CB0083"/>
<path d="M246.754 15.1545L261.906 30.3022L277.054 15.1502L261.902 0.00243746L246.754 15.1545Z" fill="#501D9A"/>
<path d="M246.757 30.316L246.757 60.5977L277.039 60.5977L277.039 30.316L246.757 30.316Z" fill="#8600D3"/>
<path d="M261.913 30.316L261.913 60.5977L246.757 45.4416L261.913 30.316Z" fill="#501D9A"/>
<path d="M277.039 30.316L277.039 60.5977L261.883 45.4416L277.039 30.316Z" fill="#501D9A"/>
<path d="M277.039 0.0342789L277.039 30.3159L307.321 30.3159L307.321 0.0342783L277.039 0.0342789Z" fill="#CB0083"/>
<path d="M277.04 15.1633L292.192 30.311L307.34 15.159L292.188 0.0112265L277.04 15.1633Z" fill="#501D9A"/>
<path d="M277.039 30.316L277.039 60.5977L307.321 60.5977L307.321 30.316L277.039 30.316Z" fill="#8600D3"/>
<path d="M292.195 30.316L292.195 60.5977L277.039 45.4416L292.195 30.316Z" fill="#501D9A"/>
<path d="M307.321 30.316L307.351 60.5977L292.195 45.4416L307.321 30.316Z" fill="#501D9A"/>
<path d="M307.351 0.0342789L307.351 30.3159L337.633 30.3159L337.633 0.0342783L307.351 0.0342789Z" fill="#CB0083"/>
<path d="M307.346 15.152L322.499 30.2998L337.646 15.1478L322.494 -3.94347e-06L307.346 15.152Z" fill="#501D9A"/>
<path d="M307.351 30.316L307.351 60.5977L337.633 60.5977L337.633 30.316L307.351 30.316Z" fill="#8600D3"/>
<path d="M322.477 30.316L322.477 60.5977L307.351 45.4416L322.477 30.316Z" fill="#501D9A"/>
<path d="M337.633 30.316L337.633 60.5977L322.477 45.4416L337.633 30.316Z" fill="#501D9A"/>
<path d="M337.633 0.0342789L337.633 30.3159L367.914 30.3159L367.914 0.0342783L337.633 0.0342789Z" fill="#CB0083"/>
<path d="M337.632 15.1618L352.784 30.3096L367.932 15.1575L352.78 0.00976168L337.632 15.1618Z" fill="#501D9A"/>
<path d="M337.633 30.316L337.633 60.5977L367.914 60.5977L367.914 30.316L337.633 30.316Z" fill="#8600D3"/>
<path d="M352.789 30.316L352.789 60.5977L337.633 45.4416L352.789 30.316Z" fill="#501D9A"/>
<path d="M367.914 30.316L367.914 60.5977L352.789 45.4416L367.914 30.316Z" fill="#501D9A"/>
<path d="M367.945 0.0342789L367.945 30.3159L398.226 30.3159L398.226 0.0342783L367.945 0.0342789Z" fill="#CB0083"/>
<path d="M367.917 15.1706L383.069 30.3184L398.217 15.1663L383.065 0.0185507L367.917 15.1706Z" fill="#501D9A"/>
<path d="M367.945 30.316L367.945 60.5977L398.226 60.5977L398.226 30.316L367.945 30.316Z" fill="#8600D3"/>
<path d="M383.07 30.316L383.07 60.5977L367.945 45.4416L383.07 30.316Z" fill="#501D9A"/>
<path d="M398.226 30.316L398.226 60.5977L383.07 45.4416L398.226 30.316Z" fill="#501D9A"/>
<path d="M398.226 0.0342789L398.226 30.3159L428.508 30.3159L428.508 0.0342783L398.226 0.0342789Z" fill="#CB0083"/>
<path d="M398.224 15.1589L413.376 30.3066L428.524 15.1546L413.372 0.00681581L398.224 15.1589Z" fill="#501D9A"/>
<path d="M398.226 30.316L398.226 60.5977L428.508 60.5977L428.508 30.316L398.226 30.316Z" fill="#8600D3"/>
<path d="M413.382 30.316L413.382 60.5977L398.226 45.4416L413.382 30.316Z" fill="#501D9A"/>
<path d="M428.508 30.316L428.508 60.5977L413.382 45.4416L428.508 30.316Z" fill="#501D9A"/>
<path d="M428.539 0.0342789L428.539 30.3159L458.82 30.3159L458.82 0.0342783L428.539 0.0342789Z" fill="#CB0083"/>
<path d="M428.51 15.1682L443.662 30.3159L458.809 15.1639L443.657 0.0160932L428.51 15.1682Z" fill="#501D9A"/>
<path d="M428.508 30.316L428.508 60.5977L458.79 60.5977L458.79 30.316L428.508 30.316Z" fill="#8600D3"/>
<path d="M443.664 30.316L443.664 60.5977L428.539 45.4416L443.664 30.316Z" fill="#501D9A"/>
<path d="M458.82 30.316L458.82 60.5977L443.664 45.4416L458.82 30.316Z" fill="#501D9A"/>
<path d="M458.82 0.0342789L458.82 30.3159L489.102 30.3159L489.102 0.0342783L458.82 0.0342789Z" fill="#CB0083"/>
<path d="M458.819 15.1579L473.971 30.3057L489.118 15.1536L473.966 0.00587027L458.819 15.1579Z" fill="#501D9A"/>
<path d="M458.82 30.316L458.82 60.5977L489.102 60.5977L489.102 30.316L458.82 30.316Z" fill="#8600D3"/>
<path d="M473.946 30.316L473.976 60.5977L458.82 45.4416L473.946 30.316Z" fill="#501D9A"/>
<path d="M640.882 0.0342789L640.882 30.3159L671.164 30.3159L671.164 0.0342783L640.882 0.0342789Z" fill="#CB0083"/>
<path d="M640.855 15.1677L656.007 30.3154L671.155 15.1634L656.003 0.0156211L640.855 15.1677Z" fill="#501D9A"/>
<path d="M640.882 30.316L640.882 60.5977L671.164 60.5977L671.164 30.316L640.882 30.316Z" fill="#8600D3"/>
<path d="M656.008 30.316L656.008 60.5977L640.882 45.4416L656.008 30.316Z" fill="#501D9A"/>
<path d="M671.164 30.316L671.164 60.5977L656.008 45.4416L671.164 30.316Z" fill="#501D9A"/>
<path d="M671.164 0.0342789L671.164 30.3159L701.445 30.3159L701.445 0.0342783L671.164 0.0342789Z" fill="#CB0083"/>
<path d="M671.162 15.1564L686.314 30.3042L701.462 15.1522L686.31 0.00439733L671.162 15.1564Z" fill="#501D9A"/>
<path d="M671.164 30.316L671.164 60.5977L701.445 60.5977L701.445 30.316L671.164 30.316Z" fill="#8600D3"/>
<path d="M686.289 30.316L686.32 60.5977L671.164 45.4416L686.289 30.316Z" fill="#501D9A"/>
<path d="M701.445 30.316L701.445 60.5977L686.32 45.4416L701.445 30.316Z" fill="#501D9A"/>
<path d="M701.476 0.0342789L701.476 30.3159L731.757 30.3159L731.757 0.0342783L701.476 0.0342789Z" fill="#CB0083"/>
<path d="M701.447 15.1662L716.6 30.314L731.747 15.1619L716.595 0.0141562L701.447 15.1662Z" fill="#501D9A"/>
<path d="M701.476 30.316L701.476 60.5977L731.757 60.5977L731.757 30.316L701.476 30.316Z" fill="#8600D3"/>
<path d="M716.601 30.316L716.601 60.5977L701.445 45.4416L716.601 30.316Z" fill="#501D9A"/>
<path d="M731.757 30.316L731.757 60.5977L716.601 45.4416L731.757 30.316Z" fill="#501D9A"/>
<path d="M549.976 0.0342789L549.976 30.3159L580.258 30.3159L580.258 0.0342783L549.976 0.0342789Z" fill="#CB0083"/>
<path d="M549.98 15.1662L565.132 30.314L580.28 15.1619L565.128 0.0141562L549.98 15.1662Z" fill="#501D9A"/>
<path d="M549.976 30.316L549.976 60.5977L580.258 60.5977L580.258 30.316L549.976 30.316Z" fill="#8600D3"/>
<path d="M565.132 30.316L565.132 60.5977L550.007 45.4416L565.132 30.316Z" fill="#501D9A"/>
<path d="M580.288 30.316L580.288 60.5977L565.132 45.4416L580.288 30.316Z" fill="#501D9A"/>
<path d="M580.288 0.0342789L580.288 30.3159L610.57 30.3159L610.57 0.0342783L580.288 0.0342789Z" fill="#CB0083"/>
<path d="M580.287 15.1545L595.439 30.3022L610.587 15.1502L595.435 0.00243746L580.287 15.1545Z" fill="#501D9A"/>
<path d="M580.288 30.316L580.288 60.5977L610.57 60.5977L610.57 30.316L580.288 30.316Z" fill="#8600D3"/>
<path d="M595.414 30.316L595.444 60.5977L580.288 45.4416L595.414 30.316Z" fill="#501D9A"/>
<path d="M610.57 30.316L610.57 60.5977L595.444 45.4416L610.57 30.316Z" fill="#501D9A"/>
<path d="M610.57 0.0342789L610.57 30.3159L640.852 30.3159L640.852 0.0342783L610.57 0.0342789Z" fill="#CB0083"/>
<path d="M610.572 15.1647L625.724 30.3125L640.872 15.1605L625.72 0.0126981L610.572 15.1647Z" fill="#501D9A"/>
<path d="M610.57 30.316L610.57 60.5977L640.852 60.5977L640.852 30.316L610.57 30.316Z" fill="#8600D3"/>
<path d="M625.726 30.316L625.726 60.5977L610.57 45.4416L625.726 30.316Z" fill="#501D9A"/>
<path d="M640.852 30.316L640.882 60.5977L625.726 45.4416L640.852 30.316Z" fill="#501D9A"/>
<path d="M485 0.0347672L485 30.3164L489.413 30.3164L489.413 0.0347671L485 0.0347672Z" fill="#CB0083"/>
<path d="M485 10.7779L489.413 15.1603L485 19.5732L485 10.7779Z" fill="#501D9A"/>
<path d="M485 30.316L485 60.5977L489.413 60.5977L489.413 30.316L485 30.316Z" fill="#8600D3"/>
<path d="M485 34.6985L489.413 30.316L489.413 60.5977L485 56.1848L485 34.6985Z" fill="#501D9A"/>
<path d="M489.413 0.0342789L489.413 30.3159L519.695 30.3159L519.695 0.0342783L489.413 0.0342789Z" fill="#CB0083"/>
<path d="M489.411 15.152L504.564 30.2998L519.711 15.1478L504.559 -2.5946e-06L489.411 15.152Z" fill="#501D9A"/>
<path d="M489.413 30.316L489.413 60.5977L519.695 60.5977L519.695 30.316L489.413 30.316Z" fill="#8600D3"/>
<path d="M504.539 30.316L504.539 60.5977L489.413 45.4416L504.539 30.316Z" fill="#501D9A"/>
<path d="M519.694 30.316L519.694 60.5977L504.569 45.4416L519.694 30.316Z" fill="#501D9A"/>
<path d="M519.694 0.0342789L519.694 30.3159L549.976 30.3159L549.976 0.0342783L519.694 0.0342789Z" fill="#CB0083"/>
<path d="M519.697 15.1618L534.849 30.3096L549.997 15.1575L534.845 0.00976303L519.697 15.1618Z" fill="#501D9A"/>
<path d="M519.694 30.316L519.694 60.5977L549.976 60.5977L549.976 30.316L519.694 30.316Z" fill="#8600D3"/>
<path d="M534.851 30.316L534.851 60.5977L519.694 45.4416L534.851 30.316Z" fill="#501D9A"/>
<path d="M549.976 30.316L550.007 60.5977L534.851 45.4416L549.976 30.316Z" fill="#501D9A"/>
<path d="M731.757 0.0342789L731.757 30.3159L762.039 30.3159L762.039 0.0342783L731.757 0.0342789Z" fill="#CB0083"/>
<path d="M731.754 15.1545L746.906 30.3022L762.054 15.1502L746.902 0.00243746L731.754 15.1545Z" fill="#501D9A"/>
<path d="M731.757 30.316L731.757 60.5977L762.039 60.5977L762.039 30.316L731.757 30.316Z" fill="#8600D3"/>
<path d="M746.913 30.316L746.913 60.5977L731.757 45.4416L746.913 30.316Z" fill="#501D9A"/>
<path d="M762.039 30.316L762.039 60.5977L746.883 45.4416L762.039 30.316Z" fill="#501D9A"/>
<path d="M762.039 0.0342789L762.039 30.3159L792.321 30.3159L792.321 0.0342783L762.039 0.0342789Z" fill="#CB0083"/>
<path d="M762.04 15.1633L777.192 30.311L792.34 15.159L777.188 0.0112265L762.04 15.1633Z" fill="#501D9A"/>
<path d="M762.039 30.316L762.039 60.5977L792.321 60.5977L792.321 30.316L762.039 30.316Z" fill="#8600D3"/>
<path d="M777.195 30.316L777.195 60.5977L762.039 45.4416L777.195 30.316Z" fill="#501D9A"/>
<path d="M792.321 30.316L792.351 60.5977L777.195 45.4416L792.321 30.316Z" fill="#501D9A"/>
<path d="M792.351 0.0342789L792.351 30.3159L822.633 30.3159L822.633 0.0342783L792.351 0.0342789Z" fill="#CB0083"/>
<path d="M792.347 15.152L807.499 30.2998L822.646 15.1478L807.494 -3.94347e-06L792.347 15.152Z" fill="#501D9A"/>
<path d="M792.351 30.316L792.351 60.5977L822.633 60.5977L822.633 30.316L792.351 30.316Z" fill="#8600D3"/>
<path d="M807.477 30.316L807.477 60.5977L792.351 45.4416L807.477 30.316Z" fill="#501D9A"/>
<path d="M822.633 30.316L822.633 60.5977L807.477 45.4416L822.633 30.316Z" fill="#501D9A"/>
<path d="M822.633 0.0342789L822.633 30.3159L852.914 30.3159L852.914 0.0342783L822.633 0.0342789Z" fill="#CB0083"/>
<path d="M822.632 15.1618L837.784 30.3096L852.932 15.1575L837.78 0.00976168L822.632 15.1618Z" fill="#501D9A"/>
<path d="M822.633 30.316L822.633 60.5977L852.914 60.5977L852.914 30.316L822.633 30.316Z" fill="#8600D3"/>
<path d="M837.789 30.316L837.789 60.5977L822.633 45.4416L837.789 30.316Z" fill="#501D9A"/>
<path d="M852.914 30.316L852.914 60.5977L837.789 45.4416L852.914 30.316Z" fill="#501D9A"/>
<path d="M852.945 0.0342789L852.945 30.3159L883.226 30.3159L883.226 0.0342783L852.945 0.0342789Z" fill="#CB0083"/>
<path d="M852.917 15.1706L868.069 30.3184L883.217 15.1663L868.065 0.0185507L852.917 15.1706Z" fill="#501D9A"/>
<path d="M852.945 30.316L852.945 60.5977L883.226 60.5977L883.226 30.316L852.945 30.316Z" fill="#8600D3"/>
<path d="M868.07 30.316L868.07 60.5977L852.945 45.4416L868.07 30.316Z" fill="#501D9A"/>
<path d="M883.226 30.316L883.226 60.5977L868.07 45.4416L883.226 30.316Z" fill="#501D9A"/>
<path d="M883.226 0.0342789L883.226 30.3159L913.508 30.3159L913.508 0.0342783L883.226 0.0342789Z" fill="#CB0083"/>
<path d="M883.224 15.1589L898.376 30.3066L913.524 15.1546L898.372 0.00681581L883.224 15.1589Z" fill="#501D9A"/>
<path d="M883.226 30.316L883.226 60.5977L913.508 60.5977L913.508 30.316L883.226 30.316Z" fill="#8600D3"/>
<path d="M898.382 30.316L898.382 60.5977L883.226 45.4416L898.382 30.316Z" fill="#501D9A"/>
<path d="M913.508 30.316L913.508 60.5977L898.382 45.4416L913.508 30.316Z" fill="#501D9A"/>
<path d="M913.539 0.0342789L913.539 30.3159L943.82 30.3159L943.82 0.0342783L913.539 0.0342789Z" fill="#CB0083"/>
<path d="M913.51 15.1682L928.662 30.3159L943.809 15.1639L928.657 0.0160932L913.51 15.1682Z" fill="#501D9A"/>
<path d="M913.508 30.316L913.508 60.5977L943.79 60.5977L943.79 30.316L913.508 30.316Z" fill="#8600D3"/>
<path d="M928.664 30.316L928.664 60.5977L913.539 45.4416L928.664 30.316Z" fill="#501D9A"/>
<path d="M943.82 30.316L943.82 60.5977L928.664 45.4416L943.82 30.316Z" fill="#501D9A"/>
<path d="M943.82 0.0342789L943.82 30.3159L974.102 30.3159L974.102 0.0342783L943.82 0.0342789Z" fill="#CB0083"/>
<path d="M943.819 15.1579L958.971 30.3057L974.118 15.1536L958.966 0.00587027L943.819 15.1579Z" fill="#501D9A"/>
<path d="M943.82 30.316L943.82 60.5977L974.102 60.5977L974.102 30.316L943.82 30.316Z" fill="#8600D3"/>
<path d="M958.946 30.316L958.976 60.5977L943.82 45.4416L958.946 30.316Z" fill="#501D9A"/>
<path d="M1125.88 0.0342789L1125.88 30.3159L1156.16 30.3159L1156.16 0.0342783L1125.88 0.0342789Z" fill="#CB0083"/>
<path d="M1125.86 15.1677L1141.01 30.3154L1156.16 15.1634L1141 0.0156211L1125.86 15.1677Z" fill="#501D9A"/>
<path d="M1125.88 30.316L1125.88 60.5977L1156.16 60.5977L1156.16 30.316L1125.88 30.316Z" fill="#8600D3"/>
<path d="M1141.01 30.316L1141.01 60.5977L1125.88 45.4416L1141.01 30.316Z" fill="#501D9A"/>
<path d="M1156.16 30.316L1156.16 60.5977L1141.01 45.4416L1156.16 30.316Z" fill="#501D9A"/>
<path d="M1156.16 0.0342789L1156.16 30.3159L1186.45 30.3159L1186.45 0.0342783L1156.16 0.0342789Z" fill="#CB0083"/>
<path d="M1156.16 15.1564L1171.31 30.3042L1186.46 15.1522L1171.31 0.00439733L1156.16 15.1564Z" fill="#501D9A"/>
<path d="M1156.16 30.316L1156.16 60.5977L1186.45 60.5977L1186.45 30.316L1156.16 30.316Z" fill="#8600D3"/>
<path d="M1171.29 30.316L1171.32 60.5977L1156.16 45.4416L1171.29 30.316Z" fill="#501D9A"/>
<path d="M1186.45 30.316L1186.45 60.5977L1171.32 45.4416L1186.45 30.316Z" fill="#501D9A"/>
<path d="M1186.48 0.0342789L1186.48 30.3159L1216.76 30.3159L1216.76 0.0342783L1186.48 0.0342789Z" fill="#CB0083"/>
<path d="M1186.45 15.1662L1201.6 30.314L1216.75 15.1619L1201.6 0.0141562L1186.45 15.1662Z" fill="#501D9A"/>
<path d="M1186.48 30.316L1186.48 60.5977L1216.76 60.5977L1216.76 30.316L1186.48 30.316Z" fill="#8600D3"/>
<path d="M1201.6 30.316L1201.6 60.5977L1186.45 45.4416L1201.6 30.316Z" fill="#501D9A"/>
<path d="M1216.76 30.316L1216.76 60.5977L1201.6 45.4416L1216.76 30.316Z" fill="#501D9A"/>
<path d="M1034.98 0.0342789L1034.98 30.3159L1065.26 30.3159L1065.26 0.0342783L1034.98 0.0342789Z" fill="#CB0083"/>
<path d="M1034.98 15.1662L1050.13 30.314L1065.28 15.1619L1050.13 0.0141562L1034.98 15.1662Z" fill="#501D9A"/>
<path d="M1034.98 30.316L1034.98 60.5977L1065.26 60.5977L1065.26 30.316L1034.98 30.316Z" fill="#8600D3"/>
<path d="M1050.13 30.316L1050.13 60.5977L1035.01 45.4416L1050.13 30.316Z" fill="#501D9A"/>
<path d="M1065.29 30.316L1065.29 60.5977L1050.13 45.4416L1065.29 30.316Z" fill="#501D9A"/>
<path d="M1065.29 0.0342789L1065.29 30.3159L1095.57 30.3159L1095.57 0.0342783L1065.29 0.0342789Z" fill="#CB0083"/>
<path d="M1065.29 15.1545L1080.44 30.3022L1095.59 15.1502L1080.43 0.00243746L1065.29 15.1545Z" fill="#501D9A"/>
<path d="M1065.29 30.316L1065.29 60.5977L1095.57 60.5977L1095.57 30.316L1065.29 30.316Z" fill="#8600D3"/>
<path d="M1080.41 30.316L1080.44 60.5977L1065.29 45.4416L1080.41 30.316Z" fill="#501D9A"/>
<path d="M1095.57 30.316L1095.57 60.5977L1080.44 45.4416L1095.57 30.316Z" fill="#501D9A"/>
<path d="M1095.57 0.0342789L1095.57 30.3159L1125.85 30.3159L1125.85 0.0342783L1095.57 0.0342789Z" fill="#CB0083"/>
<path d="M1095.57 15.1647L1110.72 30.3125L1125.87 15.1605L1110.72 0.0126981L1095.57 15.1647Z" fill="#501D9A"/>
<path d="M1095.57 30.316L1095.57 60.5977L1125.85 60.5977L1125.85 30.316L1095.57 30.316Z" fill="#8600D3"/>
<path d="M1110.73 30.316L1110.73 60.5977L1095.57 45.4416L1110.73 30.316Z" fill="#501D9A"/>
<path d="M1125.85 30.316L1125.88 60.5977L1110.73 45.4416L1125.85 30.316Z" fill="#501D9A"/>
<path d="M970 0.0347672L970 30.3164L974.413 30.3164L974.413 0.0347671L970 0.0347672Z" fill="#CB0083"/>
<path d="M970 10.7779L974.413 15.1603L970 19.5732L970 10.7779Z" fill="#501D9A"/>
<path d="M970 30.316L970 60.5977L974.413 60.5977L974.413 30.316L970 30.316Z" fill="#8600D3"/>
<path d="M970 34.6985L974.413 30.316L974.413 60.5977L970 56.1848L970 34.6985Z" fill="#501D9A"/>
<path d="M974.413 0.0342789L974.413 30.3159L1004.69 30.3159L1004.69 0.0342783L974.413 0.0342789Z" fill="#CB0083"/>
<path d="M974.411 15.152L989.564 30.2998L1004.71 15.1478L989.559 -2.5946e-06L974.411 15.152Z" fill="#501D9A"/>
<path d="M974.413 30.316L974.413 60.5977L1004.69 60.5977L1004.69 30.316L974.413 30.316Z" fill="#8600D3"/>
<path d="M989.539 30.316L989.539 60.5977L974.413 45.4416L989.539 30.316Z" fill="#501D9A"/>
<path d="M1004.69 30.316L1004.69 60.5977L989.569 45.4416L1004.69 30.316Z" fill="#501D9A"/>
<path d="M1004.69 0.0342789L1004.69 30.3159L1034.98 30.3159L1034.98 0.0342783L1004.69 0.0342789Z" fill="#CB0083"/>
<path d="M1004.7 15.1618L1019.85 30.3096L1035 15.1575L1019.84 0.00976303L1004.7 15.1618Z" fill="#501D9A"/>
<path d="M1004.69 30.316L1004.69 60.5977L1034.98 60.5977L1034.98 30.316L1004.69 30.316Z" fill="#8600D3"/>
<path d="M1019.85 30.316L1019.85 60.5977L1004.69 45.4416L1019.85 30.316Z" fill="#501D9A"/>
<path d="M1034.98 30.316L1035.01 60.5977L1019.85 45.4416L1034.98 30.316Z" fill="#501D9A"/>
<path d="M1216.76 0.0342789L1216.76 30.3159L1247.04 30.3159L1247.04 0.0342783L1216.76 0.0342789Z" fill="#CB0083"/>
<path d="M1216.75 15.1545L1231.91 30.3022L1247.05 15.1502L1231.9 0.00243746L1216.75 15.1545Z" fill="#501D9A"/>
<path d="M1216.76 30.316L1216.76 60.5977L1247.04 60.5977L1247.04 30.316L1216.76 30.316Z" fill="#8600D3"/>
<path d="M1231.91 30.316L1231.91 60.5977L1216.76 45.4416L1231.91 30.316Z" fill="#501D9A"/>
<path d="M1247.04 30.316L1247.04 60.5977L1231.88 45.4416L1247.04 30.316Z" fill="#501D9A"/>
<path d="M1247.04 0.0342789L1247.04 30.3159L1277.32 30.3159L1277.32 0.0342783L1247.04 0.0342789Z" fill="#CB0083"/>
<path d="M1247.04 15.1633L1262.19 30.311L1277.34 15.159L1262.19 0.0112265L1247.04 15.1633Z" fill="#501D9A"/>
<path d="M1247.04 30.316L1247.04 60.5977L1277.32 60.5977L1277.32 30.316L1247.04 30.316Z" fill="#8600D3"/>
<path d="M1262.2 30.316L1262.2 60.5977L1247.04 45.4416L1262.2 30.316Z" fill="#501D9A"/>
<path d="M1277.32 30.316L1277.35 60.5977L1262.2 45.4416L1277.32 30.316Z" fill="#501D9A"/>
<path d="M1277.35 0.0342789L1277.35 30.3159L1307.63 30.3159L1307.63 0.0342783L1277.35 0.0342789Z" fill="#CB0083"/>
<path d="M1277.35 15.152L1292.5 30.2998L1307.65 15.1478L1292.49 -3.94347e-06L1277.35 15.152Z" fill="#501D9A"/>
<path d="M1277.35 30.316L1277.35 60.5977L1307.63 60.5977L1307.63 30.316L1277.35 30.316Z" fill="#8600D3"/>
<path d="M1292.48 30.316L1292.48 60.5977L1277.35 45.4416L1292.48 30.316Z" fill="#501D9A"/>
<path d="M1307.63 30.316L1307.63 60.5977L1292.48 45.4416L1307.63 30.316Z" fill="#501D9A"/>
<path d="M1307.63 0.0342789L1307.63 30.3159L1337.91 30.3159L1337.91 0.0342783L1307.63 0.0342789Z" fill="#CB0083"/>
<path d="M1307.63 15.1618L1322.78 30.3096L1337.93 15.1575L1322.78 0.00976168L1307.63 15.1618Z" fill="#501D9A"/>
<path d="M1307.63 30.316L1307.63 60.5977L1337.91 60.5977L1337.91 30.316L1307.63 30.316Z" fill="#8600D3"/>
<path d="M1322.79 30.316L1322.79 60.5977L1307.63 45.4416L1322.79 30.316Z" fill="#501D9A"/>
<path d="M1337.91 30.316L1337.91 60.5977L1322.79 45.4416L1337.91 30.316Z" fill="#501D9A"/>
<path d="M1337.94 0.0342789L1337.94 30.3159L1368.23 30.3159L1368.23 0.0342783L1337.94 0.0342789Z" fill="#CB0083"/>
<path d="M1337.92 15.1706L1353.07 30.3184L1368.22 15.1663L1353.07 0.0185507L1337.92 15.1706Z" fill="#501D9A"/>
<path d="M1337.94 30.316L1337.94 60.5977L1368.23 60.5977L1368.23 30.316L1337.94 30.316Z" fill="#8600D3"/>
<path d="M1353.07 30.316L1353.07 60.5977L1337.94 45.4416L1353.07 30.316Z" fill="#501D9A"/>
<path d="M1368.23 30.316L1368.23 60.5977L1353.07 45.4416L1368.23 30.316Z" fill="#501D9A"/>
<path d="M1368.23 0.0342789L1368.23 30.3159L1398.51 30.3159L1398.51 0.0342783L1368.23 0.0342789Z" fill="#CB0083"/>
<path d="M1368.22 15.1589L1383.38 30.3066L1398.52 15.1546L1383.37 0.00681581L1368.22 15.1589Z" fill="#501D9A"/>
<path d="M1368.23 30.316L1368.23 60.5977L1398.51 60.5977L1398.51 30.316L1368.23 30.316Z" fill="#8600D3"/>
<path d="M1383.38 30.316L1383.38 60.5977L1368.23 45.4416L1383.38 30.316Z" fill="#501D9A"/>
<path d="M1398.51 30.316L1398.51 60.5977L1383.38 45.4416L1398.51 30.316Z" fill="#501D9A"/>
<path d="M1398.54 0.0342789L1398.54 30.3159L1428.82 30.3159L1428.82 0.0342783L1398.54 0.0342789Z" fill="#CB0083"/>
<path d="M1398.51 15.1682L1413.66 30.3159L1428.81 15.1639L1413.66 0.0160932L1398.51 15.1682Z" fill="#501D9A"/>
<path d="M1398.51 30.316L1398.51 60.5977L1428.79 60.5977L1428.79 30.316L1398.51 30.316Z" fill="#8600D3"/>
<path d="M1413.66 30.316L1413.66 60.5977L1398.54 45.4416L1413.66 30.316Z" fill="#501D9A"/>
<path d="M1428.82 30.316L1428.82 60.5977L1413.66 45.4416L1428.82 30.316Z" fill="#501D9A"/>
<path d="M1428.82 0.0342789L1428.82 30.3159L1459.1 30.3159L1459.1 0.0342783L1428.82 0.0342789Z" fill="#CB0083"/>
<path d="M1428.82 15.1579L1443.97 30.3057L1459.12 15.1536L1443.97 0.00587027L1428.82 15.1579Z" fill="#501D9A"/>
<path d="M1428.82 30.316L1428.82 60.5977L1459.1 60.5977L1459.1 30.316L1428.82 30.316Z" fill="#8600D3"/>
<path d="M1443.95 30.316L1443.98 60.5977L1428.82 45.4416L1443.95 30.316Z" fill="#501D9A"/>
<path d="M1610.88 0.0342789L1610.88 30.3159L1641.16 30.3159L1641.16 0.0342783L1610.88 0.0342789Z" fill="#CB0083"/>
<path d="M1610.86 15.1677L1626.01 30.3154L1641.16 15.1634L1626 0.0156211L1610.86 15.1677Z" fill="#501D9A"/>
<path d="M1610.88 30.316L1610.88 60.5977L1641.16 60.5977L1641.16 30.316L1610.88 30.316Z" fill="#8600D3"/>
<path d="M1626.01 30.316L1626.01 60.5977L1610.88 45.4416L1626.01 30.316Z" fill="#501D9A"/>
<path d="M1641.16 30.316L1641.16 60.5977L1626.01 45.4416L1641.16 30.316Z" fill="#501D9A"/>
<path d="M1641.16 0.0342789L1641.16 30.3159L1671.45 30.3159L1671.45 0.0342783L1641.16 0.0342789Z" fill="#CB0083"/>
<path d="M1641.16 15.1564L1656.31 30.3042L1671.46 15.1522L1656.31 0.00439733L1641.16 15.1564Z" fill="#501D9A"/>
<path d="M1641.16 30.316L1641.16 60.5977L1671.45 60.5977L1671.45 30.316L1641.16 30.316Z" fill="#8600D3"/>
<path d="M1656.29 30.316L1656.32 60.5977L1641.16 45.4416L1656.29 30.316Z" fill="#501D9A"/>
<path d="M1671.45 30.316L1671.45 60.5977L1656.32 45.4416L1671.45 30.316Z" fill="#501D9A"/>
<path d="M1671.48 0.0342789L1671.48 30.3159L1701.76 30.3159L1701.76 0.0342783L1671.48 0.0342789Z" fill="#CB0083"/>
<path d="M1671.45 15.1662L1686.6 30.314L1701.75 15.1619L1686.6 0.0141562L1671.45 15.1662Z" fill="#501D9A"/>
<path d="M1671.48 30.316L1671.48 60.5977L1701.76 60.5977L1701.76 30.316L1671.48 30.316Z" fill="#8600D3"/>
<path d="M1686.6 30.316L1686.6 60.5977L1671.45 45.4416L1686.6 30.316Z" fill="#501D9A"/>
<path d="M1701.76 30.316L1701.76 60.5977L1686.6 45.4416L1701.76 30.316Z" fill="#501D9A"/>
<path d="M1519.98 0.0342789L1519.98 30.3159L1550.26 30.3159L1550.26 0.0342783L1519.98 0.0342789Z" fill="#CB0083"/>
<path d="M1519.98 15.1662L1535.13 30.314L1550.28 15.1619L1535.13 0.0141562L1519.98 15.1662Z" fill="#501D9A"/>
<path d="M1519.98 30.316L1519.98 60.5977L1550.26 60.5977L1550.26 30.316L1519.98 30.316Z" fill="#8600D3"/>
<path d="M1535.13 30.316L1535.13 60.5977L1520.01 45.4416L1535.13 30.316Z" fill="#501D9A"/>
<path d="M1550.29 30.316L1550.29 60.5977L1535.13 45.4416L1550.29 30.316Z" fill="#501D9A"/>
<path d="M1550.29 0.0342789L1550.29 30.3159L1580.57 30.3159L1580.57 0.0342783L1550.29 0.0342789Z" fill="#CB0083"/>
<path d="M1550.29 15.1545L1565.44 30.3022L1580.59 15.1502L1565.43 0.00243746L1550.29 15.1545Z" fill="#501D9A"/>
<path d="M1550.29 30.316L1550.29 60.5977L1580.57 60.5977L1580.57 30.316L1550.29 30.316Z" fill="#8600D3"/>
<path d="M1565.41 30.316L1565.44 60.5977L1550.29 45.4416L1565.41 30.316Z" fill="#501D9A"/>
<path d="M1580.57 30.316L1580.57 60.5977L1565.44 45.4416L1580.57 30.316Z" fill="#501D9A"/>
<path d="M1580.57 0.0342789L1580.57 30.3159L1610.85 30.3159L1610.85 0.0342783L1580.57 0.0342789Z" fill="#CB0083"/>
<path d="M1580.57 15.1647L1595.72 30.3125L1610.87 15.1605L1595.72 0.0126981L1580.57 15.1647Z" fill="#501D9A"/>
<path d="M1580.57 30.316L1580.57 60.5977L1610.85 60.5977L1610.85 30.316L1580.57 30.316Z" fill="#8600D3"/>
<path d="M1595.73 30.316L1595.73 60.5977L1580.57 45.4416L1595.73 30.316Z" fill="#501D9A"/>
<path d="M1610.85 30.316L1610.88 60.5977L1595.73 45.4416L1610.85 30.316Z" fill="#501D9A"/>
<path d="M1455 0.0347672L1455 30.3164L1459.41 30.3164L1459.41 0.0347671L1455 0.0347672Z" fill="#CB0083"/>
<path d="M1455 10.7779L1459.41 15.1603L1455 19.5732L1455 10.7779Z" fill="#501D9A"/>
<path d="M1455 30.316L1455 60.5977L1459.41 60.5977L1459.41 30.316L1455 30.316Z" fill="#8600D3"/>
<path d="M1455 34.6985L1459.41 30.316L1459.41 60.5977L1455 56.1848L1455 34.6985Z" fill="#501D9A"/>
<path d="M1459.41 0.0342789L1459.41 30.3159L1489.69 30.3159L1489.69 0.0342783L1459.41 0.0342789Z" fill="#CB0083"/>
<path d="M1459.41 15.152L1474.56 30.2998L1489.71 15.1478L1474.56 -2.5946e-06L1459.41 15.152Z" fill="#501D9A"/>
<path d="M1459.41 30.316L1459.41 60.5977L1489.69 60.5977L1489.69 30.316L1459.41 30.316Z" fill="#8600D3"/>
<path d="M1474.54 30.316L1474.54 60.5977L1459.41 45.4416L1474.54 30.316Z" fill="#501D9A"/>
<path d="M1489.69 30.316L1489.69 60.5977L1474.57 45.4416L1489.69 30.316Z" fill="#501D9A"/>
<path d="M1489.69 0.0342789L1489.69 30.3159L1519.98 30.3159L1519.98 0.0342783L1489.69 0.0342789Z" fill="#CB0083"/>
<path d="M1489.7 15.1618L1504.85 30.3096L1520 15.1575L1504.84 0.00976303L1489.7 15.1618Z" fill="#501D9A"/>
<path d="M1489.69 30.316L1489.69 60.5977L1519.98 60.5977L1519.98 30.316L1489.69 30.316Z" fill="#8600D3"/>
<path d="M1504.85 30.316L1504.85 60.5977L1489.69 45.4416L1504.85 30.316Z" fill="#501D9A"/>
<path d="M1519.98 30.316L1520.01 60.5977L1504.85 45.4416L1519.98 30.316Z" fill="#501D9A"/>
<path d="M1701.76 0.0342789L1701.76 30.3159L1732.04 30.3159L1732.04 0.0342783L1701.76 0.0342789Z" fill="#CB0083"/>
<path d="M1701.75 15.1545L1716.91 30.3022L1732.05 15.1502L1716.9 0.00243746L1701.75 15.1545Z" fill="#501D9A"/>
<path d="M1701.76 30.316L1701.76 60.5977L1732.04 60.5977L1732.04 30.316L1701.76 30.316Z" fill="#8600D3"/>
<path d="M1716.91 30.316L1716.91 60.5977L1701.76 45.4416L1716.91 30.316Z" fill="#501D9A"/>
<path d="M1732.04 30.316L1732.04 60.5977L1716.88 45.4416L1732.04 30.316Z" fill="#501D9A"/>
<path d="M1732.04 0.0342789L1732.04 30.3159L1762.32 30.3159L1762.32 0.0342783L1732.04 0.0342789Z" fill="#CB0083"/>
<path d="M1732.04 15.1633L1747.19 30.311L1762.34 15.159L1747.19 0.0112265L1732.04 15.1633Z" fill="#501D9A"/>
<path d="M1732.04 30.316L1732.04 60.5977L1762.32 60.5977L1762.32 30.316L1732.04 30.316Z" fill="#8600D3"/>
<path d="M1747.2 30.316L1747.2 60.5977L1732.04 45.4416L1747.2 30.316Z" fill="#501D9A"/>
<path d="M1762.32 30.316L1762.35 60.5977L1747.2 45.4416L1762.32 30.316Z" fill="#501D9A"/>
<path d="M1762.35 0.0342789L1762.35 30.3159L1792.63 30.3159L1792.63 0.0342783L1762.35 0.0342789Z" fill="#CB0083"/>
<path d="M1762.35 15.152L1777.5 30.2998L1792.65 15.1478L1777.49 -3.94347e-06L1762.35 15.152Z" fill="#501D9A"/>
<path d="M1762.35 30.316L1762.35 60.5977L1792.63 60.5977L1792.63 30.316L1762.35 30.316Z" fill="#8600D3"/>
<path d="M1777.48 30.316L1777.48 60.5977L1762.35 45.4416L1777.48 30.316Z" fill="#501D9A"/>
<path d="M1792.63 30.316L1792.63 60.5977L1777.48 45.4416L1792.63 30.316Z" fill="#501D9A"/>
<path d="M1792.63 0.0342789L1792.63 30.3159L1822.91 30.3159L1822.91 0.0342783L1792.63 0.0342789Z" fill="#CB0083"/>
<path d="M1792.63 15.1618L1807.78 30.3096L1822.93 15.1575L1807.78 0.00976168L1792.63 15.1618Z" fill="#501D9A"/>
<path d="M1792.63 30.316L1792.63 60.5977L1822.91 60.5977L1822.91 30.316L1792.63 30.316Z" fill="#8600D3"/>
<path d="M1807.79 30.316L1807.79 60.5977L1792.63 45.4416L1807.79 30.316Z" fill="#501D9A"/>
<path d="M1822.91 30.316L1822.91 60.5977L1807.79 45.4416L1822.91 30.316Z" fill="#501D9A"/>
<path d="M1822.94 0.0342789L1822.94 30.3159L1853.23 30.3159L1853.23 0.0342783L1822.94 0.0342789Z" fill="#CB0083"/>
<path d="M1822.92 15.1706L1838.07 30.3184L1853.22 15.1663L1838.07 0.0185507L1822.92 15.1706Z" fill="#501D9A"/>
<path d="M1822.94 30.316L1822.94 60.5977L1853.23 60.5977L1853.23 30.316L1822.94 30.316Z" fill="#8600D3"/>
<path d="M1838.07 30.316L1838.07 60.5977L1822.94 45.4416L1838.07 30.316Z" fill="#501D9A"/>
<path d="M1853.23 30.316L1853.23 60.5977L1838.07 45.4416L1853.23 30.316Z" fill="#501D9A"/>
<path d="M1853.23 0.0342789L1853.23 30.3159L1883.51 30.3159L1883.51 0.0342783L1853.23 0.0342789Z" fill="#CB0083"/>
<path d="M1853.22 15.1589L1868.38 30.3066L1883.52 15.1546L1868.37 0.00681581L1853.22 15.1589Z" fill="#501D9A"/>
<path d="M1853.23 30.316L1853.23 60.5977L1883.51 60.5977L1883.51 30.316L1853.23 30.316Z" fill="#8600D3"/>
<path d="M1868.38 30.316L1868.38 60.5977L1853.23 45.4416L1868.38 30.316Z" fill="#501D9A"/>
<path d="M1883.51 30.316L1883.51 60.5977L1868.38 45.4416L1883.51 30.316Z" fill="#501D9A"/>
<path d="M1883.54 0.0342789L1883.54 30.3159L1913.82 30.3159L1913.82 0.0342783L1883.54 0.0342789Z" fill="#CB0083"/>
<path d="M1883.51 15.1682L1898.66 30.3159L1913.81 15.1639L1898.66 0.0160932L1883.51 15.1682Z" fill="#501D9A"/>
<path d="M1883.51 30.316L1883.51 60.5977L1913.79 60.5977L1913.79 30.316L1883.51 30.316Z" fill="#8600D3"/>
<path d="M1898.66 30.316L1898.66 60.5977L1883.54 45.4416L1898.66 30.316Z" fill="#501D9A"/>
<path d="M1913.82 30.316L1913.82 60.5977L1898.66 45.4416L1913.82 30.316Z" fill="#501D9A"/>
<path d="M1913.82 0.0342789L1913.82 30.3159L1944.1 30.3159L1944.1 0.0342783L1913.82 0.0342789Z" fill="#CB0083"/>
<path d="M1913.82 15.1579L1928.97 30.3057L1944.12 15.1536L1928.97 0.00587027L1913.82 15.1579Z" fill="#501D9A"/>
<path d="M1913.82 30.316L1913.82 60.5977L1944.1 60.5977L1944.1 30.316L1913.82 30.316Z" fill="#8600D3"/>
<path d="M1928.95 30.316L1928.98 60.5977L1913.82 45.4416L1928.95 30.316Z" fill="#501D9A"/>
</svg>
