<svg width="490" height="61" viewBox="0 0 490 61" fill="none" xmlns="http://www.w3.org/2000/svg">
<path d="M155.882 0.0347672L155.882 30.3164L186.164 30.3164L186.164 0.0347666L155.882 0.0347672Z" fill="#CB0083"/>
<path d="M155.855 15.1682L171.007 30.3159L186.155 15.1639L171.003 0.0161093L155.855 15.1682Z" fill="#501D9A"/>
<path d="M155.882 30.3163L155.882 60.5979L186.164 60.5979L186.164 30.3163L155.882 30.3163Z" fill="#8600D3"/>
<path d="M171.008 30.3163L171.008 60.5979L155.882 45.4419L171.008 30.3163Z" fill="#501D9A"/>
<path d="M186.164 30.3163L186.164 60.5979L171.008 45.4419L186.164 30.3163Z" fill="#501D9A"/>
<path d="M186.164 0.0347672L186.164 30.3164L216.445 30.3164L216.445 0.0347666L186.164 0.0347672Z" fill="#CB0083"/>
<path d="M186.162 15.1569L201.314 30.3047L216.462 15.1526L201.31 0.00488561L186.162 15.1569Z" fill="#501D9A"/>
<path d="M186.164 30.3163L186.164 60.5979L216.445 60.5979L216.445 30.3163L186.164 30.3163Z" fill="#8600D3"/>
<path d="M201.289 30.3163L201.32 60.5979L186.164 45.4419L201.289 30.3163Z" fill="#501D9A"/>
<path d="M216.445 30.3163L216.445 60.5979L201.32 45.4419L216.445 30.3163Z" fill="#501D9A"/>
<path d="M216.476 0.0347672L216.476 30.3164L246.757 30.3164L246.757 0.0347666L216.476 0.0347672Z" fill="#CB0083"/>
<path d="M216.447 15.1667L231.599 30.3145L246.747 15.1624L231.595 0.0146445L216.447 15.1667Z" fill="#501D9A"/>
<path d="M216.476 30.3163L216.476 60.5979L246.757 60.5979L246.757 30.3163L216.476 30.3163Z" fill="#8600D3"/>
<path d="M231.601 30.3163L231.601 60.5979L216.445 45.4419L231.601 30.3163Z" fill="#501D9A"/>
<path d="M246.757 30.3163L246.757 60.5979L231.601 45.4419L246.757 30.3163Z" fill="#501D9A"/>
<path d="M64.9762 0.0347672L64.9762 30.3164L95.2578 30.3164L95.2578 0.0347666L64.9762 0.0347672Z" fill="#CB0083"/>
<path d="M64.9802 15.1667L80.1323 30.3145L95.28 15.1624L80.128 0.0146445L64.9802 15.1667Z" fill="#501D9A"/>
<path d="M64.9762 30.3163L64.9762 60.5979L95.2578 60.5979L95.2578 30.3163L64.9762 30.3163Z" fill="#8600D3"/>
<path d="M80.1323 30.3163L80.1323 60.5979L65.0067 45.4419L80.1323 30.3163Z" fill="#501D9A"/>
<path d="M95.2883 30.3163L95.2883 60.5979L80.1323 45.4419L95.2883 30.3163Z" fill="#501D9A"/>
<path d="M95.2883 0.0347672L95.2883 30.3164L125.57 30.3164L125.57 0.0347666L95.2883 0.0347672Z" fill="#CB0083"/>
<path d="M95.2869 15.1545L110.439 30.3022L125.587 15.1502L110.435 0.00243746L95.2869 15.1545Z" fill="#501D9A"/>
<path d="M95.2883 30.3163L95.2883 60.5979L125.57 60.5979L125.57 30.3163L95.2883 30.3163Z" fill="#8600D3"/>
<path d="M110.414 30.3163L110.444 60.5979L95.2883 45.4419L110.414 30.3163Z" fill="#501D9A"/>
<path d="M125.57 30.3163L125.57 60.5979L110.444 45.4419L125.57 30.3163Z" fill="#501D9A"/>
<path d="M125.57 0.0347672L125.57 30.3164L155.852 30.3164L155.852 0.0347666L125.57 0.0347672Z" fill="#CB0083"/>
<path d="M125.572 15.1652L140.724 30.313L155.872 15.1609L140.72 0.0131864L125.572 15.1652Z" fill="#501D9A"/>
<path d="M125.57 30.3163L125.57 60.5979L155.852 60.5979L155.852 30.3163L125.57 30.3163Z" fill="#8600D3"/>
<path d="M140.726 30.3163L140.726 60.5979L125.57 45.4419L140.726 30.3163Z" fill="#501D9A"/>
<path d="M155.852 30.3163L155.882 60.5979L140.726 45.4419L155.852 30.3163Z" fill="#501D9A"/>
<path d="M-3.22793e-06 0.0347672L0 30.3164L4.4129 30.3164L4.4129 0.0347671L-3.22793e-06 0.0347672Z" fill="#CB0083"/>
<path d="M-9.3756e-07 10.7779L4.4129 15.1603L0 19.5732L-9.3756e-07 10.7779Z" fill="#501D9A"/>
<path d="M-3.22793e-06 30.3163L0 60.5979L4.4129 60.5979L4.4129 30.3163L-3.22793e-06 30.3163Z" fill="#8600D3"/>
<path d="M-2.76077e-06 34.6987L4.4129 30.3163L4.4129 60.5979L-4.70402e-07 56.185L-2.76077e-06 34.6987Z" fill="#501D9A"/>
<path d="M4.4129 0.0347672L4.4129 30.3164L34.6945 30.3164L34.6945 0.0347666L4.4129 0.0347672Z" fill="#CB0083"/>
<path d="M4.41149 15.152L19.5635 30.2998L34.7113 15.1478L19.5592 -2.5946e-06L4.41149 15.152Z" fill="#501D9A"/>
<path d="M4.4129 30.3163L4.4129 60.5979L34.6945 60.5979L34.6945 30.3163L4.4129 30.3163Z" fill="#8600D3"/>
<path d="M19.5385 30.3163L19.5385 60.5979L4.4129 45.4419L19.5385 30.3163Z" fill="#501D9A"/>
<path d="M34.6945 30.3163L34.6945 60.5979L19.5689 45.4419L34.6945 30.3163Z" fill="#501D9A"/>
<path d="M34.6945 0.0347672L34.6945 30.3164L64.9762 30.3164L64.9762 0.0347666L34.6945 0.0347672Z" fill="#CB0083"/>
<path d="M34.697 15.1623L49.849 30.3101L64.9968 15.158L49.8447 0.0102513L34.697 15.1623Z" fill="#501D9A"/>
<path d="M34.6945 30.3163L34.6945 60.5979L64.9762 60.5979L64.9762 30.3163L34.6945 30.3163Z" fill="#8600D3"/>
<path d="M49.8506 30.3163L49.8506 60.5979L34.6945 45.4419L49.8506 30.3163Z" fill="#501D9A"/>
<path d="M64.9762 30.3163L65.0066 60.5979L49.8506 45.4419L64.9762 30.3163Z" fill="#501D9A"/>
<path d="M246.757 0.0347672L246.757 30.3164L277.039 30.3164L277.039 0.0347666L246.757 0.0347672Z" fill="#CB0083"/>
<path d="M246.754 15.1545L261.906 30.3022L277.054 15.1502L261.902 0.00243746L246.754 15.1545Z" fill="#501D9A"/>
<path d="M246.757 30.3163L246.757 60.5979L277.039 60.5979L277.039 30.3163L246.757 30.3163Z" fill="#8600D3"/>
<path d="M261.913 30.3163L261.913 60.5979L246.757 45.4419L261.913 30.3163Z" fill="#501D9A"/>
<path d="M277.039 30.3163L277.039 60.5979L261.883 45.4419L277.039 30.3163Z" fill="#501D9A"/>
<path d="M277.039 0.0347672L277.039 30.3164L307.321 30.3164L307.321 0.0347666L277.039 0.0347672Z" fill="#CB0083"/>
<path d="M277.04 15.1638L292.192 30.3115L307.34 15.1595L292.188 0.0117148L277.04 15.1638Z" fill="#501D9A"/>
<path d="M277.039 30.3163L277.039 60.5979L307.321 60.5979L307.321 30.3163L277.039 30.3163Z" fill="#8600D3"/>
<path d="M292.195 30.3163L292.195 60.5979L277.039 45.4419L292.195 30.3163Z" fill="#501D9A"/>
<path d="M307.321 30.3163L307.351 60.5979L292.195 45.4419L307.321 30.3163Z" fill="#501D9A"/>
<path d="M307.351 0.0347672L307.351 30.3164L337.633 30.3164L337.633 0.0347666L307.351 0.0347672Z" fill="#CB0083"/>
<path d="M307.346 15.152L322.499 30.2998L337.646 15.1478L322.494 -3.94347e-06L307.346 15.152Z" fill="#501D9A"/>
<path d="M307.351 30.3163L307.351 60.5979L337.633 60.5979L337.633 30.3163L307.351 30.3163Z" fill="#8600D3"/>
<path d="M322.477 30.3163L322.477 60.5979L307.351 45.4419L322.477 30.3163Z" fill="#501D9A"/>
<path d="M337.633 30.3163L337.633 60.5979L322.477 45.4419L337.633 30.3163Z" fill="#501D9A"/>
<path d="M337.633 0.0347672L337.633 30.3164L367.914 30.3164L367.914 0.0347666L337.633 0.0347672Z" fill="#CB0083"/>
<path d="M337.632 15.1623L352.784 30.3101L367.932 15.158L352.78 0.01025L337.632 15.1623Z" fill="#501D9A"/>
<path d="M337.633 30.3163L337.633 60.5979L367.914 60.5979L367.914 30.3163L337.633 30.3163Z" fill="#8600D3"/>
<path d="M352.789 30.3163L352.789 60.5979L337.633 45.4419L352.789 30.3163Z" fill="#501D9A"/>
<path d="M367.914 30.3163L367.914 60.5979L352.789 45.4419L367.914 30.3163Z" fill="#501D9A"/>
<path d="M367.945 0.0347672L367.945 30.3164L398.226 30.3164L398.226 0.0347666L367.945 0.0347672Z" fill="#CB0083"/>
<path d="M367.917 15.1711L383.069 30.3188L398.217 15.1668L383.065 0.019039L367.917 15.1711Z" fill="#501D9A"/>
<path d="M367.945 30.3163L367.945 60.5979L398.226 60.5979L398.226 30.3163L367.945 30.3163Z" fill="#8600D3"/>
<path d="M383.07 30.3163L383.07 60.5979L367.945 45.4419L383.07 30.3163Z" fill="#501D9A"/>
<path d="M398.226 30.3163L398.226 60.5979L383.07 45.4419L398.226 30.3163Z" fill="#501D9A"/>
<path d="M398.226 0.0347672L398.226 30.3164L428.508 30.3164L428.508 0.0347666L398.226 0.0347672Z" fill="#CB0083"/>
<path d="M398.224 15.1589L413.376 30.3066L428.524 15.1546L413.372 0.00681581L398.224 15.1589Z" fill="#501D9A"/>
<path d="M398.226 30.3163L398.226 60.5979L428.508 60.5979L428.508 30.3163L398.226 30.3163Z" fill="#8600D3"/>
<path d="M413.382 30.3163L413.382 60.5979L398.226 45.4419L413.382 30.3163Z" fill="#501D9A"/>
<path d="M428.508 30.3163L428.508 60.5979L413.382 45.4419L428.508 30.3163Z" fill="#501D9A"/>
<path d="M428.539 0.0347672L428.539 30.3164L458.82 30.3164L458.82 0.0347666L428.539 0.0347672Z" fill="#CB0083"/>
<path d="M428.51 15.1686L443.662 30.3164L458.809 15.1643L443.657 0.0165814L428.51 15.1686Z" fill="#501D9A"/>
<path d="M428.508 30.3163L428.508 60.5979L458.79 60.5979L458.79 30.3163L428.508 30.3163Z" fill="#8600D3"/>
<path d="M443.664 30.3163L443.664 60.5979L428.539 45.4419L443.664 30.3163Z" fill="#501D9A"/>
<path d="M458.82 30.3163L458.82 60.5979L443.664 45.4419L458.82 30.3163Z" fill="#501D9A"/>
<path d="M458.82 0.0347672L458.82 30.3164L489.102 30.3164L489.102 0.0347666L458.82 0.0347672Z" fill="#CB0083"/>
<path d="M458.819 15.1584L473.971 30.3062L489.118 15.1541L473.966 0.00635855L458.819 15.1584Z" fill="#501D9A"/>
<path d="M458.82 30.3163L458.82 60.5979L489.102 60.5979L489.102 30.3163L458.82 30.3163Z" fill="#8600D3"/>
<path d="M473.946 30.3163L473.976 60.5979L458.82 45.4419L473.946 30.3163Z" fill="#501D9A"/>
</svg>
